<svg xmlns="http://www.w3.org/2000/svg" viewBox="0 0 335.48 516.12"><defs><style>.cls-1{fill:#70535c;}.cls-2{fill:#8b868a;}.cls-3{fill:#bb8497;}.cls-4{fill:#7d767b;}.cls-5{fill:#ccc5cc;}.cls-6{fill:#977b66;}.cls-7{fill:#c69bac;}.cls-8{fill:#eacaa3;}.cls-9{fill:#85261a;}.cls-10{fill:#978097;}.cls-11{fill:#e6e6e6;}.cls-12{fill:#666;}.cls-13{fill:#caa8c9;}.cls-14{fill:#4d3252;}.cls-15{fill:#231827;}.cls-16{fill:#754c29;}.cls-17{fill:#d7b793;}</style></defs><title>punda</title><g id="Layer_2" data-name="Layer 2"><g id="grid"><rect class="cls-1" x="309.67" y="283.87" width="25.81" height="25.8"/><rect class="cls-1" x="309.67" y="258.06" width="25.81" height="25.81"/><rect class="cls-1" x="309.67" y="232.25" width="25.81" height="25.81"/><rect class="cls-1" x="309.67" y="206.45" width="25.81" height="25.8"/><rect class="cls-1" x="309.67" y="180.64" width="25.81" height="25.81"/><rect class="cls-1" x="309.67" y="154.83" width="25.81" height="25.81"/><rect class="cls-1" x="309.67" y="129.03" width="25.81" height="25.8"/><rect class="cls-1" x="309.67" y="103.22" width="25.81" height="25.81"/><rect class="cls-1" x="283.87" y="309.67" width="25.8" height="25.81"/><rect class="cls-1" x="283.87" y="283.87" width="25.8" height="25.8"/><rect class="cls-1" x="283.87" y="258.06" width="25.8" height="25.81"/><rect class="cls-1" x="283.87" y="232.25" width="25.8" height="25.81"/><rect class="cls-1" x="283.87" y="206.45" width="25.8" height="25.8"/><rect class="cls-1" x="283.87" y="180.64" width="25.8" height="25.81"/><rect class="cls-1" x="283.87" y="154.83" width="25.8" height="25.81"/><rect class="cls-1" x="283.87" y="129.03" width="25.8" height="25.8"/><rect class="cls-1" x="283.87" y="103.22" width="25.8" height="25.81"/><rect class="cls-1" x="283.87" y="77.42" width="25.8" height="25.8"/><rect class="cls-2" x="258.06" y="438.71" width="25.81" height="25.8"/><rect class="cls-2" x="258.06" y="412.9" width="25.81" height="25.81"/><rect class="cls-1" x="258.06" y="335.48" width="25.81" height="25.81"/><rect class="cls-1" x="258.06" y="309.67" width="25.81" height="25.81"/><rect class="cls-1" x="258.06" y="283.87" width="25.81" height="25.8"/><rect class="cls-1" x="258.06" y="258.06" width="25.81" height="25.81"/><rect class="cls-3" x="258.06" y="232.25" width="25.81" height="25.81"/><rect class="cls-3" x="258.06" y="206.45" width="25.81" height="25.8"/><rect class="cls-3" x="258.06" y="180.64" width="25.81" height="25.81"/><rect class="cls-3" x="258.06" y="154.83" width="25.81" height="25.81"/><rect class="cls-3" x="258.06" y="129.03" width="25.81" height="25.8"/><rect class="cls-3" x="258.06" y="103.22" width="25.81" height="25.81"/><rect class="cls-3" x="258.06" y="77.42" width="25.81" height="25.8"/><rect class="cls-1" x="258.06" y="51.61" width="25.81" height="25.81"/><rect class="cls-2" x="232.25" y="438.71" width="25.81" height="25.8"/><rect class="cls-2" x="232.25" y="412.9" width="25.81" height="25.81"/><rect class="cls-2" x="232.25" y="387.09" width="25.81" height="25.81"/><rect class="cls-4" x="232.25" y="361.29" width="25.81" height="25.8"/><rect class="cls-4" x="232.25" y="335.48" width="25.81" height="25.81"/><rect class="cls-1" x="232.25" y="309.67" width="25.81" height="25.81"/><rect class="cls-3" x="232.25" y="283.87" width="25.81" height="25.8"/><rect class="cls-3" x="232.25" y="258.06" width="25.81" height="25.81"/><rect class="cls-3" x="232.25" y="232.25" width="25.81" height="25.81"/><rect class="cls-1" x="232.25" y="206.45" width="25.81" height="25.8"/><rect class="cls-1" x="232.25" y="180.64" width="25.81" height="25.81"/><rect class="cls-3" x="232.25" y="154.83" width="25.81" height="25.81"/><rect class="cls-3" x="232.25" y="129.03" width="25.81" height="25.8"/><rect class="cls-3" x="232.25" y="103.22" width="25.81" height="25.81"/><rect class="cls-3" x="232.25" y="77.42" width="25.81" height="25.8"/><rect class="cls-3" x="232.25" y="51.61" width="25.81" height="25.81"/><rect class="cls-1" x="232.25" y="25.8" width="25.81" height="25.81"/><rect class="cls-5" x="206.45" y="438.71" width="25.8" height="25.8"/><rect class="cls-4" x="206.45" y="412.9" width="25.8" height="25.81"/><rect class="cls-4" x="206.45" y="387.09" width="25.8" height="25.81"/><rect class="cls-5" x="206.45" y="361.29" width="25.8" height="25.8"/><rect class="cls-4" x="206.45" y="335.48" width="25.8" height="25.81"/><rect class="cls-3" x="206.45" y="309.67" width="25.8" height="25.81"/><rect class="cls-3" x="206.45" y="283.87" width="25.8" height="25.8"/><rect class="cls-3" x="206.45" y="258.06" width="25.8" height="25.81"/><rect class="cls-1" x="206.45" y="232.25" width="25.8" height="25.81"/><rect class="cls-6" x="206.45" y="206.45" width="25.8" height="25.8"/><rect class="cls-6" x="206.45" y="180.64" width="25.8" height="25.81"/><rect class="cls-3" x="206.45" y="154.83" width="25.8" height="25.81"/><rect class="cls-3" x="206.45" y="129.03" width="25.8" height="25.8"/><rect class="cls-3" x="206.45" y="103.22" width="25.8" height="25.81"/><rect class="cls-3" x="206.45" y="77.42" width="25.8" height="25.8"/><rect class="cls-3" x="206.45" y="51.61" width="25.8" height="25.81"/><rect class="cls-1" x="206.45" y="25.8" width="25.8" height="25.81"/><rect class="cls-3" x="206.45" width="25.8" height="25.8"/><rect class="cls-2" x="180.64" y="490.32" width="25.81" height="25.8"/><rect class="cls-6" x="180.64" y="464.51" width="25.81" height="25.81"/><rect class="cls-4" x="180.64" y="438.71" width="25.81" height="25.8"/><rect class="cls-4" x="180.64" y="412.9" width="25.81" height="25.81"/><rect class="cls-6" x="180.64" y="387.09" width="25.81" height="25.81"/><rect class="cls-6" x="180.64" y="361.29" width="25.81" height="25.8"/><rect class="cls-5" x="180.64" y="335.48" width="25.81" height="25.81"/><rect class="cls-3" x="180.64" y="309.67" width="25.81" height="25.81"/><rect class="cls-3" x="180.64" y="283.87" width="25.81" height="25.8"/><rect class="cls-3" x="180.64" y="258.06" width="25.81" height="25.81"/><rect class="cls-3" x="180.64" y="232.25" width="25.81" height="25.81"/><rect class="cls-3" x="180.64" y="206.45" width="25.81" height="25.8"/><rect class="cls-3" x="180.64" y="180.64" width="25.81" height="25.81"/><rect class="cls-3" x="180.64" y="154.83" width="25.81" height="25.81"/><rect class="cls-7" x="180.64" y="129.03" width="25.81" height="25.8"/><rect class="cls-3" x="180.64" y="103.22" width="25.81" height="25.81"/><rect class="cls-3" x="180.64" y="77.42" width="25.81" height="25.8"/><rect class="cls-1" x="180.64" y="51.61" width="25.81" height="25.81"/><rect class="cls-1" x="180.64" y="25.8" width="25.81" height="25.81"/><rect class="cls-3" x="180.64" width="25.81" height="25.8"/><rect class="cls-5" x="154.83" y="490.32" width="25.81" height="25.8"/><rect class="cls-8" x="154.83" y="464.51" width="25.81" height="25.81"/><rect class="cls-6" x="154.83" y="438.71" width="25.81" height="25.8"/><rect class="cls-6" x="154.83" y="412.9" width="25.81" height="25.81"/><rect class="cls-9" x="154.83" y="387.09" width="25.81" height="25.81"/><rect class="cls-6" x="154.83" y="361.29" width="25.81" height="25.8"/><rect class="cls-5" x="154.83" y="335.48" width="25.81" height="25.81"/><rect class="cls-3" x="154.83" y="309.67" width="25.81" height="25.81"/><rect class="cls-3" x="154.83" y="283.87" width="25.81" height="25.8"/><rect class="cls-3" x="154.83" y="258.06" width="25.81" height="25.81"/><rect class="cls-3" x="154.83" y="232.25" width="25.81" height="25.81"/><rect class="cls-3" x="154.83" y="206.45" width="25.81" height="25.8"/><rect class="cls-6" x="154.83" y="180.64" width="25.81" height="25.81"/><rect class="cls-7" x="154.83" y="154.83" width="25.81" height="25.81"/><rect class="cls-3" x="154.83" y="129.03" width="25.81" height="25.8"/><rect class="cls-3" x="154.83" y="103.22" width="25.81" height="25.81"/><rect class="cls-3" x="154.83" y="77.42" width="25.81" height="25.8"/><rect class="cls-3" x="154.83" y="51.61" width="25.81" height="25.81"/><rect class="cls-1" x="154.83" y="25.8" width="25.81" height="25.81"/><rect class="cls-3" x="154.83" width="25.81" height="25.8"/><rect class="cls-5" x="129.03" y="490.32" width="25.8" height="25.8"/><rect class="cls-4" x="129.03" y="464.51" width="25.8" height="25.81"/><rect class="cls-8" x="129.03" y="438.71" width="25.8" height="25.8"/><rect class="cls-8" x="129.03" y="412.9" width="25.8" height="25.81"/><rect class="cls-10" x="129.03" y="387.09" width="25.8" height="25.81"/><rect class="cls-4" x="129.03" y="361.29" width="25.8" height="25.8"/><rect class="cls-4" x="129.03" y="335.48" width="25.8" height="25.81"/><rect class="cls-4" x="129.03" y="309.67" width="25.8" height="25.81"/><rect class="cls-6" x="129.03" y="283.87" width="25.8" height="25.8"/><rect class="cls-6" x="129.03" y="258.06" width="25.8" height="25.81"/><rect class="cls-6" x="129.03" y="232.25" width="25.8" height="25.81"/><rect class="cls-6" x="129.03" y="206.45" width="25.8" height="25.8"/><rect class="cls-6" x="129.03" y="180.64" width="25.8" height="25.81"/><rect class="cls-6" x="129.03" y="154.83" width="25.8" height="25.81"/><rect class="cls-7" x="129.03" y="129.03" width="25.8" height="25.8"/><rect class="cls-3" x="129.03" y="103.22" width="25.8" height="25.81"/><rect class="cls-3" x="129.03" y="77.42" width="25.8" height="25.8"/><rect class="cls-3" x="129.03" y="51.61" width="25.8" height="25.81"/><rect class="cls-3" x="129.03" y="25.8" width="25.8" height="25.81"/><rect class="cls-3" x="129.03" width="25.8" height="25.8"/><rect class="cls-4" x="103.22" y="464.51" width="25.81" height="25.81"/><rect class="cls-6" x="103.22" y="438.71" width="25.81" height="25.8"/><rect class="cls-2" x="103.22" y="412.9" width="25.81" height="25.81"/><rect class="cls-10" x="103.22" y="387.09" width="25.81" height="25.81"/><rect class="cls-2" x="103.22" y="361.29" width="25.81" height="25.8"/><rect class="cls-4" x="103.22" y="335.48" width="25.81" height="25.81"/><rect class="cls-6" x="103.22" y="309.67" width="25.81" height="25.81"/><rect class="cls-8" x="103.22" y="283.87" width="25.81" height="25.8"/><rect class="cls-8" x="103.22" y="258.06" width="25.81" height="25.81"/><rect class="cls-11" x="103.22" y="232.25" width="25.81" height="25.81"/><rect class="cls-12" x="103.22" y="206.45" width="25.81" height="25.8"/><rect x="103.22" y="180.64" width="25.81" height="25.81"/><rect class="cls-7" x="103.22" y="154.83" width="25.81" height="25.81"/><rect class="cls-3" x="103.22" y="129.03" width="25.81" height="25.8"/><rect class="cls-3" x="103.22" y="103.22" width="25.81" height="25.81"/><rect class="cls-3" x="103.22" y="77.42" width="25.81" height="25.8"/><rect class="cls-3" x="103.22" y="51.61" width="25.81" height="25.81"/><rect class="cls-3" x="103.22" y="25.8" width="25.81" height="25.81"/><rect class="cls-3" x="103.22" width="25.81" height="25.8"/><rect class="cls-2" x="77.42" y="464.51" width="25.8" height="25.81"/><rect class="cls-8" x="77.42" y="438.71" width="25.8" height="25.8"/><rect class="cls-5" x="77.42" y="412.9" width="25.8" height="25.81"/><rect class="cls-13" x="77.42" y="387.09" width="25.8" height="25.81"/><rect class="cls-5" x="77.42" y="361.29" width="25.8" height="25.8"/><rect class="cls-4" x="77.42" y="335.48" width="25.8" height="25.81"/><rect class="cls-6" x="77.42" y="309.67" width="25.8" height="25.81"/><rect class="cls-8" x="77.42" y="283.87" width="25.8" height="25.8"/><rect class="cls-8" x="77.42" y="258.06" width="25.8" height="25.81"/><rect class="cls-14" x="77.42" y="232.25" width="25.8" height="25.81"/><rect class="cls-15" x="77.42" y="206.45" width="25.8" height="25.8"/><rect x="77.42" y="180.64" width="25.8" height="25.81"/><rect class="cls-3" x="77.42" y="154.83" width="25.8" height="25.81"/><rect class="cls-3" x="77.42" y="129.03" width="25.8" height="25.8"/><rect class="cls-3" x="77.42" y="103.22" width="25.8" height="25.81"/><rect class="cls-3" x="77.42" y="77.42" width="25.8" height="25.8"/><rect class="cls-3" x="77.42" y="51.61" width="25.8" height="25.81"/><rect class="cls-3" x="77.42" y="25.8" width="25.8" height="25.81"/><rect class="cls-3" x="77.42" width="25.8" height="25.8"/><rect class="cls-5" x="51.61" y="464.51" width="25.81" height="25.81"/><rect class="cls-8" x="51.61" y="412.9" width="25.81" height="25.81"/><rect class="cls-16" x="51.61" y="387.09" width="25.81" height="25.81"/><rect class="cls-2" x="51.61" y="361.29" width="25.81" height="25.8"/><rect class="cls-4" x="51.61" y="335.48" width="25.81" height="25.81"/><rect class="cls-17" x="51.61" y="283.87" width="25.81" height="25.8"/><rect class="cls-8" x="51.61" y="258.06" width="25.81" height="25.81"/><rect class="cls-8" x="51.61" y="232.25" width="25.81" height="25.81"/><rect class="cls-8" x="51.61" y="206.45" width="25.81" height="25.8"/><rect class="cls-6" x="51.61" y="180.64" width="25.81" height="25.81"/><rect class="cls-3" x="51.61" y="154.83" width="25.81" height="25.81"/><rect class="cls-7" x="51.61" y="129.03" width="25.81" height="25.8"/><rect class="cls-3" x="51.61" y="103.22" width="25.81" height="25.81"/><rect class="cls-3" x="51.61" y="77.42" width="25.81" height="25.8"/><rect class="cls-3" x="51.61" y="51.61" width="25.81" height="25.81"/><rect class="cls-7" x="51.61" y="25.8" width="25.81" height="25.81"/><rect class="cls-2" x="25.8" y="361.29" width="25.81" height="25.8"/><rect class="cls-17" x="25.8" y="283.87" width="25.81" height="25.8"/><rect class="cls-8" x="25.8" y="258.06" width="25.81" height="25.81"/><rect class="cls-8" x="25.8" y="232.25" width="25.81" height="25.81"/><rect class="cls-8" x="25.8" y="206.45" width="25.81" height="25.8"/><rect class="cls-6" x="25.8" y="180.64" width="25.81" height="25.81"/><rect class="cls-7" x="25.8" y="154.83" width="25.81" height="25.81"/><rect class="cls-3" x="25.8" y="129.03" width="25.81" height="25.8"/><rect class="cls-3" x="25.8" y="103.22" width="25.81" height="25.81"/><rect class="cls-7" x="25.8" y="77.42" width="25.81" height="25.8"/><rect class="cls-7" x="25.8" y="51.61" width="25.81" height="25.81"/><rect class="cls-8" y="258.06" width="25.8" height="25.81"/><rect class="cls-8" y="232.25" width="25.8" height="25.81"/><rect class="cls-8" y="206.45" width="25.8" height="25.8"/><rect class="cls-8" y="180.64" width="25.8" height="25.81"/><rect class="cls-17" y="154.83" width="25.8" height="25.81"/><rect class="cls-3" y="129.03" width="25.8" height="25.8"/><rect class="cls-7" y="103.22" width="25.8" height="25.81"/><rect class="cls-7" y="77.42" width="25.8" height="25.8"/></g></g></svg>