<svg xmlns="http://www.w3.org/2000/svg" viewBox="0 0 335.48 516.13"><defs><style>.cls-1{fill:#1a181d;}.cls-2{fill:#1d2228;}.cls-3{fill:#505362;}.cls-4{fill:#644b48;}.cls-5{fill:#997fab;}.cls-6{fill:#251413;}.cls-7{fill:#2e2e2e;}.cls-8{fill:#b79387;}.cls-9{fill:#3c3a47;}.cls-10{fill:#a698a7;}.cls-11{fill:#7b719b;}.cls-12{fill:#a4a7c7;}.cls-13{fill:#b58670;}.cls-14{fill:#7c7a88;}.cls-15{fill:#d4cad1;}.cls-16{fill:#5e4e3e;}.cls-17{fill:#776a53;}.cls-18{fill:#e6e6e6;}.cls-19{fill:#b3b3b3;}.cls-20{fill:#898486;}.cls-21{fill:#5a3a31;}.cls-22{fill:#171419;}.cls-23{fill:#57555a;}.cls-24{fill:#7c7477;}</style></defs><title>blm</title><g id="Layer_2" data-name="Layer 2"><g id="grid"><rect class="cls-1" x="309.67" y="129.03" width="25.81" height="25.81"/><rect class="cls-2" x="283.87" y="438.71" width="25.8" height="25.81"/><rect class="cls-2" x="283.87" y="412.9" width="25.8" height="25.81"/><rect class="cls-3" x="283.87" y="387.1" width="25.8" height="25.8"/><rect class="cls-3" x="283.87" y="361.29" width="25.8" height="25.81"/><rect class="cls-3" x="283.87" y="335.48" width="25.8" height="25.81"/><rect class="cls-4" x="283.87" y="206.45" width="25.8" height="25.81"/><rect class="cls-5" x="283.87" y="180.64" width="25.8" height="25.81"/><rect class="cls-1" x="283.87" y="154.84" width="25.8" height="25.8"/><rect class="cls-6" x="258.06" y="438.71" width="25.81" height="25.81"/><rect class="cls-6" x="258.06" y="412.9" width="25.81" height="25.81"/><rect class="cls-2" x="258.06" y="387.1" width="25.81" height="25.8"/><rect class="cls-3" x="258.06" y="361.29" width="25.81" height="25.81"/><rect class="cls-3" x="258.06" y="335.48" width="25.81" height="25.81"/><rect class="cls-3" x="258.06" y="309.68" width="25.81" height="25.8"/><rect class="cls-7" x="258.06" y="283.87" width="25.81" height="25.81"/><rect class="cls-8" x="258.06" y="232.26" width="25.81" height="25.8"/><rect class="cls-5" x="258.06" y="206.45" width="25.81" height="25.81"/><rect class="cls-1" x="258.06" y="180.64" width="25.81" height="25.81"/><rect class="cls-1" x="258.06" y="154.84" width="25.81" height="25.8"/><rect class="cls-9" x="258.06" y="129.03" width="25.81" height="25.81"/><rect class="cls-1" x="232.25" y="490.32" width="25.81" height="25.81"/><rect class="cls-1" x="232.25" y="464.52" width="25.81" height="25.8"/><rect class="cls-2" x="232.25" y="438.71" width="25.81" height="25.81"/><rect class="cls-2" x="232.25" y="412.9" width="25.81" height="25.81"/><rect class="cls-1" x="232.25" y="387.1" width="25.81" height="25.8"/><rect class="cls-2" x="232.25" y="361.29" width="25.81" height="25.81"/><rect class="cls-3" x="232.25" y="335.48" width="25.81" height="25.81"/><rect class="cls-7" x="232.25" y="309.68" width="25.81" height="25.8"/><rect class="cls-1" x="232.25" y="283.87" width="25.81" height="25.81"/><rect class="cls-4" x="232.25" y="258.06" width="25.81" height="25.81"/><rect class="cls-10" x="232.25" y="232.26" width="25.81" height="25.8"/><rect class="cls-11" x="232.25" y="206.45" width="25.81" height="25.81"/><rect class="cls-1" x="232.25" y="180.64" width="25.81" height="25.81"/><rect class="cls-1" x="232.25" y="154.84" width="25.81" height="25.8"/><rect class="cls-9" x="232.25" y="129.03" width="25.81" height="25.81"/><rect class="cls-1" x="232.25" y="103.23" width="25.81" height="25.8"/><rect class="cls-1" x="232.25" y="77.42" width="25.81" height="25.81"/><rect class="cls-1" x="232.25" y="51.61" width="25.81" height="25.81"/><rect class="cls-1" x="232.25" y="25.81" width="25.81" height="25.8"/><rect class="cls-1" x="232.25" width="25.81" height="25.81"/><rect class="cls-2" x="206.45" y="490.32" width="25.8" height="25.81"/><rect class="cls-7" x="206.45" y="464.52" width="25.8" height="25.8"/><rect class="cls-2" x="206.45" y="438.71" width="25.8" height="25.81"/><rect class="cls-1" x="206.45" y="412.9" width="25.8" height="25.81"/><rect class="cls-1" x="206.45" y="387.1" width="25.8" height="25.8"/><rect class="cls-1" x="206.45" y="361.29" width="25.8" height="25.81"/><rect class="cls-7" x="206.45" y="335.48" width="25.8" height="25.81"/><rect class="cls-1" x="206.45" y="309.68" width="25.8" height="25.8"/><rect class="cls-12" x="206.45" y="283.87" width="25.8" height="25.81"/><rect class="cls-13" x="206.45" y="258.06" width="25.8" height="25.81"/><rect class="cls-13" x="206.45" y="232.26" width="25.8" height="25.8"/><rect class="cls-1" x="206.45" y="206.45" width="25.8" height="25.81"/><rect class="cls-11" x="206.45" y="180.64" width="25.8" height="25.81"/><rect class="cls-1" x="206.45" y="154.84" width="25.8" height="25.8"/><rect class="cls-9" x="206.45" y="129.03" width="25.8" height="25.81"/><rect class="cls-9" x="206.45" y="103.23" width="25.8" height="25.8"/><rect class="cls-1" x="206.45" y="77.42" width="25.8" height="25.81"/><rect class="cls-1" x="206.45" y="51.61" width="25.8" height="25.81"/><rect class="cls-1" x="206.45" y="25.81" width="25.8" height="25.8"/><rect class="cls-1" x="206.45" width="25.8" height="25.81"/><rect class="cls-7" x="180.64" y="490.32" width="25.81" height="25.81"/><rect class="cls-14" x="180.64" y="464.52" width="25.81" height="25.8"/><rect class="cls-3" x="180.64" y="438.71" width="25.81" height="25.81"/><rect class="cls-1" x="180.64" y="412.9" width="25.81" height="25.81"/><rect class="cls-1" x="180.64" y="387.1" width="25.81" height="25.8"/><rect class="cls-7" x="180.64" y="361.29" width="25.81" height="25.81"/><rect class="cls-1" x="180.64" y="335.48" width="25.81" height="25.81"/><rect class="cls-1" x="180.64" y="309.68" width="25.81" height="25.8"/><rect class="cls-15" x="180.64" y="283.87" width="25.81" height="25.81"/><rect class="cls-8" x="180.64" y="258.06" width="25.81" height="25.81"/><rect class="cls-16" x="180.64" y="232.26" width="25.81" height="25.8"/><rect class="cls-16" x="180.64" y="206.45" width="25.81" height="25.81"/><rect class="cls-10" x="180.64" y="180.64" width="25.81" height="25.81"/><rect class="cls-1" x="180.64" y="154.84" width="25.81" height="25.8"/><rect class="cls-9" x="180.64" y="129.03" width="25.81" height="25.81"/><rect class="cls-9" x="180.64" y="103.23" width="25.81" height="25.8"/><rect class="cls-1" x="180.64" y="77.42" width="25.81" height="25.81"/><rect class="cls-1" x="180.64" y="51.61" width="25.81" height="25.81"/><rect class="cls-1" x="180.64" y="25.81" width="25.81" height="25.8"/><rect class="cls-1" x="180.64" width="25.81" height="25.81"/><rect class="cls-1" x="154.84" y="464.52" width="25.8" height="25.8"/><rect class="cls-7" x="154.84" y="438.71" width="25.8" height="25.81"/><rect class="cls-3" x="154.84" y="412.9" width="25.8" height="25.81"/><rect class="cls-2" x="154.84" y="387.1" width="25.8" height="25.8"/><rect class="cls-12" x="154.84" y="361.29" width="25.8" height="25.81"/><rect class="cls-12" x="154.84" y="335.48" width="25.8" height="25.81"/><rect class="cls-12" x="154.84" y="309.68" width="25.8" height="25.8"/><rect class="cls-8" x="154.84" y="283.87" width="25.8" height="25.81"/><rect class="cls-17" x="154.84" y="258.06" width="25.8" height="25.81"/><rect class="cls-18" x="154.84" y="232.26" width="25.8" height="25.8"/><rect class="cls-19" x="154.84" y="206.45" width="25.8" height="25.81"/><rect class="cls-16" x="154.84" y="180.64" width="25.8" height="25.81"/><rect class="cls-1" x="154.84" y="154.84" width="25.8" height="25.8"/><rect class="cls-20" x="154.84" y="129.03" width="25.8" height="25.81"/><rect class="cls-1" x="154.84" y="103.23" width="25.8" height="25.8"/><rect class="cls-1" x="154.84" y="77.42" width="25.8" height="25.81"/><rect class="cls-1" x="154.84" y="51.61" width="25.8" height="25.81"/><rect class="cls-1" x="154.84" y="25.81" width="25.8" height="25.8"/><rect class="cls-1" x="154.84" width="25.8" height="25.81"/><rect class="cls-2" x="129.03" y="464.52" width="25.81" height="25.8"/><rect class="cls-7" x="129.03" y="438.71" width="25.81" height="25.81"/><rect class="cls-2" x="129.03" y="412.9" width="25.81" height="25.81"/><rect class="cls-3" x="129.03" y="387.1" width="25.81" height="25.8"/><rect class="cls-21" x="129.03" y="361.29" width="25.81" height="25.81"/><rect class="cls-22" x="129.03" y="335.48" width="25.81" height="25.81"/><rect class="cls-15" x="129.03" y="309.68" width="25.81" height="25.8"/><rect class="cls-8" x="129.03" y="283.87" width="25.81" height="25.81"/><rect class="cls-17" x="129.03" y="258.06" width="25.81" height="25.81"/><rect class="cls-20" x="129.03" y="232.26" width="25.81" height="25.8"/><rect class="cls-23" x="129.03" y="206.45" width="25.81" height="25.81"/><rect class="cls-16" x="129.03" y="180.64" width="25.81" height="25.81"/><rect class="cls-1" x="129.03" y="154.84" width="25.81" height="25.8"/><rect class="cls-9" x="129.03" y="129.03" width="25.81" height="25.81"/><rect class="cls-1" x="129.03" y="103.23" width="25.81" height="25.8"/><rect class="cls-1" x="129.03" y="77.42" width="25.81" height="25.81"/><rect class="cls-1" x="129.03" y="51.61" width="25.81" height="25.81"/><rect class="cls-1" x="129.03" y="25.81" width="25.81" height="25.8"/><rect class="cls-1" x="129.03" width="25.81" height="25.81"/><rect class="cls-7" x="103.22" y="464.52" width="25.81" height="25.8"/><rect class="cls-14" x="103.22" y="438.71" width="25.81" height="25.81"/><rect class="cls-3" x="103.22" y="412.9" width="25.81" height="25.81"/><rect class="cls-3" x="103.22" y="387.1" width="25.81" height="25.8"/><rect class="cls-3" x="103.22" y="361.29" width="25.81" height="25.81"/><rect class="cls-1" x="103.22" y="335.48" width="25.81" height="25.81"/><rect class="cls-1" x="103.22" y="309.68" width="25.81" height="25.8"/><rect class="cls-8" x="103.22" y="283.87" width="25.81" height="25.81"/><rect class="cls-8" x="103.22" y="258.06" width="25.81" height="25.81"/><rect class="cls-17" x="103.22" y="232.26" width="25.81" height="25.8"/><rect class="cls-17" x="103.22" y="206.45" width="25.81" height="25.81"/><rect class="cls-10" x="103.22" y="180.64" width="25.81" height="25.81"/><rect class="cls-1" x="103.22" y="154.84" width="25.81" height="25.8"/><rect class="cls-9" x="103.22" y="129.03" width="25.81" height="25.81"/><rect class="cls-9" x="103.22" y="103.23" width="25.81" height="25.8"/><rect class="cls-1" x="103.22" y="77.42" width="25.81" height="25.81"/><rect class="cls-1" x="103.22" y="51.61" width="25.81" height="25.81"/><rect class="cls-1" x="103.22" y="25.81" width="25.81" height="25.8"/><rect class="cls-1" x="103.22" width="25.81" height="25.81"/><rect class="cls-1" x="77.42" y="412.9" width="25.8" height="25.81"/><rect class="cls-2" x="77.42" y="387.1" width="25.8" height="25.8"/><rect class="cls-2" x="77.42" y="361.29" width="25.8" height="25.81"/><rect class="cls-2" x="77.42" y="335.48" width="25.8" height="25.81"/><rect class="cls-2" x="77.42" y="309.68" width="25.8" height="25.8"/><rect class="cls-1" x="77.42" y="283.87" width="25.8" height="25.81"/><rect class="cls-8" x="77.42" y="258.06" width="25.8" height="25.81"/><rect class="cls-8" x="77.42" y="232.26" width="25.8" height="25.8"/><rect class="cls-13" x="77.42" y="206.45" width="25.8" height="25.81"/><rect class="cls-1" x="77.42" y="180.64" width="25.8" height="25.81"/><rect class="cls-1" x="77.42" y="154.84" width="25.8" height="25.8"/><rect class="cls-24" x="77.42" y="129.03" width="25.8" height="25.81"/><rect class="cls-24" x="77.42" y="103.23" width="25.8" height="25.8"/><rect class="cls-1" x="77.42" y="77.42" width="25.8" height="25.81"/><rect class="cls-1" x="77.42" y="51.61" width="25.8" height="25.81"/><rect class="cls-1" x="77.42" y="25.81" width="25.8" height="25.8"/><rect class="cls-1" x="77.42" width="25.8" height="25.81"/><rect class="cls-1" x="51.61" y="412.9" width="25.81" height="25.81"/><rect class="cls-3" x="51.61" y="387.1" width="25.81" height="25.8"/><rect class="cls-3" x="51.61" y="361.29" width="25.81" height="25.81"/><rect class="cls-3" x="51.61" y="335.48" width="25.81" height="25.81"/><rect class="cls-3" x="51.61" y="309.68" width="25.81" height="25.8"/><rect class="cls-4" x="51.61" y="258.06" width="25.81" height="25.81"/><rect class="cls-4" x="51.61" y="232.26" width="25.81" height="25.8"/><rect class="cls-4" x="51.61" y="206.45" width="25.81" height="25.81"/><rect class="cls-10" x="51.61" y="180.64" width="25.81" height="25.81"/><rect class="cls-1" x="51.61" y="154.84" width="25.81" height="25.8"/><rect class="cls-24" x="51.61" y="129.03" width="25.81" height="25.81"/><rect class="cls-10" x="25.8" y="206.45" width="25.81" height="25.81"/><rect class="cls-1" x="25.8" y="154.84" width="25.81" height="25.8"/><rect class="cls-1" y="129.03" width="25.8" height="25.81"/></g></g></svg>