<svg xmlns="http://www.w3.org/2000/svg" viewBox="0 0 361.29 541.94"><defs><style>.cls-1{fill:#f8e4e3;}.cls-2{fill:#eacfe4;}.cls-3{fill:#dfbcd9;}.cls-4{fill:#1a1a1a;}.cls-5{fill:#0e3e44;}.cls-6{fill:#e6e6e6;}.cls-7{fill:#dbc192;}.cls-8{fill:#a97c50;}.cls-9{fill:#3c2415;}.cls-10{fill:#999;}.cls-11{fill:#b3b3b3;}.cls-12{fill:#c2b59b;}.cls-13{fill:#fff2b0;}.cls-14{fill:#f2f2f2;}.cls-15{fill:#d490bf;}</style></defs><title>chi_nami</title><g id="Layer_2" data-name="Layer 2"><g id="grid"><rect class="cls-1" x="335.49" y="258.07" width="25.8" height="25.8"/><rect class="cls-1" x="335.49" y="232.26" width="25.8" height="25.81"/><rect class="cls-1" x="335.49" y="206.45" width="25.8" height="25.81"/><rect class="cls-1" x="309.68" y="283.87" width="25.81" height="25.81"/><rect class="cls-1" x="309.68" y="258.07" width="25.81" height="25.8"/><rect class="cls-1" x="309.68" y="232.26" width="25.81" height="25.81"/><rect class="cls-1" x="309.68" y="206.45" width="25.81" height="25.81"/><rect class="cls-1" x="309.68" y="180.65" width="25.81" height="25.8"/><rect class="cls-1" x="309.68" y="154.84" width="25.81" height="25.81"/><rect class="cls-1" x="309.68" y="129.04" width="25.81" height="25.8"/><rect class="cls-2" x="309.68" y="103.23" width="25.81" height="25.81"/><rect class="cls-3" x="309.68" y="77.42" width="25.81" height="25.81"/><rect class="cls-3" x="309.68" y="51.62" width="25.81" height="25.8"/><rect class="cls-4" x="283.87" y="412.91" width="25.81" height="25.8"/><rect class="cls-4" x="283.87" y="387.1" width="25.81" height="25.81"/><rect class="cls-5" x="283.87" y="361.29" width="25.81" height="25.81"/><rect class="cls-5" x="283.87" y="335.49" width="25.81" height="25.8"/><rect class="cls-2" x="283.87" y="258.07" width="25.81" height="25.8"/><rect class="cls-2" x="283.87" y="232.26" width="25.81" height="25.81"/><rect class="cls-2" x="283.87" y="206.45" width="25.81" height="25.81"/><rect class="cls-2" x="283.87" y="180.65" width="25.81" height="25.8"/><rect class="cls-2" x="283.87" y="154.84" width="25.81" height="25.81"/><rect class="cls-2" x="283.87" y="129.04" width="25.81" height="25.8"/><rect class="cls-2" x="283.87" y="103.23" width="25.81" height="25.81"/><rect class="cls-2" x="283.87" y="77.42" width="25.81" height="25.81"/><rect class="cls-3" x="283.87" y="51.62" width="25.81" height="25.8"/><rect class="cls-3" x="283.87" y="25.81" width="25.81" height="25.81"/><rect class="cls-4" x="258.07" y="438.71" width="25.8" height="25.81"/><rect class="cls-4" x="258.07" y="412.91" width="25.8" height="25.8"/><rect class="cls-6" x="258.07" y="387.1" width="25.8" height="25.81"/><rect class="cls-5" x="258.07" y="361.29" width="25.8" height="25.81"/><rect class="cls-5" x="258.07" y="335.49" width="25.8" height="25.8"/><rect class="cls-4" x="258.07" y="309.68" width="25.8" height="25.81"/><rect class="cls-2" x="258.07" y="283.87" width="25.8" height="25.81"/><rect class="cls-7" x="258.07" y="258.07" width="25.8" height="25.8"/><rect class="cls-7" x="258.07" y="232.26" width="25.8" height="25.81"/><rect class="cls-8" x="258.07" y="206.45" width="25.8" height="25.81"/><rect class="cls-2" x="258.07" y="180.65" width="25.8" height="25.8"/><rect class="cls-2" x="258.07" y="154.84" width="25.8" height="25.81"/><rect class="cls-2" x="258.07" y="129.04" width="25.8" height="25.8"/><rect class="cls-2" x="258.07" y="103.23" width="25.8" height="25.81"/><rect class="cls-2" x="258.07" y="77.42" width="25.8" height="25.81"/><rect class="cls-3" x="258.07" y="51.62" width="25.8" height="25.8"/><rect class="cls-3" x="258.07" y="25.81" width="25.8" height="25.81"/><rect class="cls-4" x="232.26" y="516.13" width="25.81" height="25.81"/><rect class="cls-4" x="232.26" y="490.33" width="25.81" height="25.8"/><rect class="cls-4" x="232.26" y="464.52" width="25.81" height="25.81"/><rect class="cls-9" x="232.26" y="438.71" width="25.81" height="25.81"/><rect class="cls-9" x="232.26" y="412.91" width="25.81" height="25.8"/><rect class="cls-9" x="232.26" y="387.1" width="25.81" height="25.81"/><rect class="cls-6" x="232.26" y="361.29" width="25.81" height="25.81"/><rect class="cls-5" x="232.26" y="335.49" width="25.81" height="25.8"/><rect class="cls-5" x="232.26" y="309.68" width="25.81" height="25.81"/><rect class="cls-2" x="232.26" y="283.87" width="25.81" height="25.81"/><rect class="cls-7" x="232.26" y="258.07" width="25.81" height="25.8"/><rect class="cls-7" x="232.26" y="232.26" width="25.81" height="25.81"/><rect class="cls-2" x="232.26" y="206.45" width="25.81" height="25.81"/><rect class="cls-2" x="232.26" y="180.65" width="25.81" height="25.8"/><rect class="cls-2" x="232.26" y="154.84" width="25.81" height="25.81"/><rect class="cls-2" x="232.26" y="129.04" width="25.81" height="25.8"/><rect class="cls-2" x="232.26" y="103.23" width="25.81" height="25.81"/><rect class="cls-3" x="232.26" y="77.42" width="25.81" height="25.81"/><rect class="cls-3" x="232.26" y="51.62" width="25.81" height="25.8"/><rect class="cls-3" x="232.26" y="25.81" width="25.81" height="25.81"/><rect class="cls-10" x="232.26" width="25.81" height="25.81"/><rect class="cls-4" x="206.45" y="516.13" width="25.81" height="25.81"/><rect class="cls-3" x="206.45" y="490.33" width="25.81" height="25.8"/><rect x="206.45" y="464.52" width="25.81" height="25.81"/><rect class="cls-7" x="206.45" y="438.71" width="25.81" height="25.81"/><rect class="cls-7" x="206.45" y="412.91" width="25.81" height="25.8"/><rect class="cls-9" x="206.45" y="387.1" width="25.81" height="25.81"/><rect class="cls-6" x="206.45" y="361.29" width="25.81" height="25.81"/><rect class="cls-5" x="206.45" y="335.49" width="25.81" height="25.8"/><rect class="cls-5" x="206.45" y="309.68" width="25.81" height="25.81"/><rect class="cls-2" x="206.45" y="283.87" width="25.81" height="25.81"/><rect class="cls-2" x="206.45" y="258.07" width="25.81" height="25.8"/><rect class="cls-2" x="206.45" y="232.26" width="25.81" height="25.81"/><rect class="cls-2" x="206.45" y="206.45" width="25.81" height="25.81"/><rect class="cls-7" x="206.45" y="180.65" width="25.81" height="25.8"/><rect class="cls-7" x="206.45" y="154.84" width="25.81" height="25.81"/><rect class="cls-2" x="206.45" y="129.04" width="25.81" height="25.8"/><rect class="cls-2" x="206.45" y="103.23" width="25.81" height="25.81"/><rect class="cls-3" x="206.45" y="77.42" width="25.81" height="25.81"/><rect class="cls-3" x="206.45" y="51.62" width="25.81" height="25.8"/><rect class="cls-11" x="206.45" y="25.81" width="25.81" height="25.81"/><rect class="cls-3" x="206.45" width="25.81" height="25.81"/><rect class="cls-4" x="180.65" y="516.13" width="25.8" height="25.81"/><rect class="cls-3" x="180.65" y="490.33" width="25.8" height="25.8"/><rect x="180.65" y="464.52" width="25.8" height="25.81"/><rect class="cls-7" x="180.65" y="438.71" width="25.8" height="25.81"/><rect class="cls-7" x="180.65" y="412.91" width="25.8" height="25.8"/><rect class="cls-4" x="180.65" y="387.1" width="25.8" height="25.81"/><rect class="cls-4" x="180.65" y="361.29" width="25.8" height="25.81"/><rect class="cls-5" x="180.65" y="335.49" width="25.8" height="25.8"/><rect class="cls-5" x="180.65" y="309.68" width="25.8" height="25.81"/><rect class="cls-1" x="180.65" y="283.87" width="25.8" height="25.81"/><rect class="cls-7" x="180.65" y="258.07" width="25.8" height="25.8"/><rect class="cls-7" x="180.65" y="232.26" width="25.8" height="25.81"/><rect class="cls-7" x="180.65" y="206.45" width="25.8" height="25.81"/><rect class="cls-7" x="180.65" y="180.65" width="25.8" height="25.8"/><rect class="cls-7" x="180.65" y="154.84" width="25.8" height="25.81"/><rect class="cls-2" x="180.65" y="129.04" width="25.8" height="25.8"/><rect class="cls-2" x="180.65" y="103.23" width="25.8" height="25.81"/><rect class="cls-3" x="180.65" y="77.42" width="25.8" height="25.81"/><rect class="cls-11" x="180.65" y="51.62" width="25.8" height="25.8"/><rect class="cls-2" x="180.65" y="25.81" width="25.8" height="25.81"/><rect class="cls-3" x="180.65" width="25.8" height="25.81"/><rect class="cls-4" x="154.84" y="516.13" width="25.81" height="25.81"/><rect class="cls-3" x="154.84" y="490.33" width="25.81" height="25.8"/><rect class="cls-4" x="154.84" y="464.52" width="25.81" height="25.81"/><rect class="cls-12" x="154.84" y="438.71" width="25.81" height="25.81"/><rect class="cls-12" x="154.84" y="412.91" width="25.81" height="25.8"/><rect class="cls-5" x="154.84" y="387.1" width="25.81" height="25.81"/><rect class="cls-5" x="154.84" y="361.29" width="25.81" height="25.81"/><rect class="cls-5" x="154.84" y="335.49" width="25.81" height="25.8"/><rect class="cls-7" x="154.84" y="309.68" width="25.81" height="25.81"/><rect class="cls-7" x="154.84" y="283.87" width="25.81" height="25.81"/><rect class="cls-7" x="154.84" y="258.07" width="25.81" height="25.8"/><rect class="cls-7" x="154.84" y="232.26" width="25.81" height="25.81"/><rect class="cls-7" x="154.84" y="206.45" width="25.81" height="25.81"/><rect class="cls-7" x="154.84" y="180.65" width="25.81" height="25.8"/><rect class="cls-7" x="154.84" y="154.84" width="25.81" height="25.81"/><rect class="cls-2" x="154.84" y="129.04" width="25.81" height="25.8"/><rect class="cls-2" x="154.84" y="103.23" width="25.81" height="25.81"/><rect class="cls-2" x="154.84" y="77.42" width="25.81" height="25.81"/><rect class="cls-2" x="154.84" y="51.62" width="25.81" height="25.8"/><rect class="cls-3" x="154.84" y="25.81" width="25.81" height="25.81"/><rect class="cls-3" x="154.84" width="25.81" height="25.81"/><rect class="cls-4" x="129.04" y="490.33" width="25.8" height="25.8"/><rect class="cls-3" x="129.04" y="464.52" width="25.8" height="25.81"/><rect x="129.04" y="438.71" width="25.8" height="25.81"/><rect class="cls-12" x="129.04" y="412.91" width="25.8" height="25.8"/><rect class="cls-5" x="129.04" y="387.1" width="25.8" height="25.81"/><rect class="cls-4" x="129.04" y="361.29" width="25.8" height="25.81"/><rect class="cls-13" x="129.04" y="335.49" width="25.8" height="25.8"/><rect class="cls-7" x="129.04" y="309.68" width="25.8" height="25.81"/><rect class="cls-7" x="129.04" y="283.87" width="25.8" height="25.81"/><rect class="cls-7" x="129.04" y="258.07" width="25.8" height="25.8"/><rect class="cls-14" x="129.04" y="232.26" width="25.8" height="25.81"/><rect class="cls-14" x="129.04" y="206.45" width="25.8" height="25.81"/><rect x="129.04" y="180.65" width="25.8" height="25.8"/><rect class="cls-7" x="129.04" y="154.84" width="25.8" height="25.81"/><rect class="cls-2" x="129.04" y="129.04" width="25.8" height="25.8"/><rect class="cls-2" x="129.04" y="103.23" width="25.8" height="25.81"/><rect class="cls-2" x="129.04" y="77.42" width="25.8" height="25.81"/><rect class="cls-2" x="129.04" y="51.62" width="25.8" height="25.8"/><rect class="cls-2" x="129.04" y="25.81" width="25.8" height="25.81"/><rect class="cls-3" x="129.04" width="25.8" height="25.81"/><rect class="cls-4" x="103.23" y="490.33" width="25.81" height="25.8"/><rect class="cls-3" x="103.23" y="464.52" width="25.81" height="25.81"/><rect class="cls-4" x="103.23" y="438.71" width="25.81" height="25.81"/><rect class="cls-12" x="103.23" y="412.91" width="25.81" height="25.8"/><rect class="cls-9" x="103.23" y="387.1" width="25.81" height="25.81"/><rect class="cls-6" x="103.23" y="361.29" width="25.81" height="25.81"/><rect class="cls-5" x="103.23" y="335.49" width="25.81" height="25.8"/><rect class="cls-8" x="103.23" y="309.68" width="25.81" height="25.81"/><rect class="cls-7" x="103.23" y="283.87" width="25.81" height="25.81"/><rect class="cls-7" x="103.23" y="258.07" width="25.81" height="25.8"/><rect class="cls-15" x="103.23" y="232.26" width="25.81" height="25.81"/><rect class="cls-15" x="103.23" y="206.45" width="25.81" height="25.81"/><rect x="103.23" y="180.65" width="25.81" height="25.8"/><rect class="cls-7" x="103.23" y="154.84" width="25.81" height="25.81"/><rect class="cls-7" x="103.23" y="129.04" width="25.81" height="25.8"/><rect class="cls-1" x="103.23" y="103.23" width="25.81" height="25.81"/><rect class="cls-2" x="103.23" y="77.42" width="25.81" height="25.81"/><rect class="cls-2" x="103.23" y="51.62" width="25.81" height="25.8"/><rect class="cls-2" x="103.23" y="25.81" width="25.81" height="25.81"/><rect class="cls-2" x="103.23" width="25.81" height="25.81"/><rect class="cls-4" x="77.42" y="464.52" width="25.81" height="25.81"/><rect class="cls-4" x="77.42" y="412.91" width="25.81" height="25.8"/><rect class="cls-7" x="77.42" y="387.1" width="25.81" height="25.81"/><rect class="cls-4" x="77.42" y="361.29" width="25.81" height="25.81"/><rect class="cls-4" x="77.42" y="335.49" width="25.81" height="25.8"/><rect class="cls-8" x="77.42" y="283.87" width="25.81" height="25.81"/><rect class="cls-7" x="77.42" y="258.07" width="25.81" height="25.8"/><rect class="cls-7" x="77.42" y="232.26" width="25.81" height="25.81"/><rect class="cls-7" x="77.42" y="206.45" width="25.81" height="25.81"/><rect class="cls-7" x="77.42" y="180.65" width="25.81" height="25.8"/><rect class="cls-7" x="77.42" y="154.84" width="25.81" height="25.81"/><rect class="cls-1" x="77.42" y="129.04" width="25.81" height="25.8"/><rect class="cls-1" x="77.42" y="103.23" width="25.81" height="25.81"/><rect class="cls-2" x="77.42" y="77.42" width="25.81" height="25.81"/><rect class="cls-2" x="77.42" y="51.62" width="25.81" height="25.8"/><rect class="cls-1" x="77.42" y="25.81" width="25.81" height="25.81"/><rect class="cls-4" x="51.62" y="387.1" width="25.8" height="25.81"/><rect class="cls-8" x="51.62" y="258.07" width="25.8" height="25.8"/><rect class="cls-8" x="51.62" y="232.26" width="25.8" height="25.81"/><rect class="cls-8" x="51.62" y="206.45" width="25.8" height="25.81"/><rect class="cls-8" x="51.62" y="180.65" width="25.8" height="25.8"/><rect class="cls-8" x="51.62" y="154.84" width="25.8" height="25.81"/><rect class="cls-2" x="51.62" y="129.04" width="25.8" height="25.8"/><rect class="cls-2" x="51.62" y="103.23" width="25.8" height="25.81"/><rect class="cls-2" x="51.62" y="77.42" width="25.8" height="25.81"/><rect class="cls-1" x="51.62" y="51.62" width="25.8" height="25.8"/><rect class="cls-1" x="25.81" y="129.04" width="25.81" height="25.8"/><rect class="cls-1" x="25.81" y="103.23" width="25.81" height="25.81"/><rect class="cls-1" x="25.81" y="77.42" width="25.81" height="25.81"/><rect class="cls-1" y="103.23" width="25.81" height="25.81"/></g></g></svg>