<svg xmlns="http://www.w3.org/2000/svg" viewBox="0 0 387.1 670.96"><defs><style>.cls-1{fill:#4d4d4d;}.cls-2{fill:#666;}.cls-3{fill:#999;}.cls-4{fill:#c3bed5;}.cls-5{fill:#727289;}.cls-6{fill:#f4ebf0;}.cls-7{fill:#dcd0e2;}.cls-8{fill:#83808a;}.cls-9{fill:#7899d0;}.cls-10{fill:#2c282b;}.cls-11{fill:#171318;}.cls-12{fill:#907458;}.cls-13{fill:#6b6a6d;}.cls-14{fill:#191821;}.cls-15{fill:#535157;}.cls-16{fill:#313031;}.cls-17{fill:#ccc4c8;}.cls-18{fill:#1a1a1a;}.cls-19{fill:#594a42;}.cls-20{fill:#1b1a20;}.cls-21{fill:#7f7b6c;}.cls-22{fill:#61454d;}.cls-23{fill:#b3b3b3;}.cls-24{fill:#79787e;}</style></defs><title>dnc</title><g id="Layer_2" data-name="Layer 2"><g id="grid"><rect class="cls-1" y="361.29" width="25.81" height="25.8"/><rect class="cls-1" x="361.29" y="464.51" width="25.81" height="25.81"/><rect class="cls-2" x="361.29" y="438.71" width="25.81" height="25.8"/><rect class="cls-3" x="361.29" y="412.9" width="25.81" height="25.81"/><rect class="cls-3" x="361.29" y="387.09" width="25.81" height="25.81"/><rect class="cls-1" x="361.29" y="361.29" width="25.81" height="25.8"/><rect class="cls-4" x="361.29" y="335.48" width="25.81" height="25.81"/><rect class="cls-5" x="361.29" y="309.67" width="25.81" height="25.81"/><rect class="cls-6" x="361.29" y="283.87" width="25.81" height="25.8"/><rect class="cls-7" x="335.48" y="645.16" width="25.81" height="25.8"/><rect class="cls-7" x="335.48" y="619.35" width="25.81" height="25.81"/><rect class="cls-4" x="335.48" y="593.54" width="25.81" height="25.81"/><rect class="cls-5" x="335.48" y="567.74" width="25.81" height="25.8"/><rect class="cls-5" x="335.48" y="541.93" width="25.81" height="25.81"/><rect class="cls-5" x="335.48" y="516.13" width="25.81" height="25.8"/><rect class="cls-6" x="335.48" y="464.51" width="25.81" height="25.81"/><rect class="cls-1" x="335.48" y="438.71" width="25.81" height="25.8"/><rect class="cls-2" x="335.48" y="412.9" width="25.81" height="25.81"/><rect class="cls-1" x="335.48" y="387.09" width="25.81" height="25.81"/><rect class="cls-4" x="335.48" y="361.29" width="25.81" height="25.8"/><rect class="cls-5" x="335.48" y="335.48" width="25.81" height="25.81"/><rect class="cls-8" x="335.48" y="309.67" width="25.81" height="25.81"/><rect class="cls-7" x="335.48" y="283.87" width="25.81" height="25.8"/><rect class="cls-6" x="335.48" y="258.06" width="25.81" height="25.81"/><rect class="cls-9" x="335.48" y="154.84" width="25.81" height="25.8"/><rect class="cls-10" x="335.48" y="129.03" width="25.81" height="25.81"/><rect class="cls-11" x="335.48" y="103.22" width="25.81" height="25.81"/><rect class="cls-11" x="335.48" y="77.42" width="25.81" height="25.8"/><rect class="cls-7" x="309.68" y="645.16" width="25.8" height="25.8"/><rect class="cls-7" x="309.68" y="619.35" width="25.8" height="25.81"/><rect class="cls-7" x="309.68" y="593.54" width="25.8" height="25.81"/><rect class="cls-4" x="309.68" y="567.74" width="25.8" height="25.8"/><rect class="cls-5" x="309.68" y="541.93" width="25.8" height="25.81"/><rect class="cls-5" x="309.68" y="516.13" width="25.8" height="25.8"/><rect class="cls-5" x="309.68" y="490.32" width="25.8" height="25.81"/><rect class="cls-6" x="309.68" y="464.51" width="25.8" height="25.81"/><rect class="cls-7" x="309.68" y="438.71" width="25.8" height="25.8"/><rect class="cls-1" x="309.68" y="412.9" width="25.8" height="25.81"/><rect class="cls-4" x="309.68" y="387.09" width="25.8" height="25.81"/><rect class="cls-4" x="309.68" y="361.29" width="25.8" height="25.8"/><rect class="cls-5" x="309.68" y="335.48" width="25.8" height="25.81"/><rect class="cls-8" x="309.68" y="309.67" width="25.8" height="25.81"/><rect class="cls-7" x="309.68" y="283.87" width="25.8" height="25.8"/><rect class="cls-6" x="309.68" y="258.06" width="25.8" height="25.81"/><rect class="cls-6" x="309.68" y="232.25" width="25.8" height="25.81"/><rect class="cls-11" x="309.68" y="206.45" width="25.8" height="25.8"/><rect class="cls-10" x="309.68" y="180.64" width="25.8" height="25.81"/><rect class="cls-10" x="309.68" y="154.84" width="25.8" height="25.8"/><rect class="cls-12" x="309.68" y="129.03" width="25.8" height="25.81"/><rect class="cls-13" x="309.68" y="103.22" width="25.8" height="25.81"/><rect class="cls-11" x="309.68" y="77.42" width="25.8" height="25.8"/><rect class="cls-14" x="309.68" y="51.61" width="25.8" height="25.81"/><rect class="cls-7" x="283.87" y="619.35" width="25.81" height="25.81"/><rect class="cls-7" x="283.87" y="593.54" width="25.81" height="25.81"/><rect class="cls-7" x="283.87" y="567.74" width="25.81" height="25.8"/><rect class="cls-4" x="283.87" y="541.93" width="25.81" height="25.81"/><rect class="cls-5" x="283.87" y="516.13" width="25.81" height="25.8"/><rect class="cls-7" x="283.87" y="490.32" width="25.81" height="25.81"/><rect class="cls-7" x="283.87" y="464.51" width="25.81" height="25.81"/><rect class="cls-4" x="283.87" y="438.71" width="25.81" height="25.8"/><rect class="cls-4" x="283.87" y="412.9" width="25.81" height="25.81"/><rect class="cls-5" x="283.87" y="387.09" width="25.81" height="25.81"/><rect class="cls-5" x="283.87" y="361.29" width="25.81" height="25.8"/><rect class="cls-8" x="283.87" y="335.48" width="25.81" height="25.81"/><rect class="cls-7" x="283.87" y="309.67" width="25.81" height="25.81"/><rect class="cls-7" x="283.87" y="283.87" width="25.81" height="25.8"/><rect class="cls-7" x="283.87" y="258.06" width="25.81" height="25.81"/><rect class="cls-8" x="283.87" y="232.25" width="25.81" height="25.81"/><rect class="cls-10" x="283.87" y="206.45" width="25.81" height="25.8"/><rect class="cls-10" x="283.87" y="180.64" width="25.81" height="25.81"/><rect class="cls-10" x="283.87" y="154.84" width="25.81" height="25.8"/><rect class="cls-13" x="283.87" y="129.03" width="25.81" height="25.81"/><rect class="cls-11" x="283.87" y="103.22" width="25.81" height="25.81"/><rect class="cls-14" x="283.87" y="77.42" width="25.81" height="25.8"/><rect class="cls-10" x="283.87" y="51.61" width="25.81" height="25.81"/><rect class="cls-14" x="283.87" y="25.8" width="25.81" height="25.81"/><rect class="cls-7" x="258.06" y="619.35" width="25.81" height="25.81"/><rect class="cls-7" x="258.06" y="593.54" width="25.81" height="25.81"/><rect class="cls-12" x="258.06" y="567.74" width="25.81" height="25.8"/><rect class="cls-7" x="258.06" y="541.93" width="25.81" height="25.81"/><rect class="cls-4" x="258.06" y="516.13" width="25.81" height="25.8"/><rect class="cls-15" x="258.06" y="490.32" width="25.81" height="25.81"/><rect class="cls-16" x="258.06" y="464.51" width="25.81" height="25.81"/><rect class="cls-4" x="258.06" y="438.71" width="25.81" height="25.8"/><rect class="cls-5" x="258.06" y="412.9" width="25.81" height="25.81"/><rect class="cls-12" x="258.06" y="387.09" width="25.81" height="25.81"/><rect class="cls-17" x="258.06" y="361.29" width="25.81" height="25.8"/><rect class="cls-8" x="258.06" y="335.48" width="25.81" height="25.81"/><rect class="cls-4" x="258.06" y="309.67" width="25.81" height="25.81"/><rect class="cls-7" x="258.06" y="283.87" width="25.81" height="25.8"/><rect class="cls-8" x="258.06" y="258.06" width="25.81" height="25.81"/><rect class="cls-18" x="258.06" y="232.25" width="25.81" height="25.81"/><rect class="cls-16" x="258.06" y="206.45" width="25.81" height="25.8"/><rect class="cls-10" x="258.06" y="180.64" width="25.81" height="25.81"/><rect class="cls-10" x="258.06" y="154.84" width="25.81" height="25.8"/><rect class="cls-11" x="258.06" y="129.03" width="25.81" height="25.81"/><rect class="cls-14" x="258.06" y="103.22" width="25.81" height="25.81"/><rect class="cls-10" x="258.06" y="77.42" width="25.81" height="25.8"/><rect class="cls-14" x="258.06" y="51.61" width="25.81" height="25.81"/><rect class="cls-10" x="258.06" y="25.8" width="25.81" height="25.81"/><rect class="cls-14" x="232.26" y="645.16" width="25.8" height="25.8"/><rect x="232.26" y="619.35" width="25.8" height="25.81"/><rect class="cls-7" x="232.26" y="593.54" width="25.8" height="25.81"/><rect class="cls-7" x="232.26" y="567.74" width="25.8" height="25.8"/><rect class="cls-9" x="232.26" y="541.93" width="25.8" height="25.81"/><rect class="cls-5" x="232.26" y="516.13" width="25.8" height="25.8"/><rect class="cls-15" x="232.26" y="490.32" width="25.8" height="25.81"/><rect class="cls-15" x="232.26" y="464.51" width="25.8" height="25.81"/><rect class="cls-19" x="232.26" y="438.71" width="25.8" height="25.8"/><rect class="cls-12" x="232.26" y="412.9" width="25.8" height="25.81"/><rect class="cls-9" x="232.26" y="387.09" width="25.8" height="25.81"/><rect class="cls-12" x="232.26" y="361.29" width="25.8" height="25.8"/><rect class="cls-7" x="232.26" y="335.48" width="25.8" height="25.81"/><rect class="cls-17" x="232.26" y="309.67" width="25.8" height="25.81"/><rect class="cls-8" x="232.26" y="283.87" width="25.8" height="25.8"/><rect class="cls-5" x="232.26" y="258.06" width="25.8" height="25.81"/><rect class="cls-11" x="232.26" y="232.25" width="25.8" height="25.81"/><rect class="cls-16" x="232.26" y="206.45" width="25.8" height="25.8"/><rect class="cls-16" x="232.26" y="180.64" width="25.8" height="25.81"/><rect class="cls-16" x="232.26" y="154.84" width="25.8" height="25.8"/><rect class="cls-14" x="232.26" y="129.03" width="25.8" height="25.81"/><rect class="cls-10" x="232.26" y="103.22" width="25.8" height="25.81"/><rect class="cls-14" x="232.26" y="77.42" width="25.8" height="25.8"/><rect class="cls-10" x="232.26" y="51.61" width="25.8" height="25.81"/><rect class="cls-10" x="232.26" y="25.8" width="25.8" height="25.81"/><rect class="cls-16" x="232.26" width="25.8" height="25.8"/><rect class="cls-16" x="206.45" y="645.16" width="25.81" height="25.8"/><rect class="cls-20" x="206.45" y="619.35" width="25.81" height="25.81"/><rect class="cls-20" x="206.45" y="593.54" width="25.81" height="25.81"/><rect x="206.45" y="567.74" width="25.81" height="25.8"/><rect class="cls-4" x="206.45" y="541.93" width="25.81" height="25.81"/><rect class="cls-12" x="206.45" y="516.13" width="25.81" height="25.8"/><rect class="cls-5" x="206.45" y="490.32" width="25.81" height="25.81"/><rect class="cls-19" x="206.45" y="464.51" width="25.81" height="25.81"/><rect class="cls-5" x="206.45" y="438.71" width="25.81" height="25.8"/><rect class="cls-8" x="206.45" y="412.9" width="25.81" height="25.81"/><rect class="cls-12" x="206.45" y="387.09" width="25.81" height="25.81"/><rect class="cls-7" x="206.45" y="361.29" width="25.81" height="25.8"/><rect class="cls-8" x="206.45" y="335.48" width="25.81" height="25.81"/><rect class="cls-5" x="206.45" y="309.67" width="25.81" height="25.81"/><rect class="cls-6" x="206.45" y="283.87" width="25.81" height="25.8"/><rect class="cls-16" x="206.45" y="258.06" width="25.81" height="25.81"/><rect class="cls-16" x="206.45" y="232.25" width="25.81" height="25.81"/><rect class="cls-16" x="206.45" y="206.45" width="25.81" height="25.8"/><rect class="cls-16" x="206.45" y="180.64" width="25.81" height="25.81"/><rect class="cls-16" x="206.45" y="154.84" width="25.81" height="25.8"/><rect class="cls-14" x="206.45" y="129.03" width="25.81" height="25.81"/><rect class="cls-14" x="206.45" y="103.22" width="25.81" height="25.81"/><rect class="cls-10" x="206.45" y="77.42" width="25.81" height="25.8"/><rect class="cls-10" x="206.45" y="51.61" width="25.81" height="25.81"/><rect class="cls-16" x="206.45" y="25.8" width="25.81" height="25.81"/><rect class="cls-21" x="180.64" y="645.16" width="25.81" height="25.8"/><rect class="cls-16" x="180.64" y="619.35" width="25.81" height="25.81"/><rect class="cls-14" x="180.64" y="593.54" width="25.81" height="25.81"/><rect x="180.64" y="567.74" width="25.81" height="25.8"/><rect class="cls-4" x="180.64" y="541.93" width="25.81" height="25.81"/><rect class="cls-5" x="180.64" y="516.13" width="25.81" height="25.8"/><rect class="cls-19" x="180.64" y="490.32" width="25.81" height="25.81"/><rect class="cls-5" x="180.64" y="464.51" width="25.81" height="25.81"/><rect class="cls-4" x="180.64" y="438.71" width="25.81" height="25.8"/><rect class="cls-4" x="180.64" y="412.9" width="25.81" height="25.81"/><rect class="cls-8" x="180.64" y="387.09" width="25.81" height="25.81"/><rect class="cls-8" x="180.64" y="361.29" width="25.81" height="25.8"/><rect class="cls-22" x="180.64" y="335.48" width="25.81" height="25.81"/><rect class="cls-6" x="180.64" y="309.67" width="25.81" height="25.81"/><rect class="cls-11" x="180.64" y="283.87" width="25.81" height="25.8"/><rect class="cls-16" x="180.64" y="258.06" width="25.81" height="25.81"/><rect class="cls-15" x="180.64" y="232.25" width="25.81" height="25.81"/><rect class="cls-15" x="180.64" y="206.45" width="25.81" height="25.8"/><rect class="cls-15" x="180.64" y="180.64" width="25.81" height="25.81"/><rect class="cls-15" x="180.64" y="154.84" width="25.81" height="25.8"/><rect class="cls-16" x="180.64" y="129.03" width="25.81" height="25.81"/><rect class="cls-10" x="180.64" y="103.22" width="25.81" height="25.81"/><rect class="cls-16" x="180.64" y="77.42" width="25.81" height="25.8"/><rect class="cls-14" x="180.64" y="51.61" width="25.81" height="25.81"/><rect class="cls-10" x="180.64" y="25.8" width="25.81" height="25.81"/><rect class="cls-21" x="154.84" y="645.16" width="25.8" height="25.8"/><rect class="cls-21" x="154.84" y="619.35" width="25.8" height="25.81"/><rect class="cls-16" x="154.84" y="593.54" width="25.8" height="25.81"/><rect class="cls-20" x="154.84" y="567.74" width="25.8" height="25.8"/><rect x="154.84" y="541.93" width="25.8" height="25.81"/><rect x="154.84" y="516.13" width="25.8" height="25.8"/><rect class="cls-5" x="154.84" y="490.32" width="25.8" height="25.81"/><rect class="cls-4" x="154.84" y="464.51" width="25.8" height="25.81"/><rect class="cls-7" x="154.84" y="438.71" width="25.8" height="25.8"/><rect class="cls-4" x="154.84" y="412.9" width="25.8" height="25.81"/><rect class="cls-4" x="154.84" y="387.09" width="25.8" height="25.81"/><rect class="cls-5" x="154.84" y="361.29" width="25.8" height="25.8"/><rect class="cls-6" x="154.84" y="335.48" width="25.8" height="25.81"/><rect class="cls-6" x="154.84" y="309.67" width="25.8" height="25.81"/><rect class="cls-16" x="154.84" y="283.87" width="25.8" height="25.8"/><rect class="cls-15" x="154.84" y="258.06" width="25.8" height="25.81"/><rect class="cls-15" x="154.84" y="232.25" width="25.8" height="25.81"/><rect class="cls-23" x="154.84" y="206.45" width="25.8" height="25.8"/><rect class="cls-18" x="154.84" y="180.64" width="25.8" height="25.81"/><rect class="cls-15" x="154.84" y="154.84" width="25.8" height="25.8"/><rect class="cls-15" x="154.84" y="129.03" width="25.8" height="25.81"/><rect class="cls-14" x="154.84" y="103.22" width="25.8" height="25.81"/><rect class="cls-10" x="154.84" y="77.42" width="25.8" height="25.8"/><rect class="cls-10" x="154.84" y="51.61" width="25.8" height="25.81"/><rect class="cls-14" x="154.84" y="25.8" width="25.8" height="25.81"/><rect class="cls-16" x="154.84" width="25.8" height="25.8"/><rect class="cls-14" x="129.03" y="619.35" width="25.81" height="25.81"/><rect x="129.03" y="593.54" width="25.81" height="25.81"/><rect x="129.03" y="567.74" width="25.81" height="25.8"/><rect x="129.03" y="541.93" width="25.81" height="25.81"/><rect x="129.03" y="516.13" width="25.81" height="25.8"/><rect class="cls-4" x="129.03" y="490.32" width="25.81" height="25.81"/><rect class="cls-7" x="129.03" y="464.51" width="25.81" height="25.81"/><rect class="cls-6" x="129.03" y="438.71" width="25.81" height="25.8"/><rect class="cls-7" x="129.03" y="412.9" width="25.81" height="25.81"/><rect class="cls-8" x="129.03" y="387.09" width="25.81" height="25.81"/><rect class="cls-22" x="129.03" y="361.29" width="25.81" height="25.8"/><rect class="cls-6" x="129.03" y="335.48" width="25.81" height="25.81"/><rect class="cls-6" x="129.03" y="309.67" width="25.81" height="25.81"/><rect class="cls-16" x="129.03" y="283.87" width="25.81" height="25.8"/><rect class="cls-15" x="129.03" y="258.06" width="25.81" height="25.81"/><rect class="cls-15" x="129.03" y="232.25" width="25.81" height="25.81"/><rect class="cls-10" x="129.03" y="206.45" width="25.81" height="25.8"/><rect class="cls-18" x="129.03" y="180.64" width="25.81" height="25.81"/><rect class="cls-15" x="129.03" y="154.84" width="25.81" height="25.8"/><rect class="cls-14" x="129.03" y="129.03" width="25.81" height="25.81"/><rect class="cls-10" x="129.03" y="103.22" width="25.81" height="25.81"/><rect class="cls-10" x="129.03" y="77.42" width="25.81" height="25.8"/><rect class="cls-16" x="129.03" y="51.61" width="25.81" height="25.81"/><rect class="cls-16" x="103.23" y="619.35" width="25.8" height="25.81"/><rect class="cls-14" x="103.23" y="593.54" width="25.8" height="25.81"/><rect class="cls-14" x="103.23" y="567.74" width="25.8" height="25.8"/><rect class="cls-14" x="103.23" y="541.93" width="25.8" height="25.81"/><rect class="cls-7" x="103.23" y="516.13" width="25.8" height="25.8"/><rect class="cls-7" x="103.23" y="490.32" width="25.8" height="25.81"/><rect class="cls-6" x="103.23" y="464.51" width="25.8" height="25.81"/><rect class="cls-22" x="103.23" y="438.71" width="25.8" height="25.8"/><rect class="cls-8" x="103.23" y="412.9" width="25.8" height="25.81"/><rect class="cls-4" x="103.23" y="387.09" width="25.8" height="25.81"/><rect class="cls-8" x="103.23" y="361.29" width="25.8" height="25.8"/><rect class="cls-8" x="103.23" y="335.48" width="25.8" height="25.81"/><rect class="cls-6" x="103.23" y="309.67" width="25.8" height="25.81"/><rect class="cls-16" x="103.23" y="283.87" width="25.8" height="25.8"/><rect class="cls-15" x="103.23" y="258.06" width="25.8" height="25.81"/><rect class="cls-15" x="103.23" y="232.25" width="25.8" height="25.81"/><rect class="cls-15" x="103.23" y="206.45" width="25.8" height="25.8"/><rect class="cls-15" x="103.23" y="180.64" width="25.8" height="25.81"/><rect class="cls-15" x="103.23" y="154.84" width="25.8" height="25.8"/><rect class="cls-15" x="103.23" y="129.03" width="25.8" height="25.81"/><rect class="cls-10" x="103.23" y="103.22" width="25.8" height="25.81"/><rect class="cls-14" x="103.23" y="77.42" width="25.8" height="25.8"/><rect class="cls-21" x="77.42" y="619.35" width="25.81" height="25.81"/><rect class="cls-16" x="77.42" y="593.54" width="25.81" height="25.81"/><rect class="cls-16" x="77.42" y="567.74" width="25.81" height="25.8"/><rect class="cls-7" x="77.42" y="541.93" width="25.81" height="25.81"/><rect class="cls-7" x="77.42" y="516.13" width="25.81" height="25.8"/><rect class="cls-22" x="77.42" y="490.32" width="25.81" height="25.81"/><rect class="cls-5" x="77.42" y="464.51" width="25.81" height="25.81"/><rect class="cls-5" x="77.42" y="438.71" width="25.81" height="25.8"/><rect class="cls-22" x="77.42" y="412.9" width="25.81" height="25.81"/><rect class="cls-4" x="77.42" y="387.09" width="25.81" height="25.81"/><rect class="cls-4" x="77.42" y="361.29" width="25.81" height="25.8"/><rect class="cls-4" x="77.42" y="335.48" width="25.81" height="25.81"/><rect class="cls-8" x="77.42" y="309.67" width="25.81" height="25.81"/><rect class="cls-16" x="77.42" y="283.87" width="25.81" height="25.8"/><rect class="cls-15" x="77.42" y="258.06" width="25.81" height="25.81"/><rect class="cls-16" x="77.42" y="232.25" width="25.81" height="25.81"/><rect class="cls-13" x="77.42" y="206.45" width="25.81" height="25.8"/><rect class="cls-15" x="77.42" y="180.64" width="25.81" height="25.81"/><rect class="cls-15" x="77.42" y="154.84" width="25.81" height="25.8"/><rect class="cls-24" x="77.42" y="129.03" width="25.81" height="25.81"/><rect class="cls-14" x="77.42" y="103.22" width="25.81" height="25.81"/><rect class="cls-21" x="51.61" y="619.35" width="25.81" height="25.81"/><rect class="cls-21" x="51.61" y="593.54" width="25.81" height="25.81"/><rect class="cls-7" x="51.61" y="567.74" width="25.81" height="25.8"/><rect class="cls-7" x="51.61" y="541.93" width="25.81" height="25.81"/><rect class="cls-4" x="51.61" y="516.13" width="25.81" height="25.8"/><rect class="cls-5" x="51.61" y="490.32" width="25.81" height="25.81"/><rect class="cls-15" x="51.61" y="464.51" width="25.81" height="25.81"/><rect class="cls-16" x="51.61" y="438.71" width="25.81" height="25.8"/><rect class="cls-4" x="51.61" y="412.9" width="25.81" height="25.81"/><rect class="cls-5" x="51.61" y="387.09" width="25.81" height="25.81"/><rect class="cls-12" x="51.61" y="361.29" width="25.81" height="25.8"/><rect class="cls-7" x="51.61" y="335.48" width="25.81" height="25.81"/><rect class="cls-12" x="51.61" y="309.67" width="25.81" height="25.81"/><rect class="cls-8" x="51.61" y="283.87" width="25.81" height="25.8"/><rect class="cls-11" x="51.61" y="258.06" width="25.81" height="25.81"/><rect class="cls-13" x="51.61" y="232.25" width="25.81" height="25.81"/><rect class="cls-15" x="51.61" y="206.45" width="25.81" height="25.8"/><rect class="cls-24" x="51.61" y="180.64" width="25.81" height="25.81"/><rect class="cls-24" x="51.61" y="154.84" width="25.81" height="25.8"/><rect class="cls-7" x="25.81" y="567.74" width="25.8" height="25.8"/><rect class="cls-4" x="25.81" y="541.93" width="25.8" height="25.81"/><rect class="cls-4" x="25.81" y="516.13" width="25.8" height="25.8"/><rect class="cls-15" x="25.81" y="464.51" width="25.8" height="25.81"/><rect class="cls-16" x="25.81" y="438.71" width="25.8" height="25.8"/><rect class="cls-4" x="25.81" y="412.9" width="25.8" height="25.81"/><rect class="cls-23" x="25.81" y="387.09" width="25.8" height="25.81"/><rect class="cls-5" x="25.81" y="361.29" width="25.8" height="25.8"/><rect class="cls-12" x="25.81" y="335.48" width="25.8" height="25.81"/><rect class="cls-4" x="25.81" y="309.67" width="25.8" height="25.81"/></g></g></svg>