<svg xmlns="http://www.w3.org/2000/svg" viewBox="0 0 361.29 619.35"><defs><style>.cls-1{fill:#21111b;}.cls-2{fill:#25282f;}.cls-3{fill:#e7f5fc;}.cls-4{fill:#4b5260;}.cls-5{fill:#99a6cb;}.cls-6{fill:#33373d;}.cls-7{fill:#656a9d;}.cls-8{fill:#6577ba;}.cls-9{fill:#716c7c;}.cls-10{fill:#8d8797;}.cls-11{fill:#66b4c6;}</style></defs><title>zen</title><g id="Layer_2" data-name="Layer 2"><g id="grid"><rect class="cls-1" x="335.48" y="567.74" width="25.81" height="25.81"/><rect class="cls-1" x="335.48" y="541.93" width="25.81" height="25.81"/><rect class="cls-1" x="335.48" y="516.13" width="25.81" height="25.8"/><rect class="cls-1" x="335.48" y="490.32" width="25.81" height="25.81"/><rect class="cls-1" x="335.48" y="464.52" width="25.81" height="25.8"/><rect class="cls-1" x="335.48" y="438.71" width="25.81" height="25.81"/><rect class="cls-1" x="335.48" y="412.9" width="25.81" height="25.81"/><rect class="cls-1" x="335.48" y="387.1" width="25.81" height="25.8"/><rect class="cls-1" x="335.48" y="361.29" width="25.81" height="25.81"/><rect class="cls-2" x="335.48" y="283.87" width="25.81" height="25.81"/><rect class="cls-3" x="335.48" y="51.61" width="25.81" height="25.81"/><rect class="cls-3" x="335.48" y="25.81" width="25.81" height="25.8"/><rect class="cls-1" x="309.68" y="541.93" width="25.8" height="25.81"/><rect class="cls-1" x="309.68" y="516.13" width="25.8" height="25.8"/><rect class="cls-1" x="309.68" y="490.32" width="25.8" height="25.81"/><rect class="cls-1" x="309.68" y="464.52" width="25.8" height="25.8"/><rect class="cls-1" x="309.68" y="438.71" width="25.8" height="25.81"/><rect class="cls-1" x="309.68" y="412.9" width="25.8" height="25.81"/><rect class="cls-1" x="309.68" y="387.1" width="25.8" height="25.8"/><rect class="cls-1" x="309.68" y="361.29" width="25.8" height="25.81"/><rect class="cls-1" x="309.68" y="335.48" width="25.8" height="25.81"/><rect class="cls-1" x="309.68" y="309.68" width="25.8" height="25.8"/><rect class="cls-2" x="309.68" y="283.87" width="25.8" height="25.81"/><rect class="cls-4" x="309.68" y="258.06" width="25.8" height="25.81"/><rect class="cls-5" x="309.68" y="180.64" width="25.8" height="25.81"/><rect class="cls-5" x="309.68" y="154.84" width="25.8" height="25.8"/><rect class="cls-5" x="309.68" y="129.03" width="25.8" height="25.81"/><rect class="cls-3" x="309.68" y="103.23" width="25.8" height="25.8"/><rect class="cls-5" x="309.68" y="77.42" width="25.8" height="25.81"/><rect class="cls-3" x="309.68" y="51.61" width="25.8" height="25.81"/><rect class="cls-3" x="309.68" y="25.81" width="25.8" height="25.8"/><rect class="cls-3" x="309.68" width="25.8" height="25.81"/><rect class="cls-1" x="283.87" y="516.13" width="25.81" height="25.8"/><rect class="cls-1" x="283.87" y="490.32" width="25.81" height="25.81"/><rect class="cls-1" x="283.87" y="464.52" width="25.81" height="25.8"/><rect class="cls-2" x="283.87" y="438.71" width="25.81" height="25.81"/><rect class="cls-6" x="283.87" y="412.9" width="25.81" height="25.81"/><rect class="cls-6" x="283.87" y="387.1" width="25.81" height="25.8"/><rect class="cls-6" x="283.87" y="361.29" width="25.81" height="25.81"/><rect class="cls-6" x="283.87" y="335.48" width="25.81" height="25.81"/><rect class="cls-6" x="283.87" y="309.68" width="25.81" height="25.8"/><rect class="cls-2" x="283.87" y="283.87" width="25.81" height="25.81"/><rect class="cls-7" x="283.87" y="258.06" width="25.81" height="25.81"/><rect class="cls-5" x="283.87" y="232.26" width="25.81" height="25.8"/><rect class="cls-5" x="283.87" y="206.45" width="25.81" height="25.81"/><rect class="cls-3" x="283.87" y="180.64" width="25.81" height="25.81"/><rect class="cls-3" x="283.87" y="154.84" width="25.81" height="25.8"/><rect class="cls-3" x="283.87" y="129.03" width="25.81" height="25.81"/><rect class="cls-3" x="283.87" y="103.23" width="25.81" height="25.8"/><rect class="cls-5" x="283.87" y="77.42" width="25.81" height="25.81"/><rect class="cls-3" x="283.87" y="51.61" width="25.81" height="25.81"/><rect class="cls-3" x="283.87" y="25.81" width="25.81" height="25.8"/><rect class="cls-3" x="283.87" width="25.81" height="25.81"/><rect class="cls-1" x="258.06" y="464.52" width="25.81" height="25.8"/><rect class="cls-1" x="258.06" y="438.71" width="25.81" height="25.81"/><rect class="cls-2" x="258.06" y="412.9" width="25.81" height="25.81"/><rect class="cls-2" x="258.06" y="387.1" width="25.81" height="25.8"/><rect class="cls-2" x="258.06" y="361.29" width="25.81" height="25.81"/><rect class="cls-2" x="258.06" y="335.48" width="25.81" height="25.81"/><rect class="cls-2" x="258.06" y="309.68" width="25.81" height="25.8"/><rect class="cls-2" x="258.06" y="283.87" width="25.81" height="25.81"/><rect class="cls-7" x="258.06" y="258.06" width="25.81" height="25.81"/><rect class="cls-8" x="258.06" y="232.26" width="25.81" height="25.8"/><rect class="cls-5" x="258.06" y="206.45" width="25.81" height="25.81"/><rect class="cls-3" x="258.06" y="180.64" width="25.81" height="25.81"/><rect class="cls-3" x="258.06" y="154.84" width="25.81" height="25.8"/><rect class="cls-3" x="258.06" y="129.03" width="25.81" height="25.81"/><rect class="cls-3" x="258.06" y="103.23" width="25.81" height="25.8"/><rect class="cls-3" x="258.06" y="77.42" width="25.81" height="25.81"/><rect class="cls-5" x="258.06" y="51.61" width="25.81" height="25.81"/><rect class="cls-5" x="258.06" y="25.81" width="25.81" height="25.8"/><rect class="cls-2" x="232.2599" y="593.55" width="25.8" height="25.8"/><rect class="cls-2" x="232.2599" y="567.74" width="25.8" height="25.81"/><rect class="cls-2" x="232.2599" y="541.93" width="25.8" height="25.81"/><rect class="cls-2" x="232.2599" y="516.13" width="25.8" height="25.8"/><rect class="cls-2" x="232.2599" y="490.32" width="25.8" height="25.81"/><rect class="cls-2" x="232.2599" y="464.52" width="25.8" height="25.8"/><rect class="cls-9" x="232.2599" y="438.71" width="25.8" height="25.81"/><rect class="cls-6" x="232.2599" y="412.9" width="25.8" height="25.81"/><rect class="cls-6" x="232.2599" y="387.1" width="25.8" height="25.8"/><rect class="cls-2" x="232.2599" y="361.29" width="25.8" height="25.81"/><rect class="cls-4" x="232.2599" y="335.48" width="25.8" height="25.81"/><rect class="cls-4" x="232.2599" y="309.68" width="25.8" height="25.8"/><rect class="cls-4" x="232.2599" y="283.87" width="25.8" height="25.81"/><rect class="cls-4" x="232.2599" y="258.06" width="25.8" height="25.81"/><rect class="cls-6" x="232.2599" y="232.26" width="25.8" height="25.8"/><rect class="cls-8" x="232.2599" y="206.45" width="25.8" height="25.81"/><rect class="cls-8" x="232.2599" y="180.64" width="25.8" height="25.81"/><rect class="cls-3" x="232.2599" y="154.84" width="25.8" height="25.8"/><rect class="cls-3" x="232.2599" y="129.03" width="25.8" height="25.81"/><rect class="cls-3" x="232.2599" y="103.23" width="25.8" height="25.8"/><rect class="cls-3" x="232.2599" y="77.42" width="25.8" height="25.81"/><rect class="cls-3" x="232.2599" y="51.61" width="25.8" height="25.81"/><rect class="cls-3" x="232.2599" y="25.81" width="25.8" height="25.8"/><rect class="cls-3" x="232.2599" width="25.8" height="25.81"/><rect class="cls-2" x="206.45" y="593.55" width="25.81" height="25.8"/><rect class="cls-2" x="206.45" y="567.74" width="25.81" height="25.81"/><rect class="cls-6" x="206.45" y="541.93" width="25.81" height="25.81"/><rect class="cls-6" x="206.45" y="516.13" width="25.81" height="25.8"/><rect class="cls-6" x="206.45" y="490.32" width="25.81" height="25.81"/><rect class="cls-6" x="206.45" y="464.52" width="25.81" height="25.8"/><rect class="cls-10" x="206.45" y="438.71" width="25.81" height="25.81"/><rect class="cls-4" x="206.45" y="412.9" width="25.81" height="25.81"/><rect class="cls-6" x="206.45" y="387.1" width="25.81" height="25.8"/><rect class="cls-2" x="206.45" y="361.29" width="25.81" height="25.81"/><rect class="cls-7" x="206.45" y="335.48" width="25.81" height="25.81"/><rect class="cls-4" x="206.45" y="309.68" width="25.81" height="25.8"/><rect class="cls-4" x="206.45" y="283.87" width="25.81" height="25.81"/><rect class="cls-6" x="206.45" y="258.06" width="25.81" height="25.81"/><rect class="cls-4" x="206.45" y="232.26" width="25.81" height="25.8"/><rect class="cls-10" x="206.45" y="206.45" width="25.81" height="25.81"/><rect class="cls-8" x="206.45" y="180.64" width="25.81" height="25.81"/><rect class="cls-8" x="206.45" y="154.84" width="25.81" height="25.8"/><rect class="cls-3" x="206.45" y="129.03" width="25.81" height="25.81"/><rect class="cls-3" x="206.45" y="103.23" width="25.81" height="25.8"/><rect class="cls-2" x="206.45" y="77.42" width="25.81" height="25.81"/><rect class="cls-3" x="206.45" y="51.61" width="25.81" height="25.81"/><rect class="cls-3" x="206.45" y="25.81" width="25.81" height="25.8"/><rect class="cls-3" x="206.45" width="25.81" height="25.81"/><rect class="cls-2" x="180.64" y="593.55" width="25.81" height="25.8"/><rect class="cls-4" x="180.64" y="567.74" width="25.81" height="25.81"/><rect class="cls-4" x="180.64" y="541.93" width="25.81" height="25.81"/><rect class="cls-4" x="180.64" y="516.13" width="25.81" height="25.8"/><rect class="cls-4" x="180.64" y="490.32" width="25.81" height="25.81"/><rect class="cls-6" x="180.64" y="464.52" width="25.81" height="25.8"/><rect class="cls-10" x="180.64" y="438.71" width="25.81" height="25.81"/><rect class="cls-1" x="180.64" y="412.9" width="25.81" height="25.81"/><rect class="cls-4" x="180.64" y="387.1" width="25.81" height="25.8"/><rect class="cls-6" x="180.64" y="361.29" width="25.81" height="25.81"/><rect class="cls-2" x="180.64" y="335.48" width="25.81" height="25.81"/><rect class="cls-7" x="180.64" y="309.68" width="25.81" height="25.8"/><rect class="cls-6" x="180.64" y="283.87" width="25.81" height="25.81"/><rect class="cls-4" x="180.64" y="258.06" width="25.81" height="25.81"/><rect class="cls-4" x="180.64" y="232.26" width="25.81" height="25.8"/><rect class="cls-2" x="180.64" y="206.45" width="25.81" height="25.81"/><rect class="cls-2" x="180.64" y="180.64" width="25.81" height="25.81"/><rect class="cls-2" x="180.64" y="154.84" width="25.81" height="25.8"/><rect class="cls-2" x="180.64" y="129.03" width="25.81" height="25.81"/><rect class="cls-2" x="180.64" y="103.23" width="25.81" height="25.8"/><rect class="cls-3" x="180.64" y="77.42" width="25.81" height="25.81"/><rect class="cls-3" x="180.64" y="51.61" width="25.81" height="25.81"/><rect class="cls-3" x="180.64" y="25.81" width="25.81" height="25.8"/><rect class="cls-3" x="180.64" width="25.81" height="25.81"/><rect class="cls-4" x="154.84" y="593.55" width="25.8" height="25.8"/><rect class="cls-7" x="154.84" y="567.74" width="25.8" height="25.81"/><rect class="cls-2" x="154.84" y="541.93" width="25.8" height="25.81"/><rect class="cls-2" x="154.84" y="516.13" width="25.8" height="25.8"/><rect class="cls-2" x="154.84" y="490.32" width="25.8" height="25.81"/><rect class="cls-2" x="154.84" y="464.52" width="25.8" height="25.8"/><rect class="cls-9" x="154.84" y="438.71" width="25.8" height="25.81"/><rect class="cls-1" x="154.84" y="412.9" width="25.8" height="25.81"/><rect class="cls-4" x="154.84" y="387.1" width="25.8" height="25.8"/><rect class="cls-4" x="154.84" y="361.29" width="25.8" height="25.81"/><rect class="cls-4" x="154.84" y="335.48" width="25.8" height="25.81"/><rect class="cls-4" x="154.84" y="309.68" width="25.8" height="25.8"/><rect class="cls-6" x="154.84" y="283.87" width="25.8" height="25.81"/><rect class="cls-4" x="154.84" y="258.06" width="25.8" height="25.81"/><rect class="cls-2" x="154.84" y="232.26" width="25.8" height="25.8"/><rect class="cls-4" x="154.84" y="206.45" width="25.8" height="25.81"/><rect class="cls-4" x="154.84" y="180.64" width="25.8" height="25.81"/><rect class="cls-4" x="154.84" y="154.84" width="25.8" height="25.8"/><rect class="cls-4" x="154.84" y="129.03" width="25.8" height="25.81"/><rect class="cls-6" x="154.84" y="103.23" width="25.8" height="25.8"/><rect class="cls-3" x="154.84" y="77.42" width="25.8" height="25.81"/><rect class="cls-3" x="154.84" y="51.61" width="25.8" height="25.81"/><rect class="cls-3" x="154.84" y="25.81" width="25.8" height="25.8"/><rect class="cls-3" x="154.84" width="25.8" height="25.81"/><rect class="cls-2" x="129.03" y="567.74" width="25.81" height="25.81"/><rect class="cls-2" x="129.03" y="541.93" width="25.81" height="25.81"/><rect class="cls-6" x="129.03" y="516.13" width="25.81" height="25.8"/><rect class="cls-6" x="129.03" y="490.32" width="25.81" height="25.81"/><rect class="cls-2" x="129.03" y="464.52" width="25.81" height="25.8"/><rect class="cls-9" x="129.03" y="438.71" width="25.81" height="25.81"/><rect class="cls-1" x="129.03" y="412.9" width="25.81" height="25.81"/><rect class="cls-1" x="129.03" y="387.1" width="25.81" height="25.8"/><rect class="cls-6" x="129.03" y="361.29" width="25.81" height="25.81"/><rect class="cls-4" x="129.03" y="335.48" width="25.81" height="25.81"/><rect class="cls-4" x="129.03" y="309.68" width="25.81" height="25.8"/><rect class="cls-6" x="129.03" y="283.87" width="25.81" height="25.81"/><rect class="cls-4" x="129.03" y="258.06" width="25.81" height="25.81"/><rect class="cls-6" x="129.03" y="232.26" width="25.81" height="25.8"/><rect class="cls-4" x="129.03" y="206.45" width="25.81" height="25.81"/><rect class="cls-4" x="129.03" y="180.64" width="25.81" height="25.81"/><rect class="cls-4" x="129.03" y="154.84" width="25.81" height="25.8"/><rect class="cls-11" x="129.03" y="129.03" width="25.81" height="25.81"/><rect class="cls-4" x="129.03" y="103.23" width="25.81" height="25.8"/><rect class="cls-6" x="129.03" y="77.42" width="25.81" height="25.81"/><rect class="cls-3" x="129.03" y="51.61" width="25.81" height="25.81"/><rect class="cls-3" x="129.03" y="25.81" width="25.81" height="25.8"/><rect class="cls-3" x="129.03" width="25.81" height="25.81"/><rect class="cls-2" x="103.22" y="567.74" width="25.81" height="25.81"/><rect class="cls-4" x="103.22" y="541.93" width="25.81" height="25.81"/><rect class="cls-4" x="103.22" y="516.13" width="25.81" height="25.8"/><rect class="cls-4" x="103.22" y="490.32" width="25.81" height="25.81"/><rect class="cls-6" x="103.22" y="464.52" width="25.81" height="25.8"/><rect class="cls-10" x="103.22" y="438.71" width="25.81" height="25.81"/><rect class="cls-10" x="103.22" y="412.9" width="25.81" height="25.81"/><rect class="cls-1" x="103.22" y="387.1" width="25.81" height="25.8"/><rect class="cls-2" x="103.22" y="361.29" width="25.81" height="25.81"/><rect class="cls-7" x="103.22" y="335.48" width="25.81" height="25.81"/><rect class="cls-4" x="103.22" y="309.68" width="25.81" height="25.8"/><rect class="cls-4" x="103.22" y="283.87" width="25.81" height="25.81"/><rect class="cls-6" x="103.22" y="258.06" width="25.81" height="25.81"/><rect class="cls-6" x="103.22" y="232.26" width="25.81" height="25.8"/><rect class="cls-4" x="103.22" y="206.45" width="25.81" height="25.81"/><rect class="cls-4" x="103.22" y="180.64" width="25.81" height="25.81"/><rect class="cls-4" x="103.22" y="154.84" width="25.81" height="25.8"/><rect class="cls-11" x="103.22" y="129.03" width="25.81" height="25.81"/><rect class="cls-4" x="103.22" y="103.23" width="25.81" height="25.8"/><rect class="cls-6" x="103.22" y="77.42" width="25.81" height="25.81"/><rect class="cls-3" x="103.22" y="51.61" width="25.81" height="25.81"/><rect class="cls-3" x="103.22" y="25.81" width="25.81" height="25.8"/><rect class="cls-4" x="77.42" y="567.74" width="25.8" height="25.81"/><rect class="cls-7" x="77.42" y="541.93" width="25.8" height="25.81"/><rect class="cls-2" x="77.42" y="438.71" width="25.8" height="25.81"/><rect class="cls-2" x="77.42" y="412.9" width="25.8" height="25.81"/><rect class="cls-2" x="77.42" y="387.1" width="25.8" height="25.8"/><rect class="cls-2" x="77.42" y="361.29" width="25.8" height="25.81"/><rect class="cls-2" x="77.42" y="335.48" width="25.8" height="25.81"/><rect class="cls-7" x="77.42" y="309.68" width="25.8" height="25.8"/><rect class="cls-2" x="77.42" y="283.87" width="25.8" height="25.81"/><rect class="cls-4" x="77.42" y="258.06" width="25.8" height="25.81"/><rect class="cls-6" x="77.42" y="232.26" width="25.8" height="25.8"/><rect class="cls-4" x="77.42" y="206.45" width="25.8" height="25.81"/><rect class="cls-4" x="77.42" y="180.64" width="25.8" height="25.81"/><rect class="cls-11" x="77.42" y="154.84" width="25.8" height="25.8"/><rect class="cls-4" x="77.42" y="129.03" width="25.8" height="25.81"/><rect class="cls-4" x="77.42" y="103.23" width="25.8" height="25.8"/><rect class="cls-6" x="77.42" y="77.42" width="25.8" height="25.81"/><rect class="cls-3" x="77.42" y="51.61" width="25.8" height="25.81"/><rect class="cls-5" x="77.42" y="25.81" width="25.8" height="25.8"/><rect class="cls-3" x="77.42" width="25.8" height="25.81"/><rect class="cls-4" x="51.61" y="412.9" width="25.81" height="25.81"/><rect class="cls-4" x="51.61" y="387.1" width="25.81" height="25.8"/><rect class="cls-4" x="51.61" y="361.29" width="25.81" height="25.81"/><rect class="cls-4" x="51.61" y="335.48" width="25.81" height="25.81"/><rect class="cls-4" x="51.61" y="309.68" width="25.81" height="25.8"/><rect class="cls-2" x="51.61" y="283.87" width="25.81" height="25.81"/><rect class="cls-4" x="51.61" y="258.06" width="25.81" height="25.81"/><rect class="cls-4" x="51.61" y="206.45" width="25.81" height="25.81"/><rect class="cls-4" x="51.61" y="180.64" width="25.81" height="25.81"/><rect class="cls-4" x="51.61" y="154.84" width="25.81" height="25.8"/><rect class="cls-4" x="51.61" y="129.03" width="25.81" height="25.81"/><rect class="cls-4" x="51.61" y="103.23" width="25.81" height="25.8"/><rect class="cls-5" x="51.61" y="51.61" width="25.81" height="25.81"/><rect class="cls-3" x="51.61" y="25.81" width="25.81" height="25.8"/><rect class="cls-3" x="51.61" width="25.81" height="25.81"/><rect class="cls-4" x="25.81" y="258.06" width="25.8" height="25.81"/><rect class="cls-3" x="25.81" y="51.61" width="25.8" height="25.81"/><rect class="cls-3" x="25.81" y="25.81" width="25.8" height="25.8"/><rect class="cls-4" y="232.26" width="25.81" height="25.8"/></g></g></svg>