<svg xmlns="http://www.w3.org/2000/svg" viewBox="0 0 567.74 567.74"><defs><style>.cls-1{fill:#422c16;}.cls-2{fill:#6b5324;}.cls-3{fill:#946f2a;}.cls-4{fill:#be9e65;}.cls-5{fill:#fbfbe4;}.cls-6{fill:#d8db9e;}.cls-7{fill:#2b3b64;}.cls-8{fill:#3f4a9e;}</style></defs><title>drk</title><g id="Layer_2" data-name="Layer 2"><g id="grid"><rect class="cls-1" x="541.93" y="516.13" width="25.81" height="25.8"/><rect class="cls-1" x="541.93" y="490.3199" width="25.81" height="25.8101"/><rect class="cls-1" x="541.93" y="464.5099" width="25.81" height="25.81"/><rect class="cls-2" x="541.93" y="438.71" width="25.81" height="25.8"/><rect class="cls-2" x="541.93" y="412.9" width="25.81" height="25.81"/><rect class="cls-2" x="541.93" y="387.09" width="25.81" height="25.81"/><rect class="cls-2" x="541.93" y="361.29" width="25.81" height="25.8"/><rect class="cls-2" x="541.93" y="335.48" width="25.81" height="25.81"/><rect class="cls-3" x="541.93" y="309.68" width="25.81" height="25.8"/><rect class="cls-3" x="541.93" y="283.87" width="25.81" height="25.81"/><rect class="cls-2" x="541.93" y="258.06" width="25.81" height="25.81"/><rect class="cls-2" x="541.93" y="232.2599" width="25.81" height="25.8"/><rect class="cls-3" x="541.93" y="206.45" width="25.81" height="25.81"/><rect class="cls-3" x="541.93" y="180.64" width="25.81" height="25.81"/><rect class="cls-3" x="541.93" y="154.84" width="25.81" height="25.8"/><rect class="cls-4" x="541.93" y="129.03" width="25.81" height="25.81"/><rect class="cls-4" x="541.93" y="103.22" width="25.81" height="25.81"/><rect class="cls-4" x="541.93" y="77.42" width="25.81" height="25.8"/><rect class="cls-4" x="541.93" y="51.61" width="25.81" height="25.81"/><rect class="cls-5" x="541.93" y="25.8" width="25.81" height="25.81"/><rect class="cls-1" x="516.13" y="541.93" width="25.8" height="25.81"/><rect class="cls-1" x="516.13" y="516.13" width="25.8" height="25.8"/><rect class="cls-2" x="516.13" y="490.3199" width="25.8" height="25.8101"/><rect class="cls-2" x="516.13" y="464.5099" width="25.8" height="25.81"/><rect class="cls-2" x="516.13" y="438.71" width="25.8" height="25.8"/><rect class="cls-3" x="516.13" y="412.9" width="25.8" height="25.81"/><rect class="cls-3" x="516.13" y="387.09" width="25.8" height="25.81"/><rect class="cls-3" x="516.13" y="361.29" width="25.8" height="25.8"/><rect class="cls-3" x="516.13" y="335.48" width="25.8" height="25.81"/><rect class="cls-2" x="516.13" y="309.68" width="25.8" height="25.8"/><rect class="cls-2" x="516.13" y="283.87" width="25.8" height="25.81"/><rect class="cls-2" x="516.13" y="258.06" width="25.8" height="25.81"/><rect class="cls-3" x="516.13" y="232.2599" width="25.8" height="25.8"/><rect class="cls-3" x="516.13" y="206.45" width="25.8" height="25.81"/><rect class="cls-3" x="516.13" y="180.64" width="25.8" height="25.81"/><rect class="cls-4" x="516.13" y="154.84" width="25.8" height="25.8"/><rect class="cls-4" x="516.13" y="129.03" width="25.8" height="25.81"/><rect class="cls-4" x="516.13" y="103.22" width="25.8" height="25.81"/><rect class="cls-4" x="516.13" y="77.42" width="25.8" height="25.8"/><rect class="cls-6" x="516.13" y="51.61" width="25.8" height="25.81"/><rect class="cls-6" x="516.13" y="25.8" width="25.8" height="25.81"/><rect class="cls-5" x="516.13" width="25.8" height="25.8"/><rect class="cls-1" x="490.32" y="541.93" width="25.81" height="25.81"/><rect class="cls-2" x="490.32" y="516.13" width="25.81" height="25.8"/><rect class="cls-2" x="490.32" y="490.3199" width="25.81" height="25.8101"/><rect class="cls-7" x="490.32" y="464.5099" width="25.81" height="25.81"/><rect class="cls-7" x="490.32" y="438.71" width="25.81" height="25.8"/><rect class="cls-7" x="490.32" y="412.9" width="25.81" height="25.81"/><rect class="cls-7" x="490.32" y="387.09" width="25.81" height="25.81"/><rect class="cls-7" x="490.32" y="361.29" width="25.81" height="25.8"/><rect class="cls-7" x="490.32" y="335.48" width="25.81" height="25.81"/><rect class="cls-7" x="490.32" y="309.68" width="25.81" height="25.8"/><rect class="cls-8" x="490.32" y="283.87" width="25.81" height="25.81"/><rect class="cls-8" x="490.32" y="258.06" width="25.81" height="25.81"/><rect class="cls-8" x="490.32" y="232.2599" width="25.81" height="25.8"/><rect class="cls-8" x="490.32" y="206.45" width="25.81" height="25.81"/><rect class="cls-8" x="490.32" y="180.64" width="25.81" height="25.81"/><rect class="cls-8" x="490.32" y="154.84" width="25.81" height="25.8"/><rect class="cls-7" x="490.32" y="129.03" width="25.81" height="25.81"/><rect class="cls-7" x="490.32" y="103.22" width="25.81" height="25.81"/><rect class="cls-7" x="490.32" y="77.42" width="25.81" height="25.8"/><rect class="cls-4" x="490.32" y="51.61" width="25.81" height="25.81"/><rect class="cls-6" x="490.32" y="25.8" width="25.81" height="25.81"/><rect class="cls-4" x="490.32" width="25.81" height="25.8"/><rect class="cls-1" x="464.51" y="541.93" width="25.81" height="25.81"/><rect class="cls-2" x="464.51" y="516.13" width="25.81" height="25.8"/><rect class="cls-7" x="464.51" y="490.3199" width="25.81" height="25.8101"/><rect class="cls-7" x="464.51" y="464.5099" width="25.81" height="25.81"/><rect class="cls-7" x="464.51" y="438.71" width="25.81" height="25.8"/><rect class="cls-7" x="464.51" y="412.9" width="25.81" height="25.81"/><rect class="cls-7" x="464.51" y="387.09" width="25.81" height="25.81"/><rect class="cls-7" x="464.51" y="361.29" width="25.81" height="25.8"/><rect class="cls-8" x="464.51" y="335.48" width="25.81" height="25.81"/><rect class="cls-8" x="464.51" y="309.68" width="25.81" height="25.8"/><rect class="cls-8" x="464.51" y="283.87" width="25.81" height="25.81"/><rect class="cls-8" x="464.51" y="258.06" width="25.81" height="25.81"/><rect class="cls-8" x="464.51" y="232.2599" width="25.81" height="25.8"/><rect class="cls-8" x="464.51" y="206.45" width="25.81" height="25.81"/><rect class="cls-8" x="464.51" y="180.64" width="25.81" height="25.81"/><rect class="cls-8" x="464.51" y="154.84" width="25.81" height="25.8"/><rect class="cls-8" x="464.51" y="129.03" width="25.81" height="25.81"/><rect class="cls-7" x="464.51" y="103.22" width="25.81" height="25.81"/><rect class="cls-7" x="464.51" y="77.42" width="25.81" height="25.8"/><rect class="cls-7" x="464.51" y="51.61" width="25.81" height="25.81"/><rect class="cls-4" x="464.51" y="25.8" width="25.81" height="25.81"/><rect class="cls-4" x="464.51" width="25.81" height="25.8"/><rect class="cls-2" x="438.71" y="541.93" width="25.8" height="25.81"/><rect class="cls-1" x="438.71" y="516.13" width="25.8" height="25.8"/><rect class="cls-7" x="438.71" y="490.3199" width="25.8" height="25.8101"/><rect class="cls-7" x="438.71" y="464.5099" width="25.8" height="25.81"/><rect class="cls-7" x="438.71" y="438.71" width="25.8" height="25.8"/><rect class="cls-7" x="438.71" y="412.9" width="25.8" height="25.81"/><rect class="cls-7" x="438.71" y="387.09" width="25.8" height="25.81"/><rect class="cls-7" x="438.71" y="361.29" width="25.8" height="25.8"/><rect class="cls-8" x="438.71" y="335.48" width="25.8" height="25.81"/><rect class="cls-8" x="438.71" y="309.68" width="25.8" height="25.8"/><rect class="cls-8" x="438.71" y="283.87" width="25.8" height="25.81"/><rect class="cls-8" x="438.71" y="258.06" width="25.8" height="25.81"/><rect class="cls-8" x="438.71" y="232.2599" width="25.8" height="25.8"/><rect class="cls-8" x="438.71" y="206.45" width="25.8" height="25.81"/><rect class="cls-8" x="438.71" y="180.64" width="25.8" height="25.81"/><rect class="cls-8" x="438.71" y="154.84" width="25.8" height="25.8"/><rect class="cls-8" x="438.71" y="129.03" width="25.8" height="25.81"/><rect class="cls-7" x="438.71" y="103.22" width="25.8" height="25.81"/><rect class="cls-7" x="438.71" y="77.42" width="25.8" height="25.8"/><rect class="cls-7" x="438.71" y="51.61" width="25.8" height="25.81"/><rect class="cls-4" x="438.71" y="25.8" width="25.8" height="25.81"/><rect class="cls-6" x="438.71" width="25.8" height="25.8"/><rect class="cls-1" x="412.9" y="541.93" width="25.81" height="25.81"/><rect class="cls-3" x="412.9" y="516.13" width="25.81" height="25.8"/><rect class="cls-7" x="412.9" y="490.3199" width="25.81" height="25.8101"/><rect class="cls-7" x="412.9" y="464.5099" width="25.81" height="25.81"/><rect class="cls-7" x="412.9" y="438.71" width="25.81" height="25.8"/><rect class="cls-7" x="412.9" y="412.9" width="25.81" height="25.81"/><rect class="cls-7" x="412.9" y="387.09" width="25.81" height="25.81"/><rect class="cls-8" x="412.9" y="361.29" width="25.81" height="25.8"/><rect class="cls-8" x="412.9" y="335.48" width="25.81" height="25.81"/><rect class="cls-8" x="412.9" y="309.68" width="25.81" height="25.8"/><rect class="cls-8" x="412.9" y="283.87" width="25.81" height="25.81"/><rect class="cls-8" x="412.9" y="258.06" width="25.81" height="25.81"/><rect class="cls-8" x="412.9" y="232.2599" width="25.81" height="25.8"/><rect class="cls-8" x="412.9" y="206.45" width="25.81" height="25.81"/><rect class="cls-8" x="412.9" y="180.64" width="25.81" height="25.81"/><rect class="cls-8" x="412.9" y="154.84" width="25.81" height="25.8"/><rect class="cls-8" x="412.9" y="129.03" width="25.81" height="25.81"/><rect class="cls-8" x="412.9" y="103.22" width="25.81" height="25.81"/><rect class="cls-7" x="412.9" y="77.42" width="25.81" height="25.8"/><rect class="cls-7" x="412.9" y="51.61" width="25.81" height="25.81"/><rect class="cls-4" x="412.9" y="25.8" width="25.81" height="25.81"/><rect class="cls-6" x="412.9" width="25.81" height="25.8"/><rect class="cls-1" x="387.09" y="541.93" width="25.81" height="25.81"/><rect class="cls-4" x="387.09" y="516.13" width="25.81" height="25.8"/><rect class="cls-7" x="387.09" y="490.3199" width="25.81" height="25.8101"/><rect class="cls-7" x="387.09" y="464.5099" width="25.81" height="25.81"/><rect class="cls-7" x="387.09" y="438.71" width="25.81" height="25.8"/><rect class="cls-7" x="387.09" y="412.9" width="25.81" height="25.81"/><rect class="cls-8" x="387.09" y="387.09" width="25.81" height="25.81"/><rect class="cls-8" x="387.09" y="361.29" width="25.81" height="25.8"/><rect class="cls-8" x="387.09" y="335.48" width="25.81" height="25.81"/><rect class="cls-8" x="387.09" y="309.68" width="25.81" height="25.8"/><rect class="cls-8" x="387.09" y="283.87" width="25.81" height="25.81"/><rect class="cls-8" x="387.09" y="258.06" width="25.81" height="25.81"/><rect class="cls-4" x="387.09" y="232.2599" width="25.81" height="25.8"/><rect class="cls-8" x="387.09" y="206.45" width="25.81" height="25.81"/><rect class="cls-8" x="387.09" y="180.64" width="25.81" height="25.81"/><rect class="cls-8" x="387.09" y="154.84" width="25.81" height="25.8"/><rect class="cls-8" x="387.09" y="129.03" width="25.81" height="25.81"/><rect class="cls-8" x="387.09" y="103.22" width="25.81" height="25.81"/><rect class="cls-8" x="387.09" y="77.42" width="25.81" height="25.8"/><rect class="cls-7" x="387.09" y="51.61" width="25.81" height="25.81"/><rect class="cls-6" x="387.09" y="25.8" width="25.81" height="25.81"/><rect class="cls-5" x="387.09" width="25.81" height="25.8"/><rect class="cls-2" x="361.29" y="541.93" width="25.8" height="25.81"/><rect class="cls-6" x="361.29" y="516.13" width="25.8" height="25.8"/><rect class="cls-7" x="361.29" y="490.3199" width="25.8" height="25.8101"/><rect class="cls-7" x="361.29" y="464.5099" width="25.8" height="25.81"/><rect class="cls-7" x="361.29" y="438.71" width="25.8" height="25.8"/><rect class="cls-8" x="361.29" y="412.9" width="25.8" height="25.81"/><rect class="cls-8" x="361.29" y="387.09" width="25.8" height="25.81"/><rect class="cls-8" x="361.29" y="361.29" width="25.8" height="25.8"/><rect class="cls-8" x="361.29" y="335.48" width="25.8" height="25.81"/><rect class="cls-8" x="361.29" y="309.68" width="25.8" height="25.8"/><rect class="cls-4" x="361.29" y="283.87" width="25.8" height="25.81"/><rect class="cls-8" x="361.29" y="258.06" width="25.8" height="25.81"/><rect class="cls-8" x="361.29" y="232.2599" width="25.8" height="25.8"/><rect class="cls-6" x="361.29" y="206.45" width="25.8" height="25.81"/><rect class="cls-8" x="361.29" y="180.64" width="25.8" height="25.81"/><rect class="cls-8" x="361.29" y="154.84" width="25.8" height="25.8"/><rect class="cls-8" x="361.29" y="129.03" width="25.8" height="25.81"/><rect class="cls-5" x="361.29" y="103.22" width="25.8" height="25.81"/><rect class="cls-8" x="361.29" y="77.42" width="25.8" height="25.8"/><rect class="cls-7" x="361.29" y="51.61" width="25.8" height="25.81"/><rect class="cls-4" x="361.29" y="25.8" width="25.8" height="25.81"/><rect class="cls-5" x="361.29" width="25.8" height="25.8"/><rect class="cls-2" x="335.48" y="541.93" width="25.81" height="25.81"/><rect class="cls-4" x="335.48" y="516.13" width="25.81" height="25.8"/><rect class="cls-7" x="335.48" y="490.3199" width="25.81" height="25.8101"/><rect class="cls-7" x="335.48" y="464.5099" width="25.81" height="25.81"/><rect class="cls-7" x="335.48" y="438.71" width="25.81" height="25.8"/><rect class="cls-8" x="335.48" y="412.9" width="25.81" height="25.81"/><rect class="cls-8" x="335.48" y="387.09" width="25.81" height="25.81"/><rect class="cls-8" x="335.48" y="361.29" width="25.81" height="25.8"/><rect class="cls-8" x="335.48" y="335.48" width="25.81" height="25.81"/><rect class="cls-1" x="335.48" y="309.68" width="25.81" height="25.8"/><rect class="cls-5" x="335.48" y="283.87" width="25.81" height="25.81"/><rect class="cls-8" x="335.48" y="258.06" width="25.81" height="25.81"/><rect class="cls-8" x="335.48" y="232.2599" width="25.81" height="25.8"/><rect class="cls-4" x="335.48" y="206.45" width="25.81" height="25.81"/><rect class="cls-6" x="335.48" y="180.64" width="25.81" height="25.81"/><rect class="cls-8" x="335.48" y="154.84" width="25.81" height="25.8"/><rect class="cls-6" x="335.48" y="129.03" width="25.81" height="25.81"/><rect class="cls-8" x="335.48" y="103.22" width="25.81" height="25.81"/><rect class="cls-8" x="335.48" y="77.42" width="25.81" height="25.8"/><rect class="cls-8" x="335.48" y="51.61" width="25.81" height="25.81"/><rect class="cls-4" x="335.48" y="25.8" width="25.81" height="25.81"/><rect class="cls-5" x="335.48" width="25.81" height="25.8"/><rect class="cls-2" x="309.67" y="541.93" width="25.81" height="25.81"/><rect class="cls-4" x="309.67" y="516.13" width="25.81" height="25.8"/><rect class="cls-7" x="309.67" y="490.3199" width="25.81" height="25.8101"/><rect class="cls-7" x="309.67" y="464.5099" width="25.81" height="25.81"/><rect class="cls-7" x="309.67" y="438.71" width="25.81" height="25.8"/><rect class="cls-8" x="309.67" y="412.9" width="25.81" height="25.81"/><rect class="cls-8" x="309.67" y="387.09" width="25.81" height="25.81"/><rect class="cls-1" x="309.67" y="361.29" width="25.81" height="25.8"/><rect class="cls-2" x="309.67" y="335.48" width="25.81" height="25.81"/><rect class="cls-8" x="309.67" y="309.68" width="25.81" height="25.8"/><rect class="cls-4" x="309.67" y="283.87" width="25.81" height="25.81"/><rect class="cls-6" x="309.67" y="258.06" width="25.81" height="25.81"/><rect class="cls-8" x="309.67" y="232.2599" width="25.81" height="25.8"/><rect class="cls-8" x="309.67" y="206.45" width="25.81" height="25.81"/><rect class="cls-3" x="309.67" y="180.64" width="25.81" height="25.81"/><rect class="cls-3" x="309.67" y="154.84" width="25.81" height="25.8"/><rect class="cls-4" x="309.67" y="129.03" width="25.81" height="25.81"/><rect class="cls-8" x="309.67" y="103.22" width="25.81" height="25.81"/><rect class="cls-8" x="309.67" y="77.42" width="25.81" height="25.8"/><rect class="cls-8" x="309.67" y="51.61" width="25.81" height="25.81"/><rect class="cls-6" x="309.67" y="25.8" width="25.81" height="25.81"/><rect class="cls-6" x="309.67" width="25.81" height="25.8"/><rect class="cls-2" x="283.87" y="541.93" width="25.8" height="25.81"/><rect class="cls-4" x="283.87" y="516.13" width="25.8" height="25.8"/><rect class="cls-7" x="283.87" y="490.3199" width="25.8" height="25.8101"/><rect class="cls-4" x="283.87" y="464.5099" width="25.8" height="25.81"/><rect class="cls-3" x="283.87" y="438.71" width="25.8" height="25.8"/><rect class="cls-3" x="283.87" y="412.9" width="25.8" height="25.81"/><rect class="cls-2" x="283.87" y="387.09" width="25.8" height="25.81"/><rect class="cls-3" x="283.87" y="361.29" width="25.8" height="25.8"/><rect class="cls-8" x="283.87" y="335.48" width="25.8" height="25.81"/><rect class="cls-8" x="283.87" y="309.68" width="25.8" height="25.8"/><rect class="cls-8" x="283.87" y="283.87" width="25.8" height="25.81"/><rect class="cls-2" x="283.87" y="258.06" width="25.8" height="25.81"/><rect class="cls-4" x="283.87" y="232.2599" width="25.8" height="25.8"/><rect class="cls-4" x="283.87" y="206.45" width="25.8" height="25.81"/><rect class="cls-2" x="283.87" y="180.64" width="25.8" height="25.81"/><rect class="cls-3" x="283.87" y="154.84" width="25.8" height="25.8"/><rect class="cls-3" x="283.87" y="129.03" width="25.8" height="25.81"/><rect class="cls-4" x="283.87" y="103.22" width="25.8" height="25.81"/><rect class="cls-5" x="283.87" y="77.42" width="25.8" height="25.8"/><rect class="cls-8" x="283.87" y="51.61" width="25.8" height="25.81"/><rect class="cls-6" x="283.87" y="25.8" width="25.8" height="25.81"/><rect class="cls-4" x="283.87" width="25.8" height="25.8"/><rect class="cls-2" x="258.06" y="541.93" width="25.81" height="25.81"/><rect class="cls-3" x="258.06" y="516.13" width="25.81" height="25.8"/><rect class="cls-7" x="258.06" y="490.3199" width="25.81" height="25.8101"/><rect class="cls-6" x="258.06" y="464.5099" width="25.81" height="25.81"/><rect class="cls-4" x="258.06" y="438.71" width="25.81" height="25.8"/><rect class="cls-3" x="258.06" y="412.9" width="25.81" height="25.81"/><rect class="cls-3" x="258.06" y="387.09" width="25.81" height="25.81"/><rect class="cls-4" x="258.06" y="361.29" width="25.81" height="25.8"/><rect class="cls-8" x="258.06" y="335.48" width="25.81" height="25.81"/><rect class="cls-8" x="258.06" y="309.68" width="25.81" height="25.8"/><rect class="cls-8" x="258.06" y="283.87" width="25.81" height="25.81"/><rect class="cls-2" x="258.06" y="258.06" width="25.81" height="25.81"/><rect class="cls-3" x="258.06" y="232.2599" width="25.81" height="25.8"/><rect class="cls-2" x="258.06" y="206.45" width="25.81" height="25.81"/><rect class="cls-1" x="258.06" y="180.64" width="25.81" height="25.81"/><rect class="cls-2" x="258.06" y="154.84" width="25.81" height="25.8"/><rect class="cls-3" x="258.06" y="129.03" width="25.81" height="25.81"/><rect class="cls-3" x="258.06" y="103.22" width="25.81" height="25.81"/><rect class="cls-4" x="258.06" y="77.42" width="25.81" height="25.8"/><rect class="cls-8" x="258.06" y="51.61" width="25.81" height="25.81"/><rect class="cls-4" x="258.06" y="25.8" width="25.81" height="25.81"/><rect class="cls-4" x="258.06" width="25.81" height="25.8"/><rect class="cls-2" x="232.25" y="541.93" width="25.81" height="25.81"/><rect class="cls-3" x="232.25" y="516.13" width="25.81" height="25.8"/><rect class="cls-7" x="232.25" y="490.3199" width="25.81" height="25.8101"/><rect class="cls-7" x="232.25" y="464.5099" width="25.81" height="25.81"/><rect class="cls-7" x="232.25" y="438.71" width="25.81" height="25.8"/><rect class="cls-8" x="232.25" y="412.9" width="25.81" height="25.81"/><rect class="cls-8" x="232.25" y="387.09" width="25.81" height="25.81"/><rect class="cls-2" x="232.25" y="361.29" width="25.81" height="25.8"/><rect class="cls-2" x="232.25" y="335.48" width="25.81" height="25.81"/><rect class="cls-8" x="232.25" y="309.68" width="25.81" height="25.8"/><rect class="cls-4" x="232.25" y="283.87" width="25.81" height="25.81"/><rect class="cls-5" x="232.25" y="258.06" width="25.81" height="25.81"/><rect class="cls-8" x="232.25" y="232.2599" width="25.81" height="25.8"/><rect class="cls-8" x="232.25" y="206.45" width="25.81" height="25.81"/><rect class="cls-1" x="232.25" y="180.64" width="25.81" height="25.81"/><rect class="cls-4" x="232.25" y="154.84" width="25.81" height="25.8"/><rect class="cls-4" x="232.25" y="129.03" width="25.81" height="25.81"/><rect class="cls-8" x="232.25" y="103.22" width="25.81" height="25.81"/><rect class="cls-8" x="232.25" y="77.42" width="25.81" height="25.8"/><rect class="cls-8" x="232.25" y="51.61" width="25.81" height="25.81"/><rect class="cls-4" x="232.25" y="25.8" width="25.81" height="25.81"/><rect class="cls-4" x="232.25" width="25.81" height="25.8"/><rect class="cls-2" x="206.45" y="541.93" width="25.8" height="25.81"/><rect class="cls-3" x="206.45" y="516.13" width="25.8" height="25.8"/><rect class="cls-7" x="206.45" y="490.3199" width="25.8" height="25.8101"/><rect class="cls-7" x="206.45" y="464.5099" width="25.8" height="25.81"/><rect class="cls-7" x="206.45" y="438.71" width="25.8" height="25.8"/><rect class="cls-8" x="206.45" y="412.9" width="25.8" height="25.81"/><rect class="cls-8" x="206.45" y="387.09" width="25.8" height="25.81"/><rect class="cls-8" x="206.45" y="361.29" width="25.8" height="25.8"/><rect class="cls-8" x="206.45" y="335.48" width="25.8" height="25.81"/><rect class="cls-2" x="206.45" y="309.68" width="25.8" height="25.8"/><rect class="cls-6" x="206.45" y="283.87" width="25.8" height="25.81"/><rect class="cls-8" x="206.45" y="258.06" width="25.8" height="25.81"/><rect class="cls-8" x="206.45" y="232.2599" width="25.8" height="25.8"/><rect class="cls-2" x="206.45" y="206.45" width="25.8" height="25.81"/><rect class="cls-6" x="206.45" y="180.64" width="25.8" height="25.81"/><rect class="cls-8" x="206.45" y="154.84" width="25.8" height="25.8"/><rect class="cls-5" x="206.45" y="129.03" width="25.8" height="25.81"/><rect class="cls-8" x="206.45" y="103.22" width="25.8" height="25.81"/><rect class="cls-8" x="206.45" y="77.42" width="25.8" height="25.8"/><rect class="cls-7" x="206.45" y="51.61" width="25.8" height="25.81"/><rect class="cls-6" x="206.45" y="25.8" width="25.8" height="25.81"/><rect class="cls-4" x="206.45" width="25.8" height="25.8"/><rect class="cls-2" x="180.64" y="541.93" width="25.81" height="25.81"/><rect class="cls-3" x="180.64" y="516.13" width="25.81" height="25.8"/><rect class="cls-7" x="180.64" y="490.3199" width="25.81" height="25.8101"/><rect class="cls-7" x="180.64" y="464.5099" width="25.81" height="25.81"/><rect class="cls-7" x="180.64" y="438.71" width="25.81" height="25.8"/><rect class="cls-7" x="180.64" y="412.9" width="25.81" height="25.81"/><rect class="cls-8" x="180.64" y="387.09" width="25.81" height="25.81"/><rect class="cls-8" x="180.64" y="361.29" width="25.81" height="25.8"/><rect class="cls-8" x="180.64" y="335.48" width="25.81" height="25.81"/><rect class="cls-8" x="180.64" y="309.68" width="25.81" height="25.8"/><rect class="cls-3" x="180.64" y="283.87" width="25.81" height="25.81"/><rect class="cls-8" x="180.64" y="258.06" width="25.81" height="25.81"/><rect class="cls-8" x="180.64" y="232.2599" width="25.81" height="25.8"/><rect class="cls-4" x="180.64" y="206.45" width="25.81" height="25.81"/><rect class="cls-8" x="180.64" y="180.64" width="25.81" height="25.81"/><rect class="cls-8" x="180.64" y="154.84" width="25.81" height="25.8"/><rect class="cls-8" x="180.64" y="129.03" width="25.81" height="25.81"/><rect class="cls-6" x="180.64" y="103.22" width="25.81" height="25.81"/><rect class="cls-7" x="180.64" y="77.42" width="25.81" height="25.8"/><rect class="cls-7" x="180.64" y="51.61" width="25.81" height="25.81"/><rect class="cls-4" x="180.64" y="25.8" width="25.81" height="25.81"/><rect class="cls-6" x="180.64" width="25.81" height="25.8"/><rect class="cls-2" x="154.84" y="541.93" width="25.8" height="25.81"/><rect class="cls-2" x="154.84" y="516.13" width="25.8" height="25.8"/><rect class="cls-7" x="154.84" y="490.3199" width="25.8" height="25.8101"/><rect class="cls-7" x="154.84" y="464.5099" width="25.8" height="25.81"/><rect class="cls-7" x="154.84" y="438.71" width="25.8" height="25.8"/><rect class="cls-7" x="154.84" y="412.9" width="25.8" height="25.81"/><rect class="cls-8" x="154.84" y="387.09" width="25.8" height="25.81"/><rect class="cls-8" x="154.84" y="361.29" width="25.8" height="25.8"/><rect class="cls-8" x="154.84" y="335.48" width="25.8" height="25.81"/><rect class="cls-8" x="154.84" y="309.68" width="25.8" height="25.8"/><rect class="cls-8" x="154.84" y="283.87" width="25.8" height="25.81"/><rect class="cls-8" x="154.84" y="258.06" width="25.8" height="25.81"/><rect class="cls-3" x="154.84" y="232.2599" width="25.8" height="25.8"/><rect class="cls-8" x="154.84" y="206.45" width="25.8" height="25.81"/><rect class="cls-8" x="154.84" y="180.64" width="25.8" height="25.81"/><rect class="cls-8" x="154.84" y="154.84" width="25.8" height="25.8"/><rect class="cls-8" x="154.84" y="129.03" width="25.8" height="25.81"/><rect class="cls-8" x="154.84" y="103.22" width="25.8" height="25.81"/><rect class="cls-7" x="154.84" y="77.42" width="25.8" height="25.8"/><rect class="cls-7" x="154.84" y="51.61" width="25.8" height="25.81"/><rect class="cls-4" x="154.84" y="25.8" width="25.8" height="25.81"/><rect class="cls-6" x="154.84" width="25.8" height="25.8"/><rect class="cls-2" x="129.03" y="541.93" width="25.81" height="25.81"/><rect class="cls-2" x="129.03" y="516.13" width="25.81" height="25.8"/><rect class="cls-7" x="129.03" y="490.3199" width="25.81" height="25.8101"/><rect class="cls-7" x="129.03" y="464.5099" width="25.81" height="25.81"/><rect class="cls-7" x="129.03" y="438.71" width="25.81" height="25.8"/><rect class="cls-7" x="129.03" y="412.9" width="25.81" height="25.81"/><rect class="cls-7" x="129.03" y="387.09" width="25.81" height="25.81"/><rect class="cls-8" x="129.03" y="361.29" width="25.81" height="25.8"/><rect class="cls-8" x="129.03" y="335.48" width="25.81" height="25.81"/><rect class="cls-8" x="129.03" y="309.68" width="25.81" height="25.8"/><rect class="cls-8" x="129.03" y="283.87" width="25.81" height="25.81"/><rect class="cls-8" x="129.03" y="258.06" width="25.81" height="25.81"/><rect class="cls-8" x="129.03" y="232.2599" width="25.81" height="25.8"/><rect class="cls-8" x="129.03" y="206.45" width="25.81" height="25.81"/><rect class="cls-8" x="129.03" y="180.64" width="25.81" height="25.81"/><rect class="cls-8" x="129.03" y="154.84" width="25.81" height="25.8"/><rect class="cls-8" x="129.03" y="129.03" width="25.81" height="25.81"/><rect class="cls-7" x="129.03" y="103.22" width="25.81" height="25.81"/><rect class="cls-7" x="129.03" y="77.42" width="25.81" height="25.8"/><rect class="cls-7" x="129.03" y="51.61" width="25.81" height="25.81"/><rect class="cls-4" x="129.03" y="25.8" width="25.81" height="25.81"/><rect class="cls-5" x="129.03" width="25.81" height="25.8"/><rect class="cls-1" x="103.22" y="541.93" width="25.81" height="25.81"/><rect class="cls-2" x="103.22" y="516.13" width="25.81" height="25.8"/><rect class="cls-7" x="103.22" y="490.3199" width="25.81" height="25.8101"/><rect class="cls-7" x="103.22" y="464.5099" width="25.81" height="25.81"/><rect class="cls-7" x="103.22" y="438.71" width="25.81" height="25.8"/><rect class="cls-7" x="103.22" y="412.9" width="25.81" height="25.81"/><rect class="cls-7" x="103.22" y="387.09" width="25.81" height="25.81"/><rect class="cls-7" x="103.22" y="361.29" width="25.81" height="25.8"/><rect class="cls-8" x="103.22" y="335.48" width="25.81" height="25.81"/><rect class="cls-8" x="103.22" y="309.68" width="25.81" height="25.8"/><rect class="cls-8" x="103.22" y="283.87" width="25.81" height="25.81"/><rect class="cls-8" x="103.22" y="258.06" width="25.81" height="25.81"/><rect class="cls-8" x="103.22" y="232.2599" width="25.81" height="25.8"/><rect class="cls-8" x="103.22" y="206.45" width="25.81" height="25.81"/><rect class="cls-8" x="103.22" y="180.64" width="25.81" height="25.81"/><rect class="cls-8" x="103.22" y="154.84" width="25.81" height="25.8"/><rect class="cls-7" x="103.22" y="129.03" width="25.81" height="25.81"/><rect class="cls-7" x="103.22" y="103.22" width="25.81" height="25.81"/><rect class="cls-7" x="103.22" y="77.42" width="25.81" height="25.8"/><rect class="cls-7" x="103.22" y="51.61" width="25.81" height="25.81"/><rect class="cls-6" x="103.22" y="25.8" width="25.81" height="25.81"/><rect class="cls-5" x="103.22" width="25.81" height="25.8"/><rect class="cls-1" x="77.42" y="541.93" width="25.8" height="25.81"/><rect class="cls-1" x="77.42" y="516.13" width="25.8" height="25.8"/><rect class="cls-7" x="77.42" y="490.3199" width="25.8" height="25.8101"/><rect class="cls-7" x="77.42" y="464.5099" width="25.8" height="25.81"/><rect class="cls-7" x="77.42" y="438.71" width="25.8" height="25.8"/><rect class="cls-7" x="77.42" y="412.9" width="25.8" height="25.81"/><rect class="cls-7" x="77.42" y="387.09" width="25.8" height="25.81"/><rect class="cls-7" x="77.42" y="361.29" width="25.8" height="25.8"/><rect class="cls-7" x="77.42" y="335.48" width="25.8" height="25.81"/><rect class="cls-7" x="77.42" y="309.68" width="25.8" height="25.8"/><rect class="cls-8" x="77.42" y="283.87" width="25.8" height="25.81"/><rect class="cls-8" x="77.42" y="258.06" width="25.8" height="25.81"/><rect class="cls-8" x="77.42" y="232.2599" width="25.8" height="25.8"/><rect class="cls-8" x="77.42" y="206.45" width="25.8" height="25.81"/><rect class="cls-8" x="77.42" y="180.64" width="25.8" height="25.81"/><rect class="cls-7" x="77.42" y="154.84" width="25.8" height="25.8"/><rect class="cls-7" x="77.42" y="129.03" width="25.8" height="25.81"/><rect class="cls-7" x="77.42" y="103.22" width="25.8" height="25.81"/><rect class="cls-7" x="77.42" y="77.42" width="25.8" height="25.8"/><rect class="cls-7" x="77.42" y="51.61" width="25.8" height="25.81"/><rect class="cls-4" x="77.42" y="25.8" width="25.8" height="25.81"/><rect class="cls-5" x="77.42" width="25.8" height="25.8"/><rect class="cls-1" x="51.61" y="541.93" width="25.81" height="25.81"/><rect class="cls-2" x="51.61" y="516.13" width="25.81" height="25.8"/><rect class="cls-2" x="51.61" y="490.3199" width="25.81" height="25.8101"/><rect class="cls-7" x="51.61" y="464.5099" width="25.81" height="25.81"/><rect class="cls-7" x="51.61" y="438.71" width="25.81" height="25.8"/><rect class="cls-7" x="51.61" y="412.9" width="25.81" height="25.81"/><rect class="cls-7" x="51.61" y="387.09" width="25.81" height="25.81"/><rect class="cls-7" x="51.61" y="361.29" width="25.81" height="25.8"/><rect class="cls-7" x="51.61" y="335.48" width="25.81" height="25.81"/><rect class="cls-7" x="51.61" y="309.68" width="25.81" height="25.8"/><rect class="cls-7" x="51.61" y="283.87" width="25.81" height="25.81"/><rect class="cls-8" x="51.61" y="258.06" width="25.81" height="25.81"/><rect class="cls-8" x="51.61" y="232.2599" width="25.81" height="25.8"/><rect class="cls-8" x="51.61" y="206.45" width="25.81" height="25.81"/><rect class="cls-7" x="51.61" y="180.64" width="25.81" height="25.81"/><rect class="cls-7" x="51.61" y="154.84" width="25.81" height="25.8"/><rect class="cls-7" x="51.61" y="129.03" width="25.81" height="25.81"/><rect class="cls-7" x="51.61" y="103.22" width="25.81" height="25.81"/><rect class="cls-7" x="51.61" y="77.42" width="25.81" height="25.8"/><rect class="cls-4" x="51.61" y="51.61" width="25.81" height="25.81"/><rect class="cls-4" x="51.61" y="25.8" width="25.81" height="25.81"/><rect class="cls-6" x="51.61" width="25.81" height="25.8"/><rect class="cls-1" x="25.8" y="541.93" width="25.81" height="25.81"/><rect class="cls-2" x="25.8" y="516.13" width="25.81" height="25.8"/><rect class="cls-1" x="25.8" y="490.3199" width="25.81" height="25.8101"/><rect class="cls-1" x="25.8" y="464.5099" width="25.81" height="25.81"/><rect class="cls-2" x="25.8" y="438.71" width="25.81" height="25.8"/><rect class="cls-2" x="25.8" y="412.9" width="25.81" height="25.81"/><rect class="cls-2" x="25.8" y="387.09" width="25.81" height="25.81"/><rect class="cls-2" x="25.8" y="361.29" width="25.81" height="25.8"/><rect class="cls-2" x="25.8" y="335.48" width="25.81" height="25.81"/><rect class="cls-2" x="25.8" y="309.68" width="25.81" height="25.8"/><rect class="cls-3" x="25.8" y="283.87" width="25.81" height="25.81"/><rect class="cls-3" x="25.8" y="258.06" width="25.81" height="25.81"/><rect class="cls-2" x="25.8" y="232.2599" width="25.81" height="25.8"/><rect class="cls-3" x="25.8" y="206.45" width="25.81" height="25.81"/><rect class="cls-3" x="25.8" y="180.64" width="25.81" height="25.81"/><rect class="cls-4" x="25.8" y="154.84" width="25.81" height="25.8"/><rect class="cls-4" x="25.8" y="129.03" width="25.81" height="25.81"/><rect class="cls-4" x="25.8" y="103.22" width="25.81" height="25.81"/><rect class="cls-4" x="25.8" y="77.42" width="25.81" height="25.8"/><rect class="cls-6" x="25.8" y="51.61" width="25.81" height="25.81"/><rect class="cls-6" x="25.8" y="25.8" width="25.81" height="25.81"/><rect class="cls-6" x="25.8" width="25.81" height="25.8"/><rect class="cls-2" y="516.13" width="25.8" height="25.8"/><rect class="cls-1" y="490.3199" width="25.8" height="25.8101"/><rect class="cls-2" y="464.5099" width="25.8" height="25.81"/><rect class="cls-2" y="438.71" width="25.8" height="25.8"/><rect class="cls-2" y="412.9" width="25.8" height="25.81"/><rect class="cls-3" y="387.09" width="25.8" height="25.81"/><rect class="cls-3" y="361.29" width="25.8" height="25.8"/><rect class="cls-3" y="335.48" width="25.8" height="25.81"/><rect class="cls-2" y="309.68" width="25.8" height="25.8"/><rect class="cls-2" y="283.87" width="25.8" height="25.81"/><rect class="cls-2" y="258.06" width="25.8" height="25.81"/><rect class="cls-3" y="232.2599" width="25.8" height="25.8"/><rect class="cls-3" y="206.45" width="25.8" height="25.81"/><rect class="cls-3" y="180.64" width="25.8" height="25.81"/><rect class="cls-3" y="154.84" width="25.8" height="25.8"/><rect class="cls-4" y="129.03" width="25.8" height="25.81"/><rect class="cls-4" y="103.22" width="25.8" height="25.81"/><rect class="cls-4" y="77.42" width="25.8" height="25.8"/><rect class="cls-4" y="51.61" width="25.8" height="25.81"/><rect class="cls-6" y="25.8" width="25.8" height="25.81"/></g></g></svg>