<svg xmlns="http://www.w3.org/2000/svg" viewBox="0 0 335.49 722.58"><defs><style>.cls-1{fill:#a280a1;}.cls-2{fill:#232c42;}.cls-3{fill:#927374;}.cls-4{fill:#6e3865;}.cls-5{fill:#a69a93;}.cls-6{fill:#ebd2e6;}.cls-7{fill:#394258;}.cls-8{fill:#846484;}.cls-9{fill:#603913;}.cls-10{fill:#b3b3b3;}.cls-11{fill:#5c575a;}.cls-12{fill:#b0b9d6;}.cls-13{fill:#58445c;}.cls-14{fill:#7a573d;}.cls-15{fill:#f8f8f9;}.cls-16{fill:#5d3856;}.cls-17{fill:#6b6769;}.cls-18{fill:#666;}.cls-19{fill:#f2f2f2;}.cls-20{fill:#1a1a1a;}.cls-21{fill:#562851;}</style></defs><title>haseo_akalid</title><g id="Layer_2" data-name="Layer 2"><g id="grid"><rect class="cls-1" x="309.68" y="258.06" width="25.81" height="25.81"/><rect class="cls-2" x="309.68" y="180.64" width="25.81" height="25.81"/><rect class="cls-2" x="309.68" y="154.84" width="25.81" height="25.8"/><rect class="cls-2" x="309.68" y="51.61" width="25.81" height="25.81"/><rect class="cls-3" x="309.68" y="25.81" width="25.81" height="25.8"/><rect class="cls-2" x="309.68" width="25.81" height="25.81"/><rect class="cls-4" x="283.87" y="541.93" width="25.81" height="25.81"/><rect class="cls-4" x="283.87" y="516.13" width="25.81" height="25.8"/><rect class="cls-4" x="283.87" y="490.32" width="25.81" height="25.81"/><rect class="cls-4" x="283.87" y="464.52" width="25.81" height="25.8"/><rect class="cls-4" x="283.87" y="438.71" width="25.81" height="25.81"/><rect class="cls-4" x="283.87" y="412.9" width="25.81" height="25.81"/><rect class="cls-4" x="283.87" y="387.1" width="25.81" height="25.8"/><rect class="cls-5" x="283.87" y="361.29" width="25.81" height="25.81"/><rect class="cls-5" x="283.87" y="335.48" width="25.81" height="25.81"/><rect class="cls-1" x="283.87" y="283.87" width="25.81" height="25.81"/><rect class="cls-6" x="283.87" y="258.06" width="25.81" height="25.81"/><rect class="cls-2" x="283.87" y="232.26" width="25.81" height="25.8"/><rect class="cls-2" x="283.87" y="206.45" width="25.81" height="25.81"/><rect class="cls-2" x="283.87" y="180.64" width="25.81" height="25.81"/><rect class="cls-2" x="283.87" y="154.84" width="25.81" height="25.8"/><rect class="cls-2" x="283.87" y="129.03" width="25.81" height="25.81"/><rect class="cls-2" x="283.87" y="103.23" width="25.81" height="25.8"/><rect class="cls-2" x="283.87" y="77.42" width="25.81" height="25.81"/><rect class="cls-3" x="283.87" y="51.61" width="25.81" height="25.81"/><rect class="cls-7" x="283.87" y="25.81" width="25.81" height="25.8"/><rect class="cls-2" x="283.87" width="25.81" height="25.81"/><rect class="cls-4" x="258.07" y="541.93" width="25.8" height="25.81"/><rect class="cls-4" x="258.07" y="516.13" width="25.8" height="25.8"/><rect class="cls-4" x="258.07" y="490.32" width="25.8" height="25.81"/><rect class="cls-4" x="258.07" y="464.52" width="25.8" height="25.8"/><rect class="cls-4" x="258.07" y="438.71" width="25.8" height="25.81"/><rect class="cls-4" x="258.07" y="412.9" width="25.8" height="25.81"/><rect class="cls-4" x="258.07" y="387.1" width="25.8" height="25.8"/><rect class="cls-5" x="258.07" y="361.29" width="25.8" height="25.81"/><rect class="cls-5" x="258.07" y="335.48" width="25.8" height="25.81"/><rect class="cls-5" x="258.07" y="309.68" width="25.8" height="25.8"/><rect class="cls-8" x="258.07" y="283.87" width="25.8" height="25.81"/><rect class="cls-2" x="258.07" y="258.06" width="25.8" height="25.81"/><rect class="cls-2" x="258.07" y="232.26" width="25.8" height="25.8"/><rect class="cls-2" x="258.07" y="206.45" width="25.8" height="25.81"/><rect class="cls-2" x="258.07" y="180.64" width="25.8" height="25.81"/><rect class="cls-2" x="258.07" y="154.84" width="25.8" height="25.8"/><rect class="cls-2" x="258.07" y="129.03" width="25.8" height="25.81"/><rect class="cls-2" x="258.07" y="103.23" width="25.8" height="25.8"/><rect class="cls-2" x="258.07" y="77.42" width="25.8" height="25.81"/><rect class="cls-7" x="258.07" y="51.61" width="25.8" height="25.81"/><rect class="cls-2" x="258.07" y="25.81" width="25.8" height="25.8"/><rect class="cls-2" x="258.07" width="25.8" height="25.81"/><rect class="cls-9" x="232.26" y="696.77" width="25.81" height="25.81"/><rect class="cls-10" x="232.26" y="670.97" width="25.81" height="25.8"/><rect class="cls-10" x="232.26" y="645.16" width="25.81" height="25.8101"/><rect class="cls-9" x="232.26" y="619.35" width="25.81" height="25.81"/><rect class="cls-11" x="232.26" y="593.55" width="25.81" height="25.8"/><rect class="cls-11" x="232.26" y="567.74" width="25.81" height="25.81"/><rect class="cls-11" x="232.26" y="541.93" width="25.81" height="25.81"/><rect class="cls-11" x="232.26" y="516.13" width="25.81" height="25.8"/><rect class="cls-12" x="232.26" y="490.32" width="25.81" height="25.81"/><rect class="cls-12" x="232.26" y="464.52" width="25.81" height="25.8"/><rect class="cls-11" x="232.26" y="438.71" width="25.81" height="25.81"/><rect class="cls-11" x="232.26" y="412.9" width="25.81" height="25.81"/><rect class="cls-11" x="232.26" y="387.1" width="25.81" height="25.8"/><rect class="cls-11" x="232.26" y="361.29" width="25.81" height="25.81"/><rect class="cls-5" x="232.26" y="335.48" width="25.81" height="25.81"/><rect class="cls-8" x="232.26" y="309.68" width="25.81" height="25.8"/><rect class="cls-2" x="232.26" y="283.87" width="25.81" height="25.81"/><rect class="cls-2" x="232.26" y="258.06" width="25.81" height="25.81"/><rect class="cls-2" x="232.26" y="232.26" width="25.81" height="25.8"/><rect class="cls-2" x="232.26" y="206.45" width="25.81" height="25.81"/><rect class="cls-7" x="232.26" y="180.64" width="25.81" height="25.81"/><rect class="cls-7" x="232.26" y="154.84" width="25.81" height="25.8"/><rect class="cls-2" x="232.26" y="129.03" width="25.81" height="25.81"/><rect class="cls-2" x="232.26" y="103.23" width="25.81" height="25.8"/><rect class="cls-13" x="232.26" y="77.42" width="25.81" height="25.81"/><rect class="cls-2" x="232.26" y="51.61" width="25.81" height="25.81"/><rect class="cls-2" x="232.26" y="25.81" width="25.81" height="25.8"/><rect class="cls-14" x="206.45" y="696.77" width="25.81" height="25.81"/><rect class="cls-15" x="206.45" y="670.97" width="25.81" height="25.8"/><rect class="cls-14" x="206.45" y="645.16" width="25.81" height="25.8101"/><rect class="cls-14" x="206.45" y="619.35" width="25.81" height="25.81"/><rect class="cls-5" x="206.45" y="593.55" width="25.81" height="25.8"/><rect class="cls-5" x="206.45" y="567.74" width="25.81" height="25.81"/><rect class="cls-11" x="206.45" y="541.93" width="25.81" height="25.81"/><rect class="cls-16" x="206.45" y="516.13" width="25.81" height="25.8"/><rect class="cls-15" x="206.45" y="490.32" width="25.81" height="25.81"/><rect class="cls-5" x="206.45" y="464.52" width="25.81" height="25.8"/><rect class="cls-5" x="206.45" y="438.71" width="25.81" height="25.81"/><rect class="cls-16" x="206.45" y="412.9" width="25.81" height="25.81"/><rect class="cls-16" x="206.45" y="387.1" width="25.81" height="25.8"/><rect class="cls-5" x="206.45" y="361.29" width="25.81" height="25.81"/><rect class="cls-11" x="206.45" y="335.48" width="25.81" height="25.81"/><rect class="cls-2" x="206.45" y="309.68" width="25.81" height="25.8"/><rect class="cls-2" x="206.45" y="283.87" width="25.81" height="25.81"/><rect class="cls-2" x="206.45" y="258.06" width="25.81" height="25.81"/><rect class="cls-7" x="206.45" y="232.26" width="25.81" height="25.8"/><rect class="cls-7" x="206.45" y="206.45" width="25.81" height="25.81"/><rect class="cls-7" x="206.45" y="180.64" width="25.81" height="25.81"/><rect class="cls-2" x="206.45" y="154.84" width="25.81" height="25.8"/><rect class="cls-2" x="206.45" y="129.03" width="25.81" height="25.81"/><rect class="cls-13" x="206.45" y="103.23" width="25.81" height="25.8"/><rect class="cls-2" x="206.45" y="77.42" width="25.81" height="25.81"/><rect class="cls-7" x="206.45" y="51.61" width="25.81" height="25.81"/><rect class="cls-2" x="206.45" y="25.81" width="25.81" height="25.8"/><rect class="cls-2" x="206.45" width="25.81" height="25.81"/><rect class="cls-14" x="180.65" y="696.77" width="25.8" height="25.81"/><rect class="cls-15" x="180.65" y="670.97" width="25.8" height="25.8"/><rect class="cls-15" x="180.65" y="645.16" width="25.8" height="25.8101"/><rect class="cls-14" x="180.65" y="619.35" width="25.8" height="25.81"/><rect class="cls-5" x="180.65" y="593.55" width="25.8" height="25.8"/><rect class="cls-5" x="180.65" y="567.74" width="25.8" height="25.81"/><rect class="cls-16" x="180.65" y="541.93" width="25.8" height="25.81"/><rect class="cls-16" x="180.65" y="516.13" width="25.8" height="25.8"/><rect class="cls-16" x="180.65" y="490.32" width="25.8" height="25.81"/><rect class="cls-5" x="180.65" y="464.52" width="25.8" height="25.8"/><rect class="cls-5" x="180.65" y="438.71" width="25.8" height="25.81"/><rect class="cls-16" x="180.65" y="412.9" width="25.8" height="25.81"/><rect class="cls-16" x="180.65" y="387.1" width="25.8" height="25.8"/><rect class="cls-5" x="180.65" y="361.29" width="25.8" height="25.81"/><rect class="cls-5" x="180.65" y="335.48" width="25.8" height="25.81"/><rect class="cls-2" x="180.65" y="309.68" width="25.8" height="25.8"/><rect class="cls-8" x="180.65" y="283.87" width="25.8" height="25.81"/><rect class="cls-2" x="180.65" y="258.06" width="25.8" height="25.81"/><rect class="cls-7" x="180.65" y="232.26" width="25.8" height="25.8"/><rect class="cls-7" x="180.65" y="206.45" width="25.8" height="25.81"/><rect class="cls-7" x="180.65" y="180.64" width="25.8" height="25.81"/><rect class="cls-2" x="180.65" y="154.84" width="25.8" height="25.8"/><rect class="cls-13" x="180.65" y="129.03" width="25.8" height="25.81"/><rect class="cls-2" x="180.65" y="103.23" width="25.8" height="25.8"/><rect class="cls-7" x="180.65" y="77.42" width="25.8" height="25.81"/><rect class="cls-7" x="180.65" y="51.61" width="25.8" height="25.81"/><rect class="cls-7" x="180.65" y="25.81" width="25.8" height="25.8"/><rect class="cls-2" x="180.65" width="25.8" height="25.81"/><rect class="cls-16" x="154.84" y="567.74" width="25.81" height="25.81"/><rect class="cls-12" x="154.84" y="541.93" width="25.81" height="25.81"/><rect class="cls-16" x="154.84" y="516.13" width="25.81" height="25.8"/><rect class="cls-5" x="154.84" y="490.32" width="25.81" height="25.81"/><rect class="cls-5" x="154.84" y="464.52" width="25.81" height="25.8"/><rect class="cls-5" x="154.84" y="438.71" width="25.81" height="25.81"/><rect class="cls-11" x="154.84" y="412.9" width="25.81" height="25.81"/><rect class="cls-16" x="154.84" y="387.1" width="25.81" height="25.8"/><rect class="cls-16" x="154.84" y="361.29" width="25.81" height="25.81"/><rect class="cls-5" x="154.84" y="335.48" width="25.81" height="25.81"/><rect class="cls-8" x="154.84" y="309.68" width="25.81" height="25.8"/><rect class="cls-8" x="154.84" y="283.87" width="25.81" height="25.81"/><rect class="cls-11" x="154.84" y="258.06" width="25.81" height="25.81"/><rect class="cls-11" x="154.84" y="232.26" width="25.81" height="25.8"/><rect class="cls-11" x="154.84" y="206.45" width="25.81" height="25.81"/><rect class="cls-11" x="154.84" y="180.64" width="25.81" height="25.81"/><rect class="cls-11" x="154.84" y="154.84" width="25.81" height="25.8"/><rect class="cls-11" x="154.84" y="129.03" width="25.81" height="25.81"/><rect class="cls-11" x="154.84" y="103.23" width="25.81" height="25.8"/><rect class="cls-2" x="154.84" y="77.42" width="25.81" height="25.81"/><rect class="cls-7" x="154.84" y="51.61" width="25.81" height="25.81"/><rect class="cls-2" x="154.84" y="25.81" width="25.81" height="25.8"/><rect class="cls-2" x="154.84" width="25.81" height="25.81"/><rect class="cls-9" x="129.04" y="696.77" width="25.8" height="25.81"/><rect class="cls-10" x="129.04" y="670.97" width="25.8" height="25.8"/><rect class="cls-10" x="129.04" y="645.16" width="25.8" height="25.8101"/><rect class="cls-9" x="129.04" y="619.35" width="25.8" height="25.81"/><rect class="cls-11" x="129.04" y="593.55" width="25.8" height="25.8"/><rect class="cls-12" x="129.04" y="567.74" width="25.8" height="25.81"/><rect class="cls-16" x="129.04" y="541.93" width="25.8" height="25.81"/><rect class="cls-12" x="129.04" y="516.13" width="25.8" height="25.8"/><rect class="cls-5" x="129.04" y="490.32" width="25.8" height="25.81"/><rect class="cls-5" x="129.04" y="464.52" width="25.8" height="25.8"/><rect class="cls-5" x="129.04" y="438.71" width="25.8" height="25.81"/><rect class="cls-11" x="129.04" y="412.9" width="25.8" height="25.81"/><rect class="cls-16" x="129.04" y="387.1" width="25.8" height="25.8"/><rect class="cls-16" x="129.04" y="361.29" width="25.8" height="25.81"/><rect class="cls-17" x="129.04" y="335.48" width="25.8" height="25.81"/><rect class="cls-18" x="129.04" y="309.68" width="25.8" height="25.8"/><rect class="cls-5" x="129.04" y="283.87" width="25.8" height="25.81"/><rect class="cls-11" x="129.04" y="258.06" width="25.8" height="25.81"/><rect class="cls-5" x="129.04" y="232.26" width="25.8" height="25.8"/><rect class="cls-5" x="129.04" y="206.45" width="25.8" height="25.81"/><rect class="cls-5" x="129.04" y="180.64" width="25.8" height="25.81"/><rect x="129.04" y="154.84" width="25.8" height="25.8"/><rect class="cls-2" x="129.04" y="129.03" width="25.8" height="25.81"/><rect class="cls-2" x="129.04" y="103.23" width="25.8" height="25.8"/><rect class="cls-13" x="129.04" y="77.42" width="25.8" height="25.81"/><rect class="cls-13" x="129.04" y="51.61" width="25.8" height="25.81"/><rect class="cls-13" x="129.04" y="25.81" width="25.8" height="25.8"/><rect class="cls-2" x="129.04" width="25.8" height="25.81"/><rect class="cls-14" x="103.23" y="696.77" width="25.81" height="25.81"/><rect class="cls-15" x="103.23" y="670.97" width="25.81" height="25.8"/><rect class="cls-14" x="103.23" y="645.16" width="25.81" height="25.8101"/><rect class="cls-14" x="103.23" y="619.35" width="25.81" height="25.81"/><rect class="cls-5" x="103.23" y="593.55" width="25.81" height="25.8"/><rect class="cls-11" x="103.23" y="567.74" width="25.81" height="25.81"/><rect class="cls-16" x="103.23" y="541.93" width="25.81" height="25.81"/><rect class="cls-16" x="103.23" y="516.13" width="25.81" height="25.8"/><rect class="cls-16" x="103.23" y="490.32" width="25.81" height="25.81"/><rect class="cls-5" x="103.23" y="464.52" width="25.81" height="25.8"/><rect class="cls-5" x="103.23" y="438.71" width="25.81" height="25.81"/><rect class="cls-16" x="103.23" y="412.9" width="25.81" height="25.81"/><rect class="cls-16" x="103.23" y="387.1" width="25.81" height="25.8"/><rect class="cls-5" x="103.23" y="361.29" width="25.81" height="25.81"/><rect class="cls-5" x="103.23" y="335.48" width="25.81" height="25.81"/><rect class="cls-8" x="103.23" y="309.68" width="25.81" height="25.8"/><rect class="cls-8" x="103.23" y="283.87" width="25.81" height="25.81"/><rect class="cls-5" x="103.23" y="258.06" width="25.81" height="25.81"/><rect class="cls-5" x="103.23" y="232.26" width="25.81" height="25.8"/><rect class="cls-5" x="103.23" y="206.45" width="25.81" height="25.81"/><rect class="cls-19" x="103.23" y="180.64" width="25.81" height="25.81"/><rect class="cls-10" x="103.23" y="154.84" width="25.81" height="25.8"/><rect x="103.23" y="129.03" width="25.81" height="25.81"/><rect class="cls-2" x="103.23" y="103.23" width="25.81" height="25.8"/><rect class="cls-13" x="103.23" y="77.42" width="25.81" height="25.81"/><rect class="cls-7" x="103.23" y="51.61" width="25.81" height="25.81"/><rect class="cls-2" x="103.23" y="25.81" width="25.81" height="25.8"/><rect class="cls-2" x="103.23" width="25.81" height="25.81"/><rect class="cls-14" x="77.42" y="696.77" width="25.81" height="25.81"/><rect class="cls-15" x="77.42" y="670.97" width="25.81" height="25.8"/><rect class="cls-15" x="77.42" y="645.16" width="25.81" height="25.8101"/><rect class="cls-14" x="77.42" y="619.35" width="25.81" height="25.81"/><rect class="cls-5" x="77.42" y="593.55" width="25.81" height="25.8"/><rect class="cls-5" x="77.42" y="567.74" width="25.81" height="25.81"/><rect class="cls-11" x="77.42" y="541.93" width="25.81" height="25.81"/><rect class="cls-16" x="77.42" y="516.13" width="25.81" height="25.8"/><rect class="cls-15" x="77.42" y="490.32" width="25.81" height="25.81"/><rect class="cls-5" x="77.42" y="464.52" width="25.81" height="25.8"/><rect class="cls-5" x="77.42" y="438.71" width="25.81" height="25.81"/><rect class="cls-16" x="77.42" y="412.9" width="25.81" height="25.81"/><rect class="cls-16" x="77.42" y="387.1" width="25.81" height="25.8"/><rect class="cls-5" x="77.42" y="361.29" width="25.81" height="25.81"/><rect class="cls-5" x="77.42" y="335.48" width="25.81" height="25.81"/><rect class="cls-8" x="77.42" y="309.68" width="25.81" height="25.8"/><rect class="cls-8" x="77.42" y="283.87" width="25.81" height="25.81"/><rect class="cls-20" x="77.42" y="258.06" width="25.81" height="25.81"/><rect class="cls-5" x="77.42" y="232.26" width="25.81" height="25.8"/><rect class="cls-5" x="77.42" y="206.45" width="25.81" height="25.81"/><rect class="cls-6" x="77.42" y="180.64" width="25.81" height="25.81"/><rect class="cls-1" x="77.42" y="154.84" width="25.81" height="25.8"/><rect x="77.42" y="129.03" width="25.81" height="25.81"/><rect class="cls-2" x="77.42" y="103.23" width="25.81" height="25.8"/><rect class="cls-13" x="77.42" y="77.42" width="25.81" height="25.81"/><rect class="cls-2" x="77.42" y="51.61" width="25.81" height="25.81"/><rect class="cls-13" x="77.42" y="25.81" width="25.81" height="25.8"/><rect class="cls-7" x="77.42" width="25.81" height="25.81"/><rect class="cls-21" x="51.62" y="516.13" width="25.8" height="25.8"/><rect class="cls-12" x="51.62" y="490.32" width="25.8" height="25.81"/><rect class="cls-12" x="51.62" y="464.52" width="25.8" height="25.8"/><rect class="cls-21" x="51.62" y="438.71" width="25.8" height="25.81"/><rect class="cls-21" x="51.62" y="412.9" width="25.8" height="25.81"/><rect class="cls-21" x="51.62" y="387.1" width="25.8" height="25.8"/><rect class="cls-11" x="51.62" y="361.29" width="25.8" height="25.81"/><rect class="cls-11" x="51.62" y="335.48" width="25.8" height="25.81"/><rect class="cls-5" x="51.62" y="309.68" width="25.8" height="25.8"/><rect class="cls-8" x="51.62" y="283.87" width="25.8" height="25.81"/><rect class="cls-20" x="51.62" y="258.06" width="25.8" height="25.81"/><rect class="cls-20" x="51.62" y="232.26" width="25.8" height="25.8"/><rect class="cls-5" x="51.62" y="206.45" width="25.8" height="25.81"/><rect class="cls-5" x="51.62" y="180.64" width="25.8" height="25.81"/><rect class="cls-5" x="51.62" y="154.84" width="25.8" height="25.8"/><rect class="cls-11" x="51.62" y="129.03" width="25.8" height="25.81"/><rect class="cls-13" x="51.62" y="103.23" width="25.8" height="25.8"/><rect class="cls-2" x="51.62" y="77.42" width="25.8" height="25.81"/><rect class="cls-13" x="51.62" y="51.61" width="25.8" height="25.81"/><rect class="cls-7" x="51.62" y="25.81" width="25.8" height="25.8"/><rect class="cls-7" x="51.62" width="25.8" height="25.81"/><rect class="cls-4" x="25.81" y="516.13" width="25.81" height="25.8"/><rect class="cls-4" x="25.81" y="490.32" width="25.81" height="25.81"/><rect class="cls-4" x="25.81" y="464.52" width="25.81" height="25.8"/><rect class="cls-4" x="25.81" y="438.71" width="25.81" height="25.81"/><rect class="cls-4" x="25.81" y="412.9" width="25.81" height="25.81"/><rect class="cls-4" x="25.81" y="387.1" width="25.81" height="25.8"/><rect class="cls-5" x="25.81" y="361.29" width="25.81" height="25.81"/><rect class="cls-5" x="25.81" y="335.48" width="25.81" height="25.81"/><rect class="cls-1" x="25.81" y="283.87" width="25.81" height="25.81"/><rect class="cls-6" x="25.81" y="258.06" width="25.81" height="25.81"/><rect class="cls-20" x="25.81" y="206.45" width="25.81" height="25.81"/><rect class="cls-20" x="25.81" y="180.64" width="25.81" height="25.81"/><rect class="cls-20" x="25.81" y="154.84" width="25.81" height="25.8"/><rect class="cls-20" x="25.81" y="129.03" width="25.81" height="25.81"/><rect class="cls-2" x="25.81" y="103.23" width="25.81" height="25.8"/><rect class="cls-13" x="25.81" y="77.42" width="25.81" height="25.81"/><rect class="cls-7" x="25.81" y="51.61" width="25.81" height="25.81"/><rect class="cls-7" x="25.81" y="25.81" width="25.81" height="25.8"/><rect class="cls-1" y="258.06" width="25.81" height="25.81"/><rect class="cls-2" y="103.23" width="25.81" height="25.8"/><rect class="cls-7" y="77.42" width="25.81" height="25.81"/><rect class="cls-7" y="51.61" width="25.81" height="25.81"/></g></g></svg>