<svg xmlns="http://www.w3.org/2000/svg" viewBox="0 0 722.58002 748.38"><defs><style>.cls-1{fill:#e6e6e6;}.cls-2{fill:#ed1c24;}</style></defs><g id="Layer_2" data-name="Layer 2"><g id="grid"><rect class="cls-1" x="696.77002" y="490.32001" width="25.81" height="25.81"/><rect class="cls-1" x="696.77002" y="464.51001" width="25.81" height="25.81"/><rect class="cls-1" x="696.77002" y="438.70996" width="25.81" height="25.80005"/><rect class="cls-1" x="670.96002" y="490.32001" width="25.81" height="25.81"/><rect class="cls-1" x="670.96002" y="464.51001" width="25.81" height="25.81"/><rect class="cls-1" x="670.96002" y="154.83997" width="25.81" height="25.80005"/><rect class="cls-1" x="670.96002" y="129.02997" width="25.81" height="25.81"/><rect class="cls-1" x="645.15997" y="516.13" width="25.80005" height="25.79999"/><rect class="cls-1" x="645.15997" y="490.32001" width="25.80005" height="25.81"/><rect class="cls-1" x="645.15997" y="154.83997" width="25.80005" height="25.80005"/><rect class="cls-1" x="619.34998" y="541.92999" width="25.81" height="25.81"/><rect class="cls-1" x="619.34998" y="516.13" width="25.81" height="25.79999"/><rect class="cls-1" x="619.34998" y="490.32001" width="25.81" height="25.81"/><rect class="cls-1" x="619.34998" y="361.28998" width="25.81" height="25.79999"/><rect class="cls-1" x="619.34998" y="309.66998" width="25.81" height="25.81"/><rect class="cls-1" x="619.34998" y="206.45001" width="25.81" height="25.79999"/><rect class="cls-1" x="619.34998" y="180.64001" width="25.81" height="25.81"/><rect class="cls-1" x="593.53998" y="567.73999" width="25.81" height="25.79999"/><rect class="cls-1" x="593.53998" y="541.92999" width="25.81" height="25.81"/><rect class="cls-1" x="593.53998" y="516.13" width="25.81" height="25.79999"/><rect class="cls-1" x="593.53998" y="490.32001" width="25.81" height="25.81"/><rect class="cls-1" x="593.53998" y="464.51001" width="25.81" height="25.81"/><rect class="cls-1" x="593.53998" y="438.70996" width="25.81" height="25.80005"/><rect class="cls-1" x="593.53998" y="412.89996" width="25.81" height="25.81"/><rect class="cls-1" x="593.53998" y="387.08997" width="25.81" height="25.81"/><rect class="cls-1" x="593.53998" y="361.28998" width="25.81" height="25.79999"/><rect class="cls-1" x="593.53998" y="335.47998" width="25.81" height="25.81"/><rect class="cls-1" x="593.53998" y="309.66998" width="25.81" height="25.81"/><rect class="cls-1" x="593.53998" y="283.87" width="25.81" height="25.79999"/><rect class="cls-1" x="593.53998" y="258.06" width="25.81" height="25.81"/><rect class="cls-1" x="593.53998" y="232.25" width="25.81" height="25.81"/><rect class="cls-1" x="593.53998" y="206.45001" width="25.81" height="25.79999"/><rect class="cls-1" x="593.53998" y="25.79999" width="25.81" height="25.81"/><rect class="cls-1" x="593.53998" width="25.81" height="25.79999"/><rect class="cls-1" x="567.73999" y="645.15997" width="25.79999" height="25.79999"/><rect class="cls-1" x="567.73999" y="567.73999" width="25.79999" height="25.79999"/><rect class="cls-1" x="567.73999" y="541.92999" width="25.79999" height="25.81"/><rect class="cls-1" x="567.73999" y="516.13" width="25.79999" height="25.79999"/><rect class="cls-1" x="567.73999" y="490.32001" width="25.79999" height="25.81"/><rect class="cls-1" x="567.73999" y="464.51001" width="25.79999" height="25.81"/><rect class="cls-1" x="567.73999" y="438.70996" width="25.79999" height="25.80005"/><rect class="cls-1" x="567.73999" y="412.89996" width="25.79999" height="25.81"/><rect class="cls-1" x="567.73999" y="387.08997" width="25.79999" height="25.81"/><rect class="cls-1" x="567.73999" y="361.28998" width="25.79999" height="25.79999"/><rect class="cls-1" x="567.73999" y="335.47998" width="25.79999" height="25.81"/><rect class="cls-1" x="567.73999" y="309.66998" width="25.79999" height="25.81"/><rect class="cls-1" x="567.73999" y="283.87" width="25.79999" height="25.79999"/><rect class="cls-1" x="567.73999" y="258.06" width="25.79999" height="25.81"/><rect class="cls-1" x="567.73999" y="232.25" width="25.79999" height="25.81"/><rect class="cls-1" x="567.73999" y="206.45001" width="25.79999" height="25.79999"/><rect class="cls-1" x="567.73999" y="51.60999" width="25.79999" height="25.81"/><rect class="cls-1" x="567.73999" y="25.79999" width="25.79999" height="25.81"/><rect class="cls-1" x="541.92999" y="645.15997" width="25.81" height="25.79999"/><rect class="cls-1" x="541.92999" y="619.34998" width="25.81" height="25.81"/><rect class="cls-1" x="541.92999" y="593.53998" width="25.81" height="25.81"/><rect class="cls-1" x="541.92999" y="567.73999" width="25.81" height="25.79999"/><rect class="cls-1" x="541.92999" y="541.92999" width="25.81" height="25.81"/><rect class="cls-1" x="541.92999" y="309.66998" width="25.81" height="25.81"/><rect class="cls-1" x="541.92999" y="283.87" width="25.81" height="25.79999"/><rect class="cls-1" x="541.92999" y="258.06" width="25.81" height="25.81"/><rect class="cls-1" x="541.92999" y="232.25" width="25.81" height="25.81"/><rect class="cls-1" x="541.92999" y="206.45001" width="25.81" height="25.79999"/><rect class="cls-1" x="541.92999" y="180.64001" width="25.81" height="25.81"/><rect class="cls-1" x="541.92999" y="77.41998" width="25.81" height="25.79999"/><rect class="cls-1" x="541.92999" y="51.60999" width="25.81" height="25.81"/><rect class="cls-1" x="541.92999" y="25.79999" width="25.81" height="25.81"/><rect class="cls-1" x="516.13" y="670.95996" width="25.79999" height="25.81"/><rect class="cls-1" x="516.13" y="645.15997" width="25.79999" height="25.79999"/><rect class="cls-1" x="516.13" y="619.34998" width="25.79999" height="25.81"/><rect class="cls-1" x="516.13" y="593.53998" width="25.79999" height="25.81"/><rect class="cls-1" x="516.13" y="567.73999" width="25.79999" height="25.79999"/><rect class="cls-2" x="516.13" y="361.28998" width="25.79999" height="25.79999"/><rect class="cls-2" x="516.13" y="335.47998" width="25.79999" height="25.81"/><rect class="cls-1" x="516.13" y="283.87" width="25.79999" height="25.79999"/><rect class="cls-1" x="516.13" y="258.06" width="25.79999" height="25.81"/><rect class="cls-1" x="516.13" y="232.25" width="25.79999" height="25.81"/><rect class="cls-1" x="516.13" y="206.45001" width="25.79999" height="25.79999"/><rect class="cls-1" x="516.13" y="77.41998" width="25.79999" height="25.79999"/><rect class="cls-1" x="516.13" y="51.60999" width="25.79999" height="25.81"/><rect class="cls-1" x="516.13" y="25.79999" width="25.79999" height="25.81"/><rect class="cls-1" x="490.32001" y="696.76996" width="25.81" height="25.81006"/><rect class="cls-1" x="490.32001" y="670.95996" width="25.81" height="25.81"/><rect class="cls-1" x="490.32001" y="645.15997" width="25.81" height="25.79999"/><rect class="cls-1" x="490.32001" y="619.34998" width="25.81" height="25.81"/><rect class="cls-2" x="490.32001" y="438.70996" width="25.81" height="25.80005"/><rect class="cls-2" x="490.32001" y="412.89996" width="25.81" height="25.81"/><rect class="cls-2" x="490.32001" y="387.08997" width="25.81" height="25.81"/><rect class="cls-2" x="490.32001" y="361.28998" width="25.81" height="25.79999"/><rect class="cls-2" x="490.32001" y="335.47998" width="25.81" height="25.81"/><rect class="cls-1" x="490.32001" y="258.06" width="25.81" height="25.81"/><rect class="cls-1" x="490.32001" y="232.25" width="25.81" height="25.81"/><rect class="cls-1" x="490.32001" y="206.45001" width="25.81" height="25.79999"/><rect class="cls-1" x="490.32001" y="180.64001" width="25.81" height="25.81"/><rect class="cls-1" x="490.32001" y="154.83997" width="25.81" height="25.80005"/><rect class="cls-1" x="490.32001" y="77.41998" width="25.81" height="25.79999"/><rect class="cls-1" x="490.32001" y="51.60999" width="25.81" height="25.81"/><rect class="cls-1" x="464.51001" y="722.58002" width="25.81" height="25.79999"/><rect class="cls-1" x="464.51001" y="696.76996" width="25.81" height="25.81006"/><rect class="cls-1" x="464.51001" y="670.95996" width="25.81" height="25.81"/><rect class="cls-1" x="464.51001" y="645.15997" width="25.81" height="25.79999"/><rect class="cls-2" x="464.51001" y="490.32001" width="25.81" height="25.81"/><rect class="cls-2" x="464.51001" y="464.51001" width="25.81" height="25.81"/><rect class="cls-2" x="464.51001" y="438.70996" width="25.81" height="25.80005"/><rect class="cls-2" x="464.51001" y="412.89996" width="25.81" height="25.81"/><rect class="cls-2" x="464.51001" y="387.08997" width="25.81" height="25.81"/><rect class="cls-1" x="464.51001" y="232.25" width="25.81" height="25.81"/><rect class="cls-1" x="464.51001" y="206.45001" width="25.81" height="25.79999"/><rect class="cls-1" x="464.51001" y="180.64001" width="25.81" height="25.81"/><rect class="cls-1" x="464.51001" y="77.41998" width="25.81" height="25.79999"/><rect class="cls-1" x="464.51001" y="51.60999" width="25.81" height="25.81"/><rect class="cls-1" x="438.71002" y="722.58002" width="25.79999" height="25.79999"/><rect class="cls-1" x="438.71002" y="696.76996" width="25.79999" height="25.81006"/><rect class="cls-1" x="438.71002" y="670.95996" width="25.79999" height="25.81"/><rect class="cls-1" x="438.71002" y="645.15997" width="25.79999" height="25.79999"/><rect class="cls-2" x="438.71002" y="541.92999" width="25.79999" height="25.81"/><rect class="cls-2" x="438.71002" y="516.13" width="25.79999" height="25.79999"/><rect class="cls-2" x="438.71002" y="490.32001" width="25.79999" height="25.81"/><rect class="cls-2" x="438.71002" y="464.51001" width="25.79999" height="25.81"/><rect class="cls-2" x="438.71002" y="438.70996" width="25.79999" height="25.80005"/><rect class="cls-1" x="438.71002" y="232.25" width="25.79999" height="25.81"/><rect class="cls-1" x="438.71002" y="206.45001" width="25.79999" height="25.79999"/><rect class="cls-1" x="438.71002" y="180.64001" width="25.79999" height="25.81"/><rect class="cls-1" x="438.71002" y="77.41998" width="25.79999" height="25.79999"/><rect class="cls-1" x="438.71002" y="51.60999" width="25.79999" height="25.81"/><rect class="cls-1" x="412.90002" y="696.76996" width="25.81" height="25.81006"/><rect class="cls-1" x="412.90002" y="670.95996" width="25.81" height="25.81"/><rect class="cls-2" x="412.90002" y="541.92999" width="25.81" height="25.81"/><rect class="cls-2" x="412.90002" y="516.13" width="25.81" height="25.79999"/><rect class="cls-2" x="412.90002" y="490.32001" width="25.81" height="25.81"/><rect class="cls-2" x="412.90002" y="464.51001" width="25.81" height="25.81"/><rect class="cls-2" x="412.90002" y="438.70996" width="25.81" height="25.80005"/><rect class="cls-2" x="412.90002" y="412.89996" width="25.81" height="25.81"/><rect class="cls-1" x="412.90002" y="206.45001" width="25.81" height="25.79999"/><rect class="cls-1" x="412.90002" y="180.64001" width="25.81" height="25.81"/><rect class="cls-1" x="412.90002" y="103.21997" width="25.81" height="25.81"/><rect class="cls-1" x="412.90002" y="77.41998" width="25.81" height="25.79999"/><rect class="cls-1" x="387.09003" y="696.76996" width="25.81" height="25.81006"/><rect class="cls-1" x="387.09003" y="670.95996" width="25.81" height="25.81"/><rect class="cls-2" x="387.09003" y="464.51001" width="25.81" height="25.81"/><rect class="cls-2" x="387.09003" y="438.70996" width="25.81" height="25.80005"/><rect class="cls-2" x="387.09003" y="412.89996" width="25.81" height="25.81"/><rect class="cls-2" x="387.09003" y="387.08997" width="25.81" height="25.81"/><rect class="cls-2" x="387.09003" y="361.28998" width="25.81" height="25.79999"/><rect class="cls-1" x="387.09003" y="206.45001" width="25.81" height="25.79999"/><rect class="cls-1" x="387.09003" y="180.64001" width="25.81" height="25.81"/><rect class="cls-1" x="387.09003" y="154.83997" width="25.81" height="25.80005"/><rect class="cls-1" x="387.09003" y="129.02997" width="25.81" height="25.81"/><rect class="cls-1" x="387.09003" y="103.21997" width="25.81" height="25.81"/><rect class="cls-1" x="361.28998" y="696.76996" width="25.80005" height="25.81006"/><rect class="cls-1" x="361.28998" y="670.95996" width="25.80005" height="25.81"/><rect class="cls-2" x="361.28998" y="387.08997" width="25.80005" height="25.81"/><rect class="cls-2" x="361.28998" y="361.28998" width="25.80005" height="25.79999"/><rect class="cls-2" x="361.28998" y="335.47998" width="25.80005" height="25.81"/><rect class="cls-1" x="361.28998" y="206.45001" width="25.80005" height="25.79999"/><rect class="cls-1" x="361.28998" y="180.64001" width="25.80005" height="25.81"/><rect class="cls-1" x="361.28998" y="154.83997" width="25.80005" height="25.80005"/><rect class="cls-1" x="361.28998" y="129.02997" width="25.80005" height="25.81"/><rect class="cls-1" x="361.28998" y="103.21997" width="25.80005" height="25.81"/><rect class="cls-1" x="335.47998" y="722.58002" width="25.81" height="25.79999"/><rect class="cls-1" x="335.47998" y="696.76996" width="25.81" height="25.81006"/><rect class="cls-1" x="335.47998" y="670.95996" width="25.81" height="25.81"/><rect class="cls-2" x="335.47998" y="619.34998" width="25.81" height="25.81"/><rect class="cls-2" x="335.47998" y="593.53998" width="25.81" height="25.81"/><rect class="cls-2" x="335.47998" y="567.73999" width="25.81" height="25.79999"/><rect class="cls-2" x="335.47998" y="541.92999" width="25.81" height="25.81"/><rect class="cls-2" x="335.47998" y="516.13" width="25.81" height="25.79999"/><rect class="cls-2" x="335.47998" y="490.32001" width="25.81" height="25.81"/><rect class="cls-2" x="335.47998" y="464.51001" width="25.81" height="25.81"/><rect class="cls-2" x="335.47998" y="438.70996" width="25.81" height="25.80005"/><rect class="cls-2" x="335.47998" y="412.89996" width="25.81" height="25.81"/><rect class="cls-2" x="335.47998" y="387.08997" width="25.81" height="25.81"/><rect class="cls-2" x="335.47998" y="361.28998" width="25.81" height="25.79999"/><rect class="cls-2" x="335.47998" y="335.47998" width="25.81" height="25.81"/><rect class="cls-2" x="335.47998" y="309.66998" width="25.81" height="25.81"/><rect class="cls-2" x="335.47998" y="283.87" width="25.81" height="25.79999"/><rect class="cls-2" x="335.47998" y="258.06" width="25.81" height="25.81"/><rect class="cls-1" x="335.47998" y="206.45001" width="25.81" height="25.79999"/><rect class="cls-1" x="335.47998" y="180.64001" width="25.81" height="25.81"/><rect class="cls-1" x="335.47998" y="154.83997" width="25.81" height="25.80005"/><rect class="cls-1" x="335.47998" y="129.02997" width="25.81" height="25.81"/><rect class="cls-1" x="335.47998" y="103.21997" width="25.81" height="25.81"/><rect class="cls-1" x="309.66998" y="722.58002" width="25.81" height="25.79999"/><rect class="cls-1" x="309.66998" y="696.76996" width="25.81" height="25.81006"/><rect class="cls-1" x="309.66998" y="670.95996" width="25.81" height="25.81"/><rect class="cls-2" x="309.66998" y="619.34998" width="25.81" height="25.81"/><rect class="cls-2" x="309.66998" y="593.53998" width="25.81" height="25.81"/><rect class="cls-2" x="309.66998" y="567.73999" width="25.81" height="25.79999"/><rect class="cls-2" x="309.66998" y="541.92999" width="25.81" height="25.81"/><rect class="cls-2" x="309.66998" y="516.13" width="25.81" height="25.79999"/><rect class="cls-2" x="309.66998" y="490.32001" width="25.81" height="25.81"/><rect class="cls-2" x="309.66998" y="464.51001" width="25.81" height="25.81"/><rect class="cls-2" x="309.66998" y="438.70996" width="25.81" height="25.80005"/><rect class="cls-2" x="309.66998" y="412.89996" width="25.81" height="25.81"/><rect class="cls-2" x="309.66998" y="387.08997" width="25.81" height="25.81"/><rect class="cls-2" x="309.66998" y="361.28998" width="25.81" height="25.79999"/><rect class="cls-2" x="309.66998" y="335.47998" width="25.81" height="25.81"/><rect class="cls-2" x="309.66998" y="309.66998" width="25.81" height="25.81"/><rect class="cls-2" x="309.66998" y="283.87" width="25.81" height="25.79999"/><rect class="cls-2" x="309.66998" y="258.06" width="25.81" height="25.81"/><rect class="cls-1" x="309.66998" y="206.45001" width="25.81" height="25.79999"/><rect class="cls-1" x="309.66998" y="180.64001" width="25.81" height="25.81"/><rect class="cls-1" x="309.66998" y="154.83997" width="25.81" height="25.80005"/><rect class="cls-1" x="309.66998" y="129.02997" width="25.81" height="25.81"/><rect class="cls-1" x="309.66998" y="103.21997" width="25.81" height="25.81"/><rect class="cls-1" x="283.87" y="696.76996" width="25.79999" height="25.81006"/><rect class="cls-1" x="283.87" y="670.95996" width="25.79999" height="25.81"/><rect class="cls-2" x="283.87" y="541.92999" width="25.79999" height="25.81"/><rect class="cls-2" x="283.87" y="516.13" width="25.79999" height="25.79999"/><rect class="cls-2" x="283.87" y="490.32001" width="25.79999" height="25.81"/><rect class="cls-2" x="283.87" y="464.51001" width="25.79999" height="25.81"/><rect class="cls-2" x="283.87" y="387.08997" width="25.79999" height="25.81"/><rect class="cls-2" x="283.87" y="361.28998" width="25.79999" height="25.79999"/><rect class="cls-2" x="283.87" y="335.47998" width="25.79999" height="25.81"/><rect class="cls-1" x="283.87" y="206.45001" width="25.79999" height="25.79999"/><rect class="cls-1" x="283.87" y="180.64001" width="25.79999" height="25.81"/><rect class="cls-1" x="283.87" y="154.83997" width="25.79999" height="25.80005"/><rect class="cls-1" x="258.06" y="696.76996" width="25.81" height="25.81006"/><rect class="cls-1" x="258.06" y="670.95996" width="25.81" height="25.81"/><rect class="cls-2" x="258.06" y="516.13" width="25.81" height="25.79999"/><rect class="cls-2" x="258.06" y="490.32001" width="25.81" height="25.81"/><rect class="cls-2" x="258.06" y="464.51001" width="25.81" height="25.81"/><rect class="cls-2" x="258.06" y="438.70996" width="25.81" height="25.80005"/><rect class="cls-2" x="258.06" y="412.89996" width="25.81" height="25.81"/><rect class="cls-2" x="258.06" y="387.08997" width="25.81" height="25.81"/><rect class="cls-2" x="258.06" y="361.28998" width="25.81" height="25.79999"/><rect class="cls-1" x="258.06" y="206.45001" width="25.81" height="25.79999"/><rect class="cls-1" x="258.06" y="180.64001" width="25.81" height="25.81"/><rect class="cls-1" x="232.25" y="722.58002" width="25.81" height="25.79999"/><rect class="cls-1" x="232.25" y="696.76996" width="25.81" height="25.81006"/><rect class="cls-1" x="232.25" y="670.95996" width="25.81" height="25.81"/><rect class="cls-1" x="232.25" y="645.15997" width="25.81" height="25.79999"/><rect class="cls-2" x="232.25" y="464.51001" width="25.81" height="25.81"/><rect class="cls-2" x="232.25" y="438.70996" width="25.81" height="25.80005"/><rect class="cls-2" x="232.25" y="412.89996" width="25.81" height="25.81"/><rect class="cls-2" x="232.25" y="387.08997" width="25.81" height="25.81"/><rect class="cls-1" x="232.25" y="206.45001" width="25.81" height="25.79999"/><rect class="cls-1" x="232.25" y="180.64001" width="25.81" height="25.81"/><rect class="cls-1" x="232.25" y="103.21997" width="25.81" height="25.81"/><rect class="cls-1" x="206.45001" y="722.58002" width="25.79999" height="25.79999"/><rect class="cls-1" x="206.45001" y="696.76996" width="25.79999" height="25.81006"/><rect class="cls-1" x="206.45001" y="670.95996" width="25.79999" height="25.81"/><rect class="cls-1" x="206.45001" y="645.15997" width="25.79999" height="25.79999"/><rect class="cls-2" x="206.45001" y="516.13" width="25.79999" height="25.79999"/><rect class="cls-2" x="206.45001" y="490.32001" width="25.79999" height="25.81"/><rect class="cls-2" x="206.45001" y="464.51001" width="25.79999" height="25.81"/><rect class="cls-2" x="206.45001" y="438.70996" width="25.79999" height="25.80005"/><rect class="cls-2" x="206.45001" y="412.89996" width="25.79999" height="25.81"/><rect class="cls-2" x="206.45001" y="387.08997" width="25.79999" height="25.81"/><rect class="cls-2" x="206.45001" y="361.28998" width="25.79999" height="25.79999"/><rect class="cls-1" x="206.45001" y="232.25" width="25.79999" height="25.81"/><rect class="cls-1" x="206.45001" y="206.45001" width="25.79999" height="25.79999"/><rect class="cls-1" x="206.45001" y="180.64001" width="25.79999" height="25.81"/><rect class="cls-1" x="206.45001" y="154.83997" width="25.79999" height="25.80005"/><rect class="cls-1" x="206.45001" y="129.02997" width="25.79999" height="25.81"/><rect class="cls-1" x="206.45001" y="103.21997" width="25.79999" height="25.81"/><rect class="cls-1" x="180.64001" y="670.95996" width="25.81" height="25.81"/><rect class="cls-1" x="180.64001" y="645.15997" width="25.81" height="25.79999"/><rect class="cls-1" x="180.64001" y="619.34998" width="25.81" height="25.81"/><rect class="cls-2" x="180.64001" y="541.92999" width="25.81" height="25.81"/><rect class="cls-2" x="180.64001" y="516.13" width="25.81" height="25.79999"/><rect class="cls-2" x="180.64001" y="490.32001" width="25.81" height="25.81"/><rect class="cls-2" x="180.64001" y="387.08997" width="25.81" height="25.81"/><rect class="cls-2" x="180.64001" y="361.28998" width="25.81" height="25.79999"/><rect class="cls-2" x="180.64001" y="335.47998" width="25.81" height="25.81"/><rect class="cls-1" x="180.64001" y="258.06" width="25.81" height="25.81"/><rect class="cls-1" x="180.64001" y="232.25" width="25.81" height="25.81"/><rect class="cls-1" x="180.64001" y="206.45001" width="25.81" height="25.79999"/><rect class="cls-1" x="180.64001" y="180.64001" width="25.81" height="25.81"/><rect class="cls-1" x="180.64001" y="154.83997" width="25.81" height="25.80005"/><rect class="cls-1" x="180.64001" y="129.02997" width="25.81" height="25.81"/><rect class="cls-1" x="180.64001" y="103.21997" width="25.81" height="25.81"/><rect class="cls-1" x="180.64001" y="77.41998" width="25.81" height="25.79999"/><rect class="cls-1" x="154.84003" y="670.95996" width="25.79999" height="25.81"/><rect class="cls-1" x="154.84003" y="645.15997" width="25.79999" height="25.79999"/><rect class="cls-1" x="154.84003" y="619.34998" width="25.79999" height="25.81"/><rect class="cls-1" x="154.84003" y="593.53998" width="25.79999" height="25.81"/><rect class="cls-2" x="154.84003" y="541.92999" width="25.79999" height="25.81"/><rect class="cls-2" x="154.84003" y="335.47998" width="25.79999" height="25.81"/><rect class="cls-1" x="154.84003" y="283.87" width="25.79999" height="25.79999"/><rect class="cls-1" x="154.84003" y="258.06" width="25.79999" height="25.81"/><rect class="cls-1" x="154.84003" y="232.25" width="25.79999" height="25.81"/><rect class="cls-1" x="154.84003" y="206.45001" width="25.79999" height="25.79999"/><rect class="cls-1" x="154.84003" y="180.64001" width="25.79999" height="25.81"/><rect class="cls-1" x="154.84003" y="154.83997" width="25.79999" height="25.80005"/><rect class="cls-1" x="154.84003" y="129.02997" width="25.79999" height="25.81"/><rect class="cls-1" x="129.03003" y="645.15997" width="25.81" height="25.79999"/><rect class="cls-1" x="129.03003" y="619.34998" width="25.81" height="25.81"/><rect class="cls-1" x="129.03003" y="593.53998" width="25.81" height="25.81"/><rect class="cls-1" x="129.03003" y="567.73999" width="25.81" height="25.79999"/><rect class="cls-1" x="129.03003" y="309.66998" width="25.81" height="25.81"/><rect class="cls-1" x="129.03003" y="283.87" width="25.81" height="25.79999"/><rect class="cls-1" x="129.03003" y="258.06" width="25.81" height="25.81"/><rect class="cls-1" x="129.03003" y="232.25" width="25.81" height="25.81"/><rect class="cls-1" x="129.03003" y="154.83997" width="25.81" height="25.80005"/><rect class="cls-1" x="103.22003" y="645.15997" width="25.81" height="25.79999"/><rect class="cls-1" x="103.22003" y="619.34998" width="25.81" height="25.81"/><rect class="cls-1" x="103.22003" y="593.53998" width="25.81" height="25.81"/><rect class="cls-1" x="103.22003" y="567.73999" width="25.81" height="25.79999"/><rect class="cls-1" x="103.22003" y="541.92999" width="25.81" height="25.81"/><rect class="cls-1" x="103.22003" y="516.13" width="25.81" height="25.79999"/><rect class="cls-1" x="103.22003" y="490.32001" width="25.81" height="25.81"/><rect class="cls-1" x="103.22003" y="464.51001" width="25.81" height="25.81"/><rect class="cls-1" x="103.22003" y="438.70996" width="25.81" height="25.80005"/><rect class="cls-1" x="103.22003" y="412.89996" width="25.81" height="25.81"/><rect class="cls-1" x="103.22003" y="387.08997" width="25.81" height="25.81"/><rect class="cls-1" x="103.22003" y="361.28998" width="25.81" height="25.79999"/><rect class="cls-1" x="103.22003" y="335.47998" width="25.81" height="25.81"/><rect class="cls-1" x="103.22003" y="309.66998" width="25.81" height="25.81"/><rect class="cls-1" x="103.22003" y="283.87" width="25.81" height="25.79999"/><rect class="cls-1" x="103.22003" y="258.06" width="25.81" height="25.81"/><rect class="cls-1" x="103.22003" y="232.25" width="25.81" height="25.81"/><rect class="cls-1" x="77.41998" y="645.15997" width="25.80005" height="25.79999"/><rect class="cls-1" x="77.41998" y="567.73999" width="25.80005" height="25.79999"/><rect class="cls-1" x="77.41998" y="541.92999" width="25.80005" height="25.81"/><rect class="cls-1" x="77.41998" y="516.13" width="25.80005" height="25.79999"/><rect class="cls-1" x="77.41998" y="490.32001" width="25.80005" height="25.81"/><rect class="cls-1" x="77.41998" y="464.51001" width="25.80005" height="25.81"/><rect class="cls-1" x="77.41998" y="438.70996" width="25.80005" height="25.80005"/><rect class="cls-1" x="77.41998" y="412.89996" width="25.80005" height="25.81"/><rect class="cls-1" x="77.41998" y="387.08997" width="25.80005" height="25.81"/><rect class="cls-1" x="77.41998" y="361.28998" width="25.80005" height="25.79999"/><rect class="cls-1" x="77.41998" y="335.47998" width="25.80005" height="25.81"/><rect class="cls-1" x="77.41998" y="309.66998" width="25.80005" height="25.81"/><rect class="cls-1" x="77.41998" y="283.87" width="25.80005" height="25.79999"/><rect class="cls-1" x="77.41998" y="258.06" width="25.80005" height="25.81"/><rect class="cls-1" x="51.60999" y="541.92999" width="25.81" height="25.81"/><rect class="cls-1" x="51.60999" y="516.13" width="25.81" height="25.79999"/><rect class="cls-1" x="51.60999" y="490.32001" width="25.81" height="25.81"/><rect class="cls-1" x="51.60999" y="464.51001" width="25.81" height="25.81"/><rect class="cls-1" x="51.60999" y="361.28998" width="25.81" height="25.79999"/><rect class="cls-1" x="51.60999" y="335.47998" width="25.81" height="25.81"/><rect class="cls-1" x="51.60999" y="283.87" width="25.81" height="25.79999"/><rect class="cls-1" x="51.60999" y="258.06" width="25.81" height="25.81"/><rect class="cls-1" x="25.79999" y="541.92999" width="25.81" height="25.81"/><rect class="cls-1" x="25.79999" y="516.13" width="25.81" height="25.79999"/><rect class="cls-1" x="25.79999" y="490.32001" width="25.81" height="25.81"/><rect class="cls-1" x="25.79999" y="283.87" width="25.81" height="25.79999"/><rect class="cls-1" x="25.79999" y="258.06" width="25.81" height="25.81"/><rect class="cls-1" x="25.79999" y="232.25" width="25.81" height="25.81"/><rect class="cls-1" y="516.13" width="25.79999" height="25.79999"/><rect class="cls-1" y="490.32001" width="25.79999" height="25.81"/></g></g></svg>