<svg xmlns="http://www.w3.org/2000/svg" viewBox="0 0 567.73999 567.73999"><defs><style>.cls-1{fill:#594118;}.cls-2{fill:#6d5126;}.cls-3{fill:#a67d38;}.cls-4{fill:#693317;}.cls-5{fill:#913c27;}.cls-6{fill:#b78e53;}.cls-7{fill:#a0523d;}.cls-8{fill:#f6da8b;}.cls-9{fill:#e2caa1;}.cls-10{fill:#ba7a6a;}.cls-11{fill:#cf9581;}</style></defs><g id="Layer_2" data-name="Layer 2"><g id="grid"><rect class="cls-1" x="541.92999" y="387.09998" width="25.81" height="25.79999"/><rect class="cls-2" x="541.92999" y="361.28998" width="25.81" height="25.81"/><rect class="cls-2" x="541.92999" y="335.48999" width="25.81" height="25.79999"/><rect class="cls-2" x="541.92999" y="309.67999" width="25.81" height="25.81"/><rect class="cls-2" x="541.92999" y="283.87" width="25.81" height="25.81"/><rect class="cls-1" x="541.92999" y="258.06995" width="25.81" height="25.80005"/><rect class="cls-1" x="541.92999" y="232.25995" width="25.81" height="25.81"/><rect class="cls-1" x="541.92999" y="206.44995" width="25.81" height="25.81"/><rect class="cls-1" x="541.92999" y="180.64996" width="25.81" height="25.79999"/><rect class="cls-1" x="516.13" y="412.89996" width="25.79999" height="25.81"/><rect class="cls-1" x="516.13" y="387.09998" width="25.79999" height="25.79999"/><rect class="cls-2" x="516.13" y="361.28998" width="25.79999" height="25.81"/><rect class="cls-2" x="516.13" y="335.48999" width="25.79999" height="25.79999"/><rect class="cls-3" x="516.13" y="309.67999" width="25.79999" height="25.81"/><rect class="cls-3" x="516.13" y="283.87" width="25.79999" height="25.81"/><rect class="cls-3" x="516.13" y="258.06995" width="25.79999" height="25.80005"/><rect class="cls-3" x="516.13" y="232.25995" width="25.79999" height="25.81"/><rect class="cls-3" x="516.13" y="206.44995" width="25.79999" height="25.81"/><rect class="cls-3" x="516.13" y="180.64996" width="25.79999" height="25.79999"/><rect class="cls-2" x="516.13" y="154.83997" width="25.79999" height="25.81"/><rect class="cls-1" x="516.13" y="129.02997" width="25.79999" height="25.81"/><rect class="cls-1" x="490.32001" y="438.70996" width="25.81" height="25.81"/><rect class="cls-2" x="490.32001" y="412.89996" width="25.81" height="25.81"/><rect class="cls-2" x="490.32001" y="387.09998" width="25.81" height="25.79999"/><rect class="cls-4" x="490.32001" y="361.28998" width="25.81" height="25.81"/><rect class="cls-4" x="490.32001" y="335.48999" width="25.81" height="25.79999"/><rect class="cls-4" x="490.32001" y="309.67999" width="25.81" height="25.81"/><rect class="cls-4" x="490.32001" y="283.87" width="25.81" height="25.81"/><rect class="cls-4" x="490.32001" y="258.06995" width="25.81" height="25.80005"/><rect class="cls-4" x="490.32001" y="232.25995" width="25.81" height="25.81"/><rect class="cls-4" x="490.32001" y="206.44995" width="25.81" height="25.81"/><rect class="cls-4" x="490.32001" y="180.64996" width="25.81" height="25.79999"/><rect class="cls-3" x="490.32001" y="154.83997" width="25.81" height="25.81"/><rect class="cls-2" x="490.32001" y="129.02997" width="25.81" height="25.81"/><rect class="cls-1" x="490.32001" y="103.22998" width="25.81" height="25.79999"/><rect class="cls-1" x="464.51001" y="464.51996" width="25.81" height="25.79999"/><rect class="cls-2" x="464.51001" y="438.70996" width="25.81" height="25.81"/><rect class="cls-2" x="464.51001" y="412.89996" width="25.81" height="25.81"/><rect class="cls-4" x="464.51001" y="387.09998" width="25.81" height="25.79999"/><rect class="cls-4" x="464.51001" y="361.28998" width="25.81" height="25.81"/><rect class="cls-4" x="464.51001" y="335.48999" width="25.81" height="25.79999"/><rect class="cls-1" x="464.51001" y="309.67999" width="25.81" height="25.81"/><rect class="cls-4" x="464.51001" y="283.87" width="25.81" height="25.81"/><rect class="cls-4" x="464.51001" y="258.06995" width="25.81" height="25.80005"/><rect class="cls-2" x="464.51001" y="232.25995" width="25.81" height="25.81"/><rect class="cls-4" x="464.51001" y="206.44995" width="25.81" height="25.81"/><rect class="cls-5" x="464.51001" y="180.64996" width="25.81" height="25.79999"/><rect class="cls-5" x="464.51001" y="154.83997" width="25.81" height="25.81"/><rect class="cls-3" x="464.51001" y="129.02997" width="25.81" height="25.81"/><rect class="cls-3" x="464.51001" y="103.22998" width="25.81" height="25.79999"/><rect class="cls-2" x="464.51001" y="77.41998" width="25.81" height="25.81"/><rect class="cls-1" x="438.71002" y="490.31995" width="25.79999" height="25.81"/><rect class="cls-2" x="438.71002" y="464.51996" width="25.79999" height="25.79999"/><rect class="cls-2" x="438.71002" y="438.70996" width="25.79999" height="25.81"/><rect class="cls-4" x="438.71002" y="412.89996" width="25.79999" height="25.81"/><rect class="cls-4" x="438.71002" y="387.09998" width="25.79999" height="25.79999"/><rect class="cls-4" x="438.71002" y="361.28998" width="25.79999" height="25.81"/><rect class="cls-3" x="438.71002" y="335.48999" width="25.79999" height="25.79999"/><rect class="cls-2" x="438.71002" y="309.67999" width="25.79999" height="25.81"/><rect class="cls-4" x="438.71002" y="283.87" width="25.79999" height="25.81"/><rect class="cls-4" x="438.71002" y="258.06995" width="25.79999" height="25.80005"/><rect class="cls-3" x="438.71002" y="232.25995" width="25.79999" height="25.81"/><rect class="cls-6" x="438.71002" y="206.44995" width="25.79999" height="25.81"/><rect class="cls-5" x="438.71002" y="180.64996" width="25.79999" height="25.79999"/><rect class="cls-5" x="438.71002" y="154.83997" width="25.79999" height="25.81"/><rect class="cls-5" x="438.71002" y="129.02997" width="25.79999" height="25.81"/><rect class="cls-3" x="438.71002" y="103.22998" width="25.79999" height="25.79999"/><rect class="cls-3" x="438.71002" y="77.41998" width="25.79999" height="25.81"/><rect class="cls-2" x="438.71002" y="51.60999" width="25.79999" height="25.81"/><rect class="cls-1" x="412.90002" y="516.12994" width="25.81" height="25.81006"/><rect class="cls-2" x="412.90002" y="490.31995" width="25.81" height="25.81"/><rect class="cls-2" x="412.90002" y="464.51996" width="25.81" height="25.79999"/><rect class="cls-4" x="412.90002" y="438.70996" width="25.81" height="25.81"/><rect class="cls-4" x="412.90002" y="412.89996" width="25.81" height="25.81"/><rect class="cls-4" x="412.90002" y="387.09998" width="25.81" height="25.79999"/><rect class="cls-4" x="412.90002" y="361.28998" width="25.81" height="25.81"/><rect class="cls-4" x="412.90002" y="335.48999" width="25.81" height="25.79999"/><rect class="cls-4" x="412.90002" y="309.67999" width="25.81" height="25.81"/><rect class="cls-2" x="412.90002" y="283.87" width="25.81" height="25.81"/><rect class="cls-6" x="412.90002" y="258.06995" width="25.81" height="25.80005"/><rect class="cls-5" x="412.90002" y="232.25995" width="25.81" height="25.81"/><rect class="cls-5" x="412.90002" y="206.44995" width="25.81" height="25.81"/><rect class="cls-5" x="412.90002" y="180.64996" width="25.81" height="25.79999"/><rect class="cls-7" x="412.90002" y="154.83997" width="25.81" height="25.81"/><rect class="cls-7" x="412.90002" y="129.02997" width="25.81" height="25.81"/><rect class="cls-7" x="412.90002" y="103.22998" width="25.81" height="25.79999"/><rect class="cls-3" x="412.90002" y="77.41998" width="25.81" height="25.81"/><rect class="cls-3" x="412.90002" y="51.60999" width="25.81" height="25.81"/><rect class="cls-2" x="412.90002" y="25.81" width="25.81" height="25.79999"/><rect class="cls-2" x="387.09003" y="516.12994" width="25.81" height="25.81006"/><rect class="cls-2" x="387.09003" y="490.31995" width="25.81" height="25.81"/><rect class="cls-4" x="387.09003" y="464.51996" width="25.81" height="25.79999"/><rect class="cls-4" x="387.09003" y="438.70996" width="25.81" height="25.81"/><rect class="cls-4" x="387.09003" y="412.89996" width="25.81" height="25.81"/><rect class="cls-4" x="387.09003" y="387.09998" width="25.81" height="25.79999"/><rect class="cls-4" x="387.09003" y="361.28998" width="25.81" height="25.81"/><rect class="cls-4" x="387.09003" y="335.48999" width="25.81" height="25.79999"/><rect class="cls-4" x="387.09003" y="309.67999" width="25.81" height="25.81"/><rect class="cls-6" x="387.09003" y="283.87" width="25.81" height="25.81"/><rect class="cls-8" x="387.09003" y="258.06995" width="25.81" height="25.80005"/><rect class="cls-5" x="387.09003" y="232.25995" width="25.81" height="25.81"/><rect class="cls-5" x="387.09003" y="206.44995" width="25.81" height="25.81"/><rect class="cls-5" x="387.09003" y="180.64996" width="25.81" height="25.79999"/><rect class="cls-7" x="387.09003" y="154.83997" width="25.81" height="25.81"/><rect class="cls-7" x="387.09003" y="129.02997" width="25.81" height="25.81"/><rect class="cls-7" x="387.09003" y="103.22998" width="25.81" height="25.79999"/><rect class="cls-7" x="387.09003" y="77.41998" width="25.81" height="25.81"/><rect class="cls-3" x="387.09003" y="51.60999" width="25.81" height="25.81"/><rect class="cls-3" x="387.09003" y="25.81" width="25.81" height="25.79999"/><rect class="cls-2" x="361.28998" y="541.94" width="25.80005" height="25.79999"/><rect class="cls-2" x="361.28998" y="516.12994" width="25.80005" height="25.81006"/><rect class="cls-4" x="361.28998" y="490.31995" width="25.80005" height="25.81"/><rect class="cls-4" x="361.28998" y="464.51996" width="25.80005" height="25.79999"/><rect class="cls-4" x="361.28998" y="438.70996" width="25.80005" height="25.81"/><rect class="cls-4" x="361.28998" y="412.89996" width="25.80005" height="25.81"/><rect class="cls-4" x="361.28998" y="387.09998" width="25.80005" height="25.79999"/><rect class="cls-4" x="361.28998" y="361.28998" width="25.80005" height="25.81"/><rect class="cls-3" x="361.28998" y="335.48999" width="25.80005" height="25.79999"/><rect class="cls-2" x="361.28998" y="309.67999" width="25.80005" height="25.81"/><rect class="cls-5" x="361.28998" y="283.87" width="25.80005" height="25.81"/><rect class="cls-5" x="361.28998" y="258.06995" width="25.80005" height="25.80005"/><rect class="cls-6" x="361.28998" y="232.25995" width="25.80005" height="25.81"/><rect class="cls-9" x="361.28998" y="206.44995" width="25.80005" height="25.81"/><rect class="cls-7" x="361.28998" y="180.64996" width="25.80005" height="25.79999"/><rect class="cls-7" x="361.28998" y="154.83997" width="25.80005" height="25.81"/><rect class="cls-7" x="361.28998" y="129.02997" width="25.80005" height="25.81"/><rect class="cls-7" x="361.28998" y="103.22998" width="25.80005" height="25.79999"/><rect class="cls-7" x="361.28998" y="77.41998" width="25.80005" height="25.81"/><rect class="cls-7" x="361.28998" y="51.60999" width="25.80005" height="25.81"/><rect class="cls-3" x="361.28998" y="25.81" width="25.80005" height="25.79999"/><rect class="cls-3" x="361.28998" width="25.80005" height="25.81"/><rect class="cls-2" x="335.47998" y="541.94" width="25.81" height="25.79999"/><rect class="cls-2" x="335.47998" y="516.12994" width="25.81" height="25.81006"/><rect class="cls-4" x="335.47998" y="490.31995" width="25.81" height="25.81"/><rect class="cls-4" x="335.47998" y="464.51996" width="25.81" height="25.79999"/><rect class="cls-4" x="335.47998" y="438.70996" width="25.81" height="25.81"/><rect class="cls-4" x="335.47998" y="412.89996" width="25.81" height="25.81"/><rect class="cls-4" x="335.47998" y="387.09998" width="25.81" height="25.79999"/><rect class="cls-5" x="335.47998" y="361.28998" width="25.81" height="25.81"/><rect class="cls-5" x="335.47998" y="335.48999" width="25.81" height="25.79999"/><rect class="cls-6" x="335.47998" y="309.67999" width="25.81" height="25.81"/><rect class="cls-5" x="335.47998" y="283.87" width="25.81" height="25.81"/><rect class="cls-5" x="335.47998" y="258.06995" width="25.81" height="25.80005"/><rect class="cls-8" x="335.47998" y="232.25995" width="25.81" height="25.81"/><rect class="cls-7" x="335.47998" y="206.44995" width="25.81" height="25.81"/><rect class="cls-7" x="335.47998" y="180.64996" width="25.81" height="25.79999"/><rect class="cls-7" x="335.47998" y="154.83997" width="25.81" height="25.81"/><rect class="cls-7" x="335.47998" y="129.02997" width="25.81" height="25.81"/><rect class="cls-7" x="335.47998" y="103.22998" width="25.81" height="25.79999"/><rect class="cls-7" x="335.47998" y="77.41998" width="25.81" height="25.81"/><rect class="cls-7" x="335.47998" y="51.60999" width="25.81" height="25.81"/><rect class="cls-3" x="335.47998" y="25.81" width="25.81" height="25.79999"/><rect class="cls-6" x="335.47998" width="25.81" height="25.81"/><rect class="cls-2" x="309.66998" y="541.94" width="25.81" height="25.79999"/><rect class="cls-2" x="309.66998" y="516.12994" width="25.81" height="25.81006"/><rect class="cls-4" x="309.66998" y="490.31995" width="25.81" height="25.81"/><rect class="cls-4" x="309.66998" y="464.51996" width="25.81" height="25.79999"/><rect class="cls-4" x="309.66998" y="438.70996" width="25.81" height="25.81"/><rect class="cls-5" x="309.66998" y="412.89996" width="25.81" height="25.81"/><rect class="cls-5" x="309.66998" y="387.09998" width="25.81" height="25.79999"/><rect class="cls-5" x="309.66998" y="361.28998" width="25.81" height="25.81"/><rect class="cls-5" x="309.66998" y="335.48999" width="25.81" height="25.79999"/><rect class="cls-5" x="309.66998" y="309.67999" width="25.81" height="25.81"/><rect class="cls-5" x="309.66998" y="283.87" width="25.81" height="25.81"/><rect class="cls-5" x="309.66998" y="258.06995" width="25.81" height="25.80005"/><rect class="cls-5" x="309.66998" y="232.25995" width="25.81" height="25.81"/><rect class="cls-7" x="309.66998" y="206.44995" width="25.81" height="25.81"/><rect class="cls-7" x="309.66998" y="180.64996" width="25.81" height="25.79999"/><rect class="cls-7" x="309.66998" y="154.83997" width="25.81" height="25.81"/><rect class="cls-7" x="309.66998" y="129.02997" width="25.81" height="25.81"/><rect class="cls-7" x="309.66998" y="103.22998" width="25.81" height="25.79999"/><rect class="cls-7" x="309.66998" y="77.41998" width="25.81" height="25.81"/><rect class="cls-7" x="309.66998" y="51.60999" width="25.81" height="25.81"/><rect class="cls-3" x="309.66998" y="25.81" width="25.81" height="25.79999"/><rect class="cls-6" x="309.66998" width="25.81" height="25.81"/><rect class="cls-2" x="283.87" y="541.94" width="25.79999" height="25.79999"/><rect class="cls-2" x="283.87" y="516.12994" width="25.79999" height="25.81006"/><rect class="cls-4" x="283.87" y="490.31995" width="25.79999" height="25.81"/><rect class="cls-4" x="283.87" y="464.51996" width="25.79999" height="25.79999"/><rect class="cls-5" x="283.87" y="438.70996" width="25.79999" height="25.81"/><rect class="cls-1" x="283.87" y="412.89996" width="25.79999" height="25.81"/><rect class="cls-1" x="283.87" y="387.09998" width="25.79999" height="25.79999"/><rect class="cls-1" x="283.87" y="361.28998" width="25.79999" height="25.81"/><rect class="cls-1" x="283.87" y="335.48999" width="25.79999" height="25.79999"/><rect class="cls-2" x="283.87" y="309.67999" width="25.79999" height="25.81"/><rect class="cls-2" x="283.87" y="283.87" width="25.79999" height="25.81"/><rect class="cls-3" x="283.87" y="258.06995" width="25.79999" height="25.80005"/><rect class="cls-6" x="283.87" y="232.25995" width="25.79999" height="25.81"/><rect class="cls-6" x="283.87" y="206.44995" width="25.79999" height="25.81"/><rect class="cls-6" x="283.87" y="180.64996" width="25.79999" height="25.79999"/><rect class="cls-6" x="283.87" y="154.83997" width="25.79999" height="25.81"/><rect class="cls-9" x="283.87" y="129.02997" width="25.79999" height="25.81"/><rect class="cls-7" x="283.87" y="103.22998" width="25.79999" height="25.79999"/><rect class="cls-7" x="283.87" y="77.41998" width="25.79999" height="25.81"/><rect class="cls-10" x="283.87" y="51.60999" width="25.79999" height="25.81"/><rect class="cls-3" x="283.87" y="25.81" width="25.79999" height="25.79999"/><rect class="cls-6" x="283.87" width="25.79999" height="25.81"/><rect class="cls-1" x="258.06" y="541.94" width="25.81" height="25.79999"/><rect class="cls-2" x="258.06" y="516.12994" width="25.81" height="25.81006"/><rect class="cls-4" x="258.06" y="490.31995" width="25.81" height="25.81"/><rect class="cls-4" x="258.06" y="464.51996" width="25.81" height="25.79999"/><rect class="cls-5" x="258.06" y="438.70996" width="25.81" height="25.81"/><rect class="cls-3" x="258.06" y="412.89996" width="25.81" height="25.81"/><rect class="cls-2" x="258.06" y="387.09998" width="25.81" height="25.79999"/><rect class="cls-1" x="258.06" y="361.28998" width="25.81" height="25.81"/><rect class="cls-2" x="258.06" y="335.48999" width="25.81" height="25.79999"/><rect class="cls-2" x="258.06" y="309.67999" width="25.81" height="25.81"/><rect class="cls-3" x="258.06" y="283.87" width="25.81" height="25.81"/><rect class="cls-6" x="258.06" y="258.06995" width="25.81" height="25.80005"/><rect class="cls-6" x="258.06" y="232.25995" width="25.81" height="25.81"/><rect class="cls-6" x="258.06" y="206.44995" width="25.81" height="25.81"/><rect class="cls-8" x="258.06" y="180.64996" width="25.81" height="25.79999"/><rect class="cls-8" x="258.06" y="154.83997" width="25.81" height="25.81"/><rect class="cls-9" x="258.06" y="129.02997" width="25.81" height="25.81"/><rect class="cls-7" x="258.06" y="103.22998" width="25.81" height="25.79999"/><rect class="cls-10" x="258.06" y="77.41998" width="25.81" height="25.81"/><rect class="cls-10" x="258.06" y="51.60999" width="25.81" height="25.81"/><rect class="cls-6" x="258.06" y="25.81" width="25.81" height="25.79999"/><rect class="cls-6" x="258.06" width="25.81" height="25.81"/><rect class="cls-1" x="232.25" y="541.94" width="25.81" height="25.79999"/><rect class="cls-2" x="232.25" y="516.12994" width="25.81" height="25.81006"/><rect class="cls-4" x="232.25" y="490.31995" width="25.81" height="25.81"/><rect class="cls-4" x="232.25" y="464.51996" width="25.81" height="25.79999"/><rect class="cls-5" x="232.25" y="438.70996" width="25.81" height="25.81"/><rect class="cls-5" x="232.25" y="412.89996" width="25.81" height="25.81"/><rect class="cls-3" x="232.25" y="387.09998" width="25.81" height="25.79999"/><rect class="cls-2" x="232.25" y="361.28998" width="25.81" height="25.81"/><rect class="cls-2" x="232.25" y="335.48999" width="25.81" height="25.79999"/><rect class="cls-3" x="232.25" y="309.67999" width="25.81" height="25.81"/><rect class="cls-3" x="232.25" y="283.87" width="25.81" height="25.81"/><rect class="cls-6" x="232.25" y="258.06995" width="25.81" height="25.80005"/><rect class="cls-6" x="232.25" y="232.25995" width="25.81" height="25.81"/><rect class="cls-8" x="232.25" y="206.44995" width="25.81" height="25.81"/><rect class="cls-8" x="232.25" y="180.64996" width="25.81" height="25.79999"/><rect class="cls-9" x="232.25" y="154.83997" width="25.81" height="25.81"/><rect class="cls-7" x="232.25" y="129.02997" width="25.81" height="25.81"/><rect class="cls-10" x="232.25" y="103.22998" width="25.81" height="25.79999"/><rect class="cls-10" x="232.25" y="77.41998" width="25.81" height="25.81"/><rect class="cls-10" x="232.25" y="51.60999" width="25.81" height="25.81"/><rect class="cls-6" x="232.25" y="25.81" width="25.81" height="25.79999"/><rect class="cls-8" x="232.25" width="25.81" height="25.81"/><rect class="cls-1" x="206.45001" y="541.94" width="25.79999" height="25.79999"/><rect class="cls-2" x="206.45001" y="516.12994" width="25.79999" height="25.81006"/><rect class="cls-4" x="206.45001" y="490.31995" width="25.79999" height="25.81"/><rect class="cls-4" x="206.45001" y="464.51996" width="25.79999" height="25.79999"/><rect class="cls-5" x="206.45001" y="438.70996" width="25.79999" height="25.81"/><rect class="cls-5" x="206.45001" y="412.89996" width="25.79999" height="25.81"/><rect class="cls-5" x="206.45001" y="387.09998" width="25.79999" height="25.79999"/><rect class="cls-3" x="206.45001" y="361.28998" width="25.79999" height="25.81"/><rect class="cls-3" x="206.45001" y="335.48999" width="25.79999" height="25.79999"/><rect class="cls-3" x="206.45001" y="309.67999" width="25.79999" height="25.81"/><rect class="cls-3" x="206.45001" y="283.87" width="25.79999" height="25.81"/><rect class="cls-6" x="206.45001" y="258.06995" width="25.79999" height="25.80005"/><rect class="cls-6" x="206.45001" y="232.25995" width="25.79999" height="25.81"/><rect class="cls-8" x="206.45001" y="206.44995" width="25.79999" height="25.81"/><rect class="cls-9" x="206.45001" y="180.64996" width="25.79999" height="25.79999"/><rect class="cls-7" x="206.45001" y="154.83997" width="25.79999" height="25.81"/><rect class="cls-10" x="206.45001" y="129.02997" width="25.79999" height="25.81"/><rect class="cls-10" x="206.45001" y="103.22998" width="25.79999" height="25.79999"/><rect class="cls-11" x="206.45001" y="77.41998" width="25.79999" height="25.81"/><rect class="cls-10" x="206.45001" y="51.60999" width="25.79999" height="25.81"/><rect class="cls-8" x="206.45001" y="25.81" width="25.79999" height="25.79999"/><rect class="cls-8" x="206.45001" width="25.79999" height="25.81"/><rect class="cls-2" x="180.64001" y="541.94" width="25.81" height="25.79999"/><rect class="cls-2" x="180.64001" y="516.12994" width="25.81" height="25.81006"/><rect class="cls-4" x="180.64001" y="490.31995" width="25.81" height="25.81"/><rect class="cls-4" x="180.64001" y="464.51996" width="25.81" height="25.79999"/><rect class="cls-5" x="180.64001" y="438.70996" width="25.81" height="25.81"/><rect class="cls-5" x="180.64001" y="412.89996" width="25.81" height="25.81"/><rect class="cls-5" x="180.64001" y="387.09998" width="25.81" height="25.79999"/><rect class="cls-5" x="180.64001" y="361.28998" width="25.81" height="25.81"/><rect class="cls-6" x="180.64001" y="335.48999" width="25.81" height="25.79999"/><rect class="cls-3" x="180.64001" y="309.67999" width="25.81" height="25.81"/><rect class="cls-6" x="180.64001" y="283.87" width="25.81" height="25.81"/><rect class="cls-6" x="180.64001" y="258.06995" width="25.81" height="25.80005"/><rect class="cls-8" x="180.64001" y="232.25995" width="25.81" height="25.81"/><rect class="cls-8" x="180.64001" y="206.44995" width="25.81" height="25.81"/><rect class="cls-10" x="180.64001" y="180.64996" width="25.81" height="25.79999"/><rect class="cls-10" x="180.64001" y="154.83997" width="25.81" height="25.81"/><rect class="cls-10" x="180.64001" y="129.02997" width="25.81" height="25.81"/><rect class="cls-11" x="180.64001" y="103.22998" width="25.81" height="25.79999"/><rect class="cls-11" x="180.64001" y="77.41998" width="25.81" height="25.81"/><rect class="cls-10" x="180.64001" y="51.60999" width="25.81" height="25.81"/><rect class="cls-8" x="180.64001" y="25.81" width="25.81" height="25.79999"/><rect class="cls-9" x="180.64001" width="25.81" height="25.81"/><rect class="cls-2" x="154.84003" y="516.12994" width="25.79999" height="25.81006"/><rect class="cls-2" x="154.84003" y="490.31995" width="25.79999" height="25.81"/><rect class="cls-4" x="154.84003" y="464.51996" width="25.79999" height="25.79999"/><rect class="cls-5" x="154.84003" y="438.70996" width="25.79999" height="25.81"/><rect class="cls-5" x="154.84003" y="412.89996" width="25.79999" height="25.81"/><rect class="cls-5" x="154.84003" y="387.09998" width="25.79999" height="25.79999"/><rect class="cls-7" x="154.84003" y="361.28998" width="25.79999" height="25.81"/><rect class="cls-6" x="154.84003" y="335.48999" width="25.79999" height="25.79999"/><rect class="cls-3" x="154.84003" y="309.67999" width="25.79999" height="25.81"/><rect class="cls-6" x="154.84003" y="283.87" width="25.79999" height="25.81"/><rect class="cls-6" x="154.84003" y="258.06995" width="25.79999" height="25.80005"/><rect class="cls-8" x="154.84003" y="232.25995" width="25.79999" height="25.81"/><rect class="cls-9" x="154.84003" y="206.44995" width="25.79999" height="25.81"/><rect class="cls-10" x="154.84003" y="180.64996" width="25.79999" height="25.79999"/><rect class="cls-10" x="154.84003" y="154.83997" width="25.79999" height="25.81"/><rect class="cls-11" x="154.84003" y="129.02997" width="25.79999" height="25.81"/><rect class="cls-11" x="154.84003" y="103.22998" width="25.79999" height="25.79999"/><rect class="cls-10" x="154.84003" y="77.41998" width="25.79999" height="25.81"/><rect class="cls-6" x="154.84003" y="51.60999" width="25.79999" height="25.81"/><rect class="cls-8" x="154.84003" y="25.81" width="25.79999" height="25.79999"/><rect class="cls-2" x="129.03003" y="516.12994" width="25.81" height="25.81006"/><rect class="cls-2" x="129.03003" y="490.31995" width="25.81" height="25.81"/><rect class="cls-3" x="129.03003" y="464.51996" width="25.81" height="25.79999"/><rect class="cls-5" x="129.03003" y="438.70996" width="25.81" height="25.81"/><rect class="cls-5" x="129.03003" y="412.89996" width="25.81" height="25.81"/><rect class="cls-5" x="129.03003" y="387.09998" width="25.81" height="25.79999"/><rect class="cls-7" x="129.03003" y="361.28998" width="25.81" height="25.81"/><rect class="cls-6" x="129.03003" y="335.48999" width="25.81" height="25.79999"/><rect class="cls-6" x="129.03003" y="309.67999" width="25.81" height="25.81"/><rect class="cls-6" x="129.03003" y="283.87" width="25.81" height="25.81"/><rect class="cls-8" x="129.03003" y="258.06995" width="25.81" height="25.80005"/><rect class="cls-8" x="129.03003" y="232.25995" width="25.81" height="25.81"/><rect class="cls-9" x="129.03003" y="206.44995" width="25.81" height="25.81"/><rect class="cls-10" x="129.03003" y="180.64996" width="25.81" height="25.79999"/><rect class="cls-11" x="129.03003" y="154.83997" width="25.81" height="25.81"/><rect class="cls-11" x="129.03003" y="129.02997" width="25.81" height="25.81"/><rect class="cls-10" x="129.03003" y="103.22998" width="25.81" height="25.79999"/><rect class="cls-6" x="129.03003" y="77.41998" width="25.81" height="25.81"/><rect class="cls-8" x="129.03003" y="51.60999" width="25.81" height="25.81"/><rect class="cls-9" x="129.03003" y="25.81" width="25.81" height="25.79999"/><rect class="cls-2" x="103.22003" y="490.31995" width="25.81" height="25.81"/><rect class="cls-3" x="103.22003" y="464.51996" width="25.81" height="25.79999"/><rect class="cls-3" x="103.22003" y="438.70996" width="25.81" height="25.81"/><rect class="cls-5" x="103.22003" y="412.89996" width="25.81" height="25.81"/><rect class="cls-7" x="103.22003" y="387.09998" width="25.81" height="25.79999"/><rect class="cls-7" x="103.22003" y="361.28998" width="25.81" height="25.81"/><rect class="cls-6" x="103.22003" y="335.48999" width="25.81" height="25.79999"/><rect class="cls-6" x="103.22003" y="309.67999" width="25.81" height="25.81"/><rect class="cls-6" x="103.22003" y="283.87" width="25.81" height="25.81"/><rect class="cls-8" x="103.22003" y="258.06995" width="25.81" height="25.80005"/><rect class="cls-8" x="103.22003" y="232.25995" width="25.81" height="25.81"/><rect class="cls-9" x="103.22003" y="206.44995" width="25.81" height="25.81"/><rect class="cls-11" x="103.22003" y="180.64996" width="25.81" height="25.79999"/><rect class="cls-11" x="103.22003" y="154.83997" width="25.81" height="25.81"/><rect class="cls-10" x="103.22003" y="129.02997" width="25.81" height="25.81"/><rect class="cls-6" x="103.22003" y="103.22998" width="25.81" height="25.79999"/><rect class="cls-8" x="103.22003" y="77.41998" width="25.81" height="25.81"/><rect class="cls-9" x="103.22003" y="51.60999" width="25.81" height="25.81"/><rect class="cls-2" x="77.41998" y="464.51996" width="25.80005" height="25.79999"/><rect class="cls-3" x="77.41998" y="438.70996" width="25.80005" height="25.81"/><rect class="cls-3" x="77.41998" y="412.89996" width="25.80005" height="25.81"/><rect class="cls-7" x="77.41998" y="387.09998" width="25.80005" height="25.79999"/><rect class="cls-7" x="77.41998" y="361.28998" width="25.80005" height="25.81"/><rect class="cls-7" x="77.41998" y="335.48999" width="25.80005" height="25.79999"/><rect class="cls-6" x="77.41998" y="309.67999" width="25.80005" height="25.81"/><rect class="cls-6" x="77.41998" y="283.87" width="25.80005" height="25.81"/><rect class="cls-8" x="77.41998" y="258.06995" width="25.80005" height="25.80005"/><rect class="cls-9" x="77.41998" y="232.25995" width="25.80005" height="25.81"/><rect class="cls-11" x="77.41998" y="206.44995" width="25.80005" height="25.81"/><rect class="cls-11" x="77.41998" y="180.64996" width="25.80005" height="25.79999"/><rect class="cls-10" x="77.41998" y="154.83997" width="25.80005" height="25.81"/><rect class="cls-6" x="77.41998" y="129.02997" width="25.80005" height="25.81"/><rect class="cls-8" x="77.41998" y="103.22998" width="25.80005" height="25.79999"/><rect class="cls-9" x="77.41998" y="77.41998" width="25.80005" height="25.81"/><rect class="cls-2" x="51.60999" y="438.70996" width="25.81" height="25.81"/><rect class="cls-3" x="51.60999" y="412.89996" width="25.81" height="25.81"/><rect class="cls-3" x="51.60999" y="387.09998" width="25.81" height="25.79999"/><rect class="cls-7" x="51.60999" y="361.28998" width="25.81" height="25.81"/><rect class="cls-7" x="51.60999" y="335.48999" width="25.81" height="25.79999"/><rect class="cls-10" x="51.60999" y="309.67999" width="25.81" height="25.81"/><rect class="cls-10" x="51.60999" y="283.87" width="25.81" height="25.81"/><rect class="cls-10" x="51.60999" y="258.06995" width="25.81" height="25.80005"/><rect class="cls-10" x="51.60999" y="232.25995" width="25.81" height="25.81"/><rect class="cls-10" x="51.60999" y="206.44995" width="25.81" height="25.81"/><rect class="cls-6" x="51.60999" y="180.64996" width="25.81" height="25.79999"/><rect class="cls-6" x="51.60999" y="154.83997" width="25.81" height="25.81"/><rect class="cls-8" x="51.60999" y="129.02997" width="25.81" height="25.81"/><rect class="cls-9" x="51.60999" y="103.22998" width="25.81" height="25.79999"/><rect class="cls-2" x="25.79999" y="412.89996" width="25.81" height="25.81"/><rect class="cls-3" x="25.79999" y="387.09998" width="25.81" height="25.79999"/><rect class="cls-3" x="25.79999" y="361.28998" width="25.81" height="25.81"/><rect class="cls-3" x="25.79999" y="335.48999" width="25.81" height="25.79999"/><rect class="cls-3" x="25.79999" y="309.67999" width="25.81" height="25.81"/><rect class="cls-6" x="25.79999" y="283.87" width="25.81" height="25.81"/><rect class="cls-6" x="25.79999" y="258.06995" width="25.81" height="25.80005"/><rect class="cls-6" x="25.79999" y="232.25995" width="25.81" height="25.81"/><rect class="cls-8" x="25.79999" y="206.44995" width="25.81" height="25.81"/><rect class="cls-8" x="25.79999" y="180.64996" width="25.81" height="25.79999"/><rect class="cls-8" x="25.79999" y="154.83997" width="25.81" height="25.81"/><rect class="cls-9" x="25.79999" y="129.02997" width="25.81" height="25.81"/><rect class="cls-3" y="361.28998" width="25.79999" height="25.81"/><rect class="cls-3" y="335.48999" width="25.79999" height="25.79999"/><rect class="cls-6" y="309.67999" width="25.79999" height="25.81"/><rect class="cls-6" y="283.87" width="25.79999" height="25.81"/><rect class="cls-6" y="258.06995" width="25.79999" height="25.80005"/><rect class="cls-8" y="232.25995" width="25.79999" height="25.81"/><rect class="cls-8" y="206.44995" width="25.79999" height="25.81"/><rect class="cls-9" y="180.64996" width="25.79999" height="25.79999"/></g></g></svg>