<svg xmlns="http://www.w3.org/2000/svg" viewBox="0 0 309.68 567.74"><defs><style>.cls-1{fill:#65666f;}.cls-2{fill:#b3b3b3;}.cls-3{fill:#3c261e;}.cls-4{fill:#523421;}.cls-5{fill:#694631;}.cls-6{fill:#1c1a3d;}.cls-7{fill:#413b45;}.cls-8{fill:#22203a;}.cls-9{fill:#664d48;}.cls-10{fill:#8a879c;}.cls-11{fill:#ccc;}.cls-12{fill:#511527;}.cls-13{fill:#796a48;}.cls-14{fill:#181927;}.cls-15{fill:#999;}.cls-16{fill:#414691;}.cls-17{fill:#48423f;}.cls-18{fill:#aa8671;}.cls-19{fill:#333;}.cls-20{fill:#d69a7c;}.cls-21{fill:#e6e6e6;}.cls-22{fill:#1a1a1a;}.cls-23{fill:#30436c;}.cls-24{fill:#151520;}</style></defs><title>pld</title><g id="Layer_2" data-name="Layer 2"><g id="grid"><rect class="cls-1" x="283.87" y="387.1" width="25.81" height="25.81"/><rect class="cls-2" x="283.87" y="361.29" width="25.81" height="25.81"/><rect class="cls-1" x="283.87" y="335.49" width="25.81" height="25.8"/><rect class="cls-3" x="283.87" y="206.45" width="25.81" height="25.81"/><rect class="cls-3" x="283.87" y="180.65" width="25.81" height="25.8"/><rect class="cls-4" x="283.87" y="154.84" width="25.81" height="25.81"/><rect class="cls-5" x="283.87" y="129.04" width="25.81" height="25.8"/><rect class="cls-5" x="283.87" y="103.23" width="25.81" height="25.81"/><rect class="cls-6" x="258.06" y="490.33" width="25.81" height="25.8"/><rect class="cls-6" x="258.06" y="464.52" width="25.81" height="25.81"/><rect class="cls-6" x="258.06" y="438.71" width="25.81" height="25.81"/><rect class="cls-7" x="258.06" y="412.91" width="25.81" height="25.8"/><rect class="cls-8" x="258.06" y="387.1" width="25.81" height="25.81"/><rect class="cls-8" x="258.06" y="361.29" width="25.81" height="25.81"/><rect class="cls-8" x="258.06" y="335.49" width="25.81" height="25.8"/><rect class="cls-7" x="258.06" y="309.68" width="25.81" height="25.81"/><rect class="cls-3" x="258.06" y="232.26" width="25.81" height="25.81"/><rect class="cls-4" x="258.06" y="206.45" width="25.81" height="25.81"/><rect class="cls-9" x="258.06" y="180.65" width="25.81" height="25.8"/><rect class="cls-3" x="258.06" y="154.84" width="25.81" height="25.81"/><rect class="cls-10" x="258.06" y="129.04" width="25.81" height="25.8"/><rect class="cls-1" x="258.06" y="103.23" width="25.81" height="25.81"/><rect class="cls-10" x="258.06" y="77.42" width="25.81" height="25.81"/><rect class="cls-11" x="258.06" y="51.62" width="25.81" height="25.8"/><rect class="cls-12" x="232.26" y="490.33" width="25.8" height="25.8"/><rect class="cls-12" x="232.26" y="464.52" width="25.8" height="25.81"/><rect class="cls-13" x="232.26" y="438.71" width="25.8" height="25.81"/><rect class="cls-1" x="232.26" y="412.91" width="25.8" height="25.8"/><rect class="cls-7" x="232.26" y="387.1" width="25.8" height="25.81"/><rect class="cls-1" x="232.26" y="361.29" width="25.8" height="25.81"/><rect class="cls-1" x="232.26" y="335.49" width="25.8" height="25.8"/><rect class="cls-8" x="232.26" y="309.68" width="25.8" height="25.81"/><rect class="cls-6" x="232.26" y="283.87" width="25.8" height="25.81"/><rect class="cls-3" x="232.26" y="258.07" width="25.8" height="25.8"/><rect class="cls-3" x="232.26" y="232.26" width="25.8" height="25.81"/><rect class="cls-9" x="232.26" y="206.45" width="25.8" height="25.81"/><rect class="cls-10" x="232.26" y="180.65" width="25.8" height="25.8"/><rect class="cls-10" x="232.26" y="154.84" width="25.8" height="25.81"/><rect class="cls-1" x="232.26" y="129.04" width="25.8" height="25.8"/><rect class="cls-10" x="232.26" y="103.23" width="25.8" height="25.81"/><rect class="cls-11" x="232.26" y="77.42" width="25.8" height="25.81"/><rect class="cls-3" x="232.26" y="51.62" width="25.8" height="25.8"/><rect class="cls-7" x="206.45" y="541.94" width="25.81" height="25.8"/><rect class="cls-7" x="206.45" y="516.13" width="25.81" height="25.81"/><rect class="cls-7" x="206.45" y="490.33" width="25.81" height="25.8"/><rect class="cls-13" x="206.45" y="464.52" width="25.81" height="25.81"/><rect class="cls-1" x="206.45" y="438.71" width="25.81" height="25.81"/><rect class="cls-7" x="206.45" y="412.91" width="25.81" height="25.8"/><rect class="cls-14" x="206.45" y="387.1" width="25.81" height="25.81"/><rect class="cls-15" x="206.45" y="361.29" width="25.81" height="25.81"/><rect class="cls-1" x="206.45" y="335.49" width="25.81" height="25.8"/><rect class="cls-6" x="206.45" y="309.68" width="25.81" height="25.81"/><rect class="cls-16" x="206.45" y="283.87" width="25.81" height="25.81"/><rect class="cls-9" x="206.45" y="258.07" width="25.81" height="25.8"/><rect class="cls-3" x="206.45" y="232.26" width="25.81" height="25.81"/><rect class="cls-1" x="206.45" y="206.45" width="25.81" height="25.81"/><rect class="cls-7" x="206.45" y="180.65" width="25.81" height="25.8"/><rect class="cls-1" x="206.45" y="154.84" width="25.81" height="25.81"/><rect class="cls-11" x="206.45" y="129.04" width="25.81" height="25.8"/><rect class="cls-3" x="206.45" y="103.23" width="25.81" height="25.81"/><rect class="cls-3" x="206.45" y="77.42" width="25.81" height="25.81"/><rect class="cls-5" x="206.45" y="51.62" width="25.81" height="25.8"/><rect class="cls-10" x="180.64" y="541.94" width="25.81" height="25.8"/><rect class="cls-1" x="180.64" y="516.13" width="25.81" height="25.81"/><rect class="cls-7" x="180.64" y="490.33" width="25.81" height="25.8"/><rect class="cls-1" x="180.64" y="464.52" width="25.81" height="25.81"/><rect class="cls-7" x="180.64" y="438.71" width="25.81" height="25.81"/><rect class="cls-10" x="180.64" y="412.91" width="25.81" height="25.8"/><rect class="cls-17" x="180.64" y="387.1" width="25.81" height="25.81"/><rect class="cls-14" x="180.64" y="361.29" width="25.81" height="25.81"/><rect class="cls-8" x="180.64" y="335.49" width="25.81" height="25.8"/><rect class="cls-16" x="180.64" y="309.68" width="25.81" height="25.81"/><rect class="cls-18" x="180.64" y="283.87" width="25.81" height="25.81"/><rect class="cls-18" x="180.64" y="258.07" width="25.81" height="25.8"/><rect class="cls-18" x="180.64" y="232.26" width="25.81" height="25.81"/><rect class="cls-7" x="180.64" y="206.45" width="25.81" height="25.81"/><rect class="cls-7" x="180.64" y="180.65" width="25.81" height="25.8"/><rect class="cls-1" x="180.64" y="154.84" width="25.81" height="25.81"/><rect class="cls-3" x="180.64" y="129.04" width="25.81" height="25.8"/><rect class="cls-4" x="180.64" y="103.23" width="25.81" height="25.81"/><rect class="cls-4" x="180.64" y="77.42" width="25.81" height="25.81"/><rect class="cls-11" x="154.84" y="541.94" width="25.8" height="25.8"/><rect class="cls-1" x="154.84" y="516.13" width="25.8" height="25.81"/><rect class="cls-19" x="154.84" y="490.33" width="25.8" height="25.8"/><rect class="cls-7" x="154.84" y="464.52" width="25.8" height="25.81"/><rect class="cls-14" x="154.84" y="438.71" width="25.8" height="25.81"/><rect class="cls-1" x="154.84" y="412.91" width="25.8" height="25.8"/><rect class="cls-15" x="154.84" y="387.1" width="25.8" height="25.81"/><rect class="cls-8" x="154.84" y="361.29" width="25.8" height="25.81"/><rect class="cls-6" x="154.84" y="335.49" width="25.8" height="25.8"/><rect class="cls-16" x="154.84" y="309.68" width="25.8" height="25.81"/><rect class="cls-18" x="154.84" y="283.87" width="25.8" height="25.81"/><rect class="cls-20" x="154.84" y="258.07" width="25.8" height="25.8"/><rect class="cls-20" x="154.84" y="232.26" width="25.8" height="25.81"/><rect class="cls-20" x="154.84" y="206.45" width="25.8" height="25.81"/><rect class="cls-1" x="154.84" y="180.65" width="25.8" height="25.8"/><rect class="cls-3" x="154.84" y="154.84" width="25.8" height="25.81"/><rect class="cls-4" x="154.84" y="129.04" width="25.8" height="25.8"/><rect class="cls-5" x="154.84" y="103.23" width="25.8" height="25.81"/><rect class="cls-5" x="154.84" y="77.42" width="25.8" height="25.81"/><rect class="cls-5" x="154.84" y="51.62" width="25.8" height="25.8"/><rect class="cls-7" x="129.03" y="516.13" width="25.81" height="25.81"/><rect class="cls-7" x="129.03" y="490.33" width="25.81" height="25.8"/><rect class="cls-7" x="129.03" y="464.52" width="25.81" height="25.81"/><rect class="cls-14" x="129.03" y="438.71" width="25.81" height="25.81"/><rect class="cls-14" x="129.03" y="412.91" width="25.81" height="25.8"/><rect class="cls-8" x="129.03" y="387.1" width="25.81" height="25.81"/><rect class="cls-8" x="129.03" y="361.29" width="25.81" height="25.81"/><rect class="cls-6" x="129.03" y="335.49" width="25.81" height="25.8"/><rect class="cls-16" x="129.03" y="309.68" width="25.81" height="25.81"/><rect class="cls-20" x="129.03" y="283.87" width="25.81" height="25.81"/><rect class="cls-21" x="129.03" y="258.07" width="25.81" height="25.8"/><rect class="cls-15" x="129.03" y="232.26" width="25.81" height="25.81"/><rect class="cls-22" x="129.03" y="206.45" width="25.81" height="25.81"/><rect class="cls-1" x="129.03" y="180.65" width="25.81" height="25.8"/><rect class="cls-3" x="129.03" y="154.84" width="25.81" height="25.81"/><rect class="cls-3" x="129.03" y="129.04" width="25.81" height="25.8"/><rect class="cls-4" x="129.03" y="103.23" width="25.81" height="25.81"/><rect class="cls-4" x="129.03" y="77.42" width="25.81" height="25.81"/><rect class="cls-5" x="129.03" y="51.62" width="25.81" height="25.8"/><rect class="cls-1" x="103.23" y="516.13" width="25.8" height="25.81"/><rect class="cls-19" x="103.23" y="490.33" width="25.8" height="25.8"/><rect class="cls-13" x="103.23" y="464.52" width="25.8" height="25.81"/><rect class="cls-7" x="103.23" y="438.71" width="25.8" height="25.81"/><rect class="cls-1" x="103.23" y="412.91" width="25.8" height="25.8"/><rect class="cls-1" x="103.23" y="387.1" width="25.8" height="25.81"/><rect class="cls-8" x="103.23" y="361.29" width="25.8" height="25.81"/><rect class="cls-6" x="103.23" y="335.49" width="25.8" height="25.8"/><rect class="cls-18" x="103.23" y="309.68" width="25.8" height="25.81"/><rect class="cls-20" x="103.23" y="283.87" width="25.8" height="25.81"/><rect class="cls-23" x="103.23" y="258.07" width="25.8" height="25.8"/><rect class="cls-24" x="103.23" y="232.26" width="25.8" height="25.81"/><rect class="cls-22" x="103.23" y="206.45" width="25.8" height="25.81"/><rect class="cls-1" x="103.23" y="180.65" width="25.8" height="25.8"/><rect class="cls-3" x="103.23" y="154.84" width="25.8" height="25.81"/><rect class="cls-4" x="103.23" y="129.04" width="25.8" height="25.8"/><rect class="cls-5" x="103.23" y="103.23" width="25.8" height="25.81"/><rect class="cls-4" x="103.23" y="77.42" width="25.8" height="25.81"/><rect class="cls-5" x="103.23" y="51.62" width="25.8" height="25.8"/><rect class="cls-7" x="103.23" y="25.81" width="25.8" height="25.81"/><rect class="cls-7" x="103.23" width="25.8" height="25.81"/><rect class="cls-2" x="77.42" y="516.13" width="25.81" height="25.81"/><rect class="cls-1" x="77.42" y="490.33" width="25.81" height="25.8"/><rect class="cls-19" x="77.42" y="464.52" width="25.81" height="25.81"/><rect class="cls-13" x="77.42" y="438.71" width="25.81" height="25.81"/><rect class="cls-1" x="77.42" y="412.91" width="25.81" height="25.8"/><rect class="cls-1" x="77.42" y="387.1" width="25.81" height="25.81"/><rect class="cls-1" x="77.42" y="361.29" width="25.81" height="25.81"/><rect class="cls-7" x="77.42" y="335.49" width="25.81" height="25.8"/><rect class="cls-16" x="77.42" y="309.68" width="25.81" height="25.81"/><rect class="cls-20" x="77.42" y="283.87" width="25.81" height="25.81"/><rect class="cls-20" x="77.42" y="258.07" width="25.81" height="25.8"/><rect class="cls-20" x="77.42" y="232.26" width="25.81" height="25.81"/><rect class="cls-20" x="77.42" y="206.45" width="25.81" height="25.81"/><rect class="cls-10" x="77.42" y="180.65" width="25.81" height="25.8"/><rect class="cls-3" x="77.42" y="154.84" width="25.81" height="25.81"/><rect class="cls-4" x="77.42" y="129.04" width="25.81" height="25.8"/><rect class="cls-4" x="77.42" y="103.23" width="25.81" height="25.81"/><rect class="cls-5" x="77.42" y="77.42" width="25.81" height="25.81"/><rect class="cls-5" x="77.42" y="51.62" width="25.81" height="25.8"/><rect class="cls-7" x="77.42" y="25.81" width="25.81" height="25.81"/><rect class="cls-10" x="77.42" width="25.81" height="25.81"/><rect class="cls-11" x="51.61" y="438.71" width="25.81" height="25.81"/><rect class="cls-13" x="51.61" y="412.91" width="25.81" height="25.8"/><rect class="cls-2" x="51.61" y="387.1" width="25.81" height="25.81"/><rect class="cls-2" x="51.61" y="361.29" width="25.81" height="25.81"/><rect class="cls-2" x="51.61" y="335.49" width="25.81" height="25.8"/><rect class="cls-6" x="51.61" y="309.68" width="25.81" height="25.81"/><rect class="cls-20" x="51.61" y="283.87" width="25.81" height="25.81"/><rect class="cls-20" x="51.61" y="258.07" width="25.81" height="25.8"/><rect class="cls-20" x="51.61" y="232.26" width="25.81" height="25.81"/><rect class="cls-20" x="51.61" y="206.45" width="25.81" height="25.81"/><rect class="cls-10" x="51.61" y="180.65" width="25.81" height="25.8"/><rect class="cls-4" x="51.61" y="154.84" width="25.81" height="25.81"/><rect class="cls-3" x="51.61" y="129.04" width="25.81" height="25.8"/><rect class="cls-4" x="51.61" y="103.23" width="25.81" height="25.81"/><rect class="cls-5" x="51.61" y="77.42" width="25.81" height="25.81"/><rect class="cls-1" x="51.61" y="51.62" width="25.81" height="25.8"/><rect class="cls-10" x="51.61" y="25.81" width="25.81" height="25.81"/><rect class="cls-17" x="25.81" y="412.91" width="25.8" height="25.8"/><rect class="cls-14" x="25.81" y="387.1" width="25.8" height="25.81"/><rect class="cls-1" x="25.81" y="361.29" width="25.8" height="25.81"/><rect class="cls-1" x="25.81" y="335.49" width="25.8" height="25.8"/><rect class="cls-18" x="25.81" y="258.07" width="25.8" height="25.8"/><rect class="cls-18" x="25.81" y="232.26" width="25.8" height="25.81"/><rect class="cls-10" x="25.81" y="206.45" width="25.8" height="25.81"/><rect class="cls-3" x="25.81" y="180.65" width="25.8" height="25.8"/><rect class="cls-4" x="25.81" y="154.84" width="25.8" height="25.81"/><rect class="cls-5" x="25.81" y="129.04" width="25.8" height="25.8"/><rect class="cls-5" x="25.81" y="103.23" width="25.8" height="25.81"/><rect class="cls-4" x="25.81" y="77.42" width="25.8" height="25.81"/><rect class="cls-5" y="154.84" width="25.81" height="25.81"/><rect class="cls-5" y="129.04" width="25.81" height="25.8"/><rect class="cls-5" y="77.42" width="25.81" height="25.81"/></g></g></svg>