<svg xmlns="http://www.w3.org/2000/svg" viewBox="0 0 309.68 748.39"><defs><style>.cls-1{fill:#262626;}.cls-2{fill:#333;}.cls-3{fill:#73574c;}.cls-4{fill:#e6e7e8;}.cls-5{fill:#d1d3d4;}.cls-6{fill:#b3b3b3;}.cls-7{fill:#1a1a1a;}.cls-8{fill:#58595b;}.cls-9{fill:#af8a73;}.cls-10{fill:#a07c68;}.cls-11{fill:#e6e6e6;}.cls-12{fill:#939598;}.cls-13{fill:#1a191f;}.cls-14{fill:#a7a9ac;}.cls-15{fill:#2e1217;}.cls-16{fill:#33292b;}.cls-17{fill:#414042;}.cls-18{fill:#4d3f41;}.cls-19{fill:#441f27;}.cls-20{fill:#5c252c;}.cls-21{fill:#674c40;}.cls-22{fill:#f1f2f2;}.cls-23{fill:#4f757f;}.cls-24{fill:#bcbec0;}</style></defs><title>smn_c</title><g id="Layer_2" data-name="Layer 2"><g id="grid"><rect class="cls-1" x="283.87" y="232.26" width="25.81" height="25.81"/><rect class="cls-1" x="283.87" y="206.45" width="25.81" height="25.81"/><rect class="cls-1" x="283.87" y="180.65" width="25.81" height="25.8"/><rect class="cls-2" x="258.06" y="180.65" width="25.81" height="25.8"/><rect class="cls-1" x="258.06" y="154.84" width="25.81" height="25.81"/><rect class="cls-3" x="232.26" y="490.33" width="25.8" height="25.8"/><rect class="cls-3" x="232.26" y="464.52" width="25.8" height="25.81"/><rect class="cls-4" x="232.26" y="438.71" width="25.8" height="25.81"/><rect class="cls-4" x="232.26" y="412.91" width="25.8" height="25.8"/><rect class="cls-4" x="232.26" y="387.1" width="25.8" height="25.81"/><rect class="cls-5" x="232.26" y="361.29" width="25.8" height="25.81"/><rect class="cls-5" x="232.26" y="335.49" width="25.8" height="25.8"/><rect class="cls-5" x="232.26" y="309.68" width="25.8" height="25.81"/><rect class="cls-6" x="232.26" y="283.87" width="25.8" height="25.81"/><rect class="cls-6" x="232.26" y="258.07" width="25.8" height="25.8"/><rect class="cls-1" x="232.26" y="154.84" width="25.8" height="25.81"/><rect class="cls-2" x="232.26" y="129.04" width="25.8" height="25.8"/><rect class="cls-7" x="232.26" y="103.23" width="25.8" height="25.81"/><rect class="cls-7" x="232.26" y="77.42" width="25.8" height="25.81"/><rect class="cls-8" x="232.26" y="51.62" width="25.8" height="25.8"/><rect class="cls-9" x="206.45" y="490.33" width="25.81" height="25.8"/><rect class="cls-10" x="206.45" y="464.52" width="25.81" height="25.81"/><rect class="cls-11" x="206.45" y="438.71" width="25.81" height="25.81"/><rect class="cls-11" x="206.45" y="412.91" width="25.81" height="25.8"/><rect class="cls-11" x="206.45" y="387.1" width="25.81" height="25.81"/><rect class="cls-11" x="206.45" y="361.29" width="25.81" height="25.81"/><rect class="cls-11" x="206.45" y="335.49" width="25.81" height="25.8"/><rect class="cls-11" x="206.45" y="309.68" width="25.81" height="25.81"/><rect class="cls-5" x="206.45" y="283.87" width="25.81" height="25.81"/><rect class="cls-5" x="206.45" y="258.07" width="25.81" height="25.8"/><rect class="cls-12" x="206.45" y="232.26" width="25.81" height="25.81"/><rect class="cls-13" x="206.45" y="180.65" width="25.81" height="25.8"/><rect class="cls-13" x="206.45" y="154.84" width="25.81" height="25.81"/><rect class="cls-13" x="206.45" y="129.04" width="25.81" height="25.8"/><rect class="cls-7" x="206.45" y="103.23" width="25.81" height="25.81"/><rect class="cls-7" x="206.45" y="77.42" width="25.81" height="25.81"/><rect class="cls-7" x="206.45" y="51.62" width="25.81" height="25.8"/><rect class="cls-8" x="206.45" y="25.81" width="25.81" height="25.81"/><rect class="cls-7" x="180.64" y="722.58" width="25.81" height="25.81"/><rect class="cls-7" x="180.64" y="696.78" width="25.81" height="25.8"/><rect class="cls-3" x="180.64" y="670.97" width="25.81" height="25.8101"/><rect class="cls-3" x="180.64" y="645.16" width="25.81" height="25.81"/><rect class="cls-2" x="180.64" y="619.36" width="25.81" height="25.8"/><rect class="cls-2" x="180.64" y="593.55" width="25.81" height="25.81"/><rect class="cls-2" x="180.64" y="567.74" width="25.81" height="25.81"/><rect class="cls-1" x="180.64" y="541.94" width="25.81" height="25.8"/><rect class="cls-1" x="180.64" y="516.13" width="25.81" height="25.81"/><rect class="cls-1" x="180.64" y="490.33" width="25.81" height="25.8"/><rect class="cls-14" x="180.64" y="464.52" width="25.81" height="25.81"/><rect class="cls-14" x="180.64" y="438.71" width="25.81" height="25.81"/><rect class="cls-6" x="180.64" y="412.91" width="25.81" height="25.8"/><rect class="cls-6" x="180.64" y="387.1" width="25.81" height="25.81"/><rect class="cls-6" x="180.64" y="361.29" width="25.81" height="25.81"/><rect class="cls-6" x="180.64" y="335.49" width="25.81" height="25.8"/><rect class="cls-14" x="180.64" y="309.68" width="25.81" height="25.81"/><rect class="cls-14" x="180.64" y="283.87" width="25.81" height="25.81"/><rect class="cls-11" x="180.64" y="258.07" width="25.81" height="25.8"/><rect class="cls-5" x="180.64" y="232.26" width="25.81" height="25.81"/><rect class="cls-15" x="180.64" y="206.45" width="25.81" height="25.81"/><rect class="cls-15" x="180.64" y="180.65" width="25.81" height="25.8"/><rect class="cls-2" x="180.64" y="154.84" width="25.81" height="25.81"/><rect class="cls-12" x="180.64" y="129.04" width="25.81" height="25.8"/><rect class="cls-13" x="180.64" y="103.23" width="25.81" height="25.81"/><rect class="cls-7" x="180.64" y="77.42" width="25.81" height="25.81"/><rect class="cls-7" x="180.64" y="51.62" width="25.81" height="25.8"/><rect class="cls-7" x="180.64" y="25.81" width="25.81" height="25.81"/><rect class="cls-8" x="180.64" width="25.81" height="25.81"/><rect class="cls-7" x="154.84" y="722.58" width="25.8" height="25.81"/><rect class="cls-7" x="154.84" y="696.78" width="25.8" height="25.8"/><rect class="cls-10" x="154.84" y="670.97" width="25.8" height="25.8101"/><rect class="cls-10" x="154.84" y="645.16" width="25.8" height="25.81"/><rect class="cls-7" x="154.84" y="619.36" width="25.8" height="25.8"/><rect class="cls-7" x="154.84" y="593.55" width="25.8" height="25.81"/><rect class="cls-2" x="154.84" y="567.74" width="25.8" height="25.81"/><rect class="cls-2" x="154.84" y="541.94" width="25.8" height="25.8"/><rect class="cls-1" x="154.84" y="516.13" width="25.8" height="25.81"/><rect class="cls-1" x="154.84" y="490.33" width="25.8" height="25.8"/><rect class="cls-16" x="154.84" y="464.52" width="25.8" height="25.81"/><rect class="cls-17" x="154.84" y="438.71" width="25.8" height="25.81"/><rect class="cls-18" x="154.84" y="412.91" width="25.8" height="25.8"/><rect class="cls-18" x="154.84" y="387.1" width="25.8" height="25.81"/><rect class="cls-18" x="154.84" y="361.29" width="25.8" height="25.81"/><rect class="cls-18" x="154.84" y="335.49" width="25.8" height="25.8"/><rect class="cls-18" x="154.84" y="309.68" width="25.8" height="25.81"/><rect class="cls-2" x="154.84" y="283.87" width="25.8" height="25.81"/><rect class="cls-16" x="154.84" y="258.07" width="25.8" height="25.8"/><rect class="cls-16" x="154.84" y="232.26" width="25.8" height="25.81"/><rect class="cls-19" x="154.84" y="206.45" width="25.8" height="25.81"/><rect class="cls-19" x="154.84" y="180.65" width="25.8" height="25.8"/><rect class="cls-15" x="154.84" y="154.84" width="25.8" height="25.81"/><rect class="cls-13" x="154.84" y="129.04" width="25.8" height="25.8"/><rect class="cls-7" x="154.84" y="103.23" width="25.8" height="25.81"/><rect class="cls-1" x="154.84" y="77.42" width="25.8" height="25.81"/><rect class="cls-7" x="154.84" y="51.62" width="25.8" height="25.8"/><rect class="cls-7" x="154.84" y="25.81" width="25.8" height="25.81"/><rect class="cls-7" x="154.84" width="25.8" height="25.81"/><rect class="cls-7" x="129.03" y="722.58" width="25.81" height="25.81"/><rect class="cls-7" x="129.03" y="696.78" width="25.81" height="25.8"/><rect class="cls-9" x="129.03" y="670.97" width="25.81" height="25.8101"/><rect class="cls-10" x="129.03" y="645.16" width="25.81" height="25.81"/><rect class="cls-17" x="129.03" y="619.36" width="25.81" height="25.8"/><rect class="cls-17" x="129.03" y="593.55" width="25.81" height="25.81"/><rect class="cls-17" x="129.03" y="567.74" width="25.81" height="25.81"/><rect class="cls-2" x="129.03" y="541.94" width="25.81" height="25.8"/><rect class="cls-2" x="129.03" y="516.13" width="25.81" height="25.81"/><rect class="cls-2" x="129.03" y="490.33" width="25.81" height="25.8"/><rect class="cls-5" x="129.03" y="464.52" width="25.81" height="25.81"/><rect class="cls-5" x="129.03" y="438.71" width="25.81" height="25.81"/><rect class="cls-5" x="129.03" y="412.91" width="25.81" height="25.8"/><rect class="cls-11" x="129.03" y="387.1" width="25.81" height="25.81"/><rect class="cls-11" x="129.03" y="361.29" width="25.81" height="25.81"/><rect class="cls-5" x="129.03" y="335.49" width="25.81" height="25.8"/><rect class="cls-5" x="129.03" y="309.68" width="25.81" height="25.81"/><rect class="cls-5" x="129.03" y="283.87" width="25.81" height="25.81"/><rect class="cls-5" x="129.03" y="258.07" width="25.81" height="25.8"/><rect class="cls-1" x="129.03" y="232.26" width="25.81" height="25.81"/><rect class="cls-20" x="129.03" y="206.45" width="25.81" height="25.81"/><rect class="cls-19" x="129.03" y="180.65" width="25.81" height="25.8"/><rect class="cls-21" x="129.03" y="154.84" width="25.81" height="25.81"/><rect class="cls-1" x="129.03" y="129.04" width="25.81" height="25.8"/><rect class="cls-7" x="129.03" y="103.23" width="25.81" height="25.81"/><rect class="cls-7" x="129.03" y="77.42" width="25.81" height="25.81"/><rect class="cls-7" x="129.03" y="51.62" width="25.81" height="25.8"/><rect class="cls-7" x="129.03" y="25.81" width="25.81" height="25.81"/><rect class="cls-7" x="129.03" width="25.81" height="25.81"/><rect class="cls-13" x="103.23" y="722.58" width="25.8" height="25.81"/><rect class="cls-13" x="103.23" y="696.78" width="25.8" height="25.8"/><rect class="cls-18" x="103.23" y="670.97" width="25.8" height="25.8101"/><rect class="cls-18" x="103.23" y="645.16" width="25.8" height="25.81"/><rect class="cls-1" x="103.23" y="619.36" width="25.8" height="25.8"/><rect class="cls-1" x="103.23" y="593.55" width="25.8" height="25.81"/><rect class="cls-1" x="103.23" y="567.74" width="25.8" height="25.81"/><rect class="cls-1" x="103.23" y="541.94" width="25.8" height="25.8"/><rect class="cls-1" x="103.23" y="516.13" width="25.8" height="25.81"/><rect class="cls-1" x="103.23" y="490.33" width="25.8" height="25.8"/><rect class="cls-5" x="103.23" y="464.52" width="25.8" height="25.81"/><rect class="cls-11" x="103.23" y="438.71" width="25.8" height="25.81"/><rect class="cls-11" x="103.23" y="412.91" width="25.8" height="25.8"/><rect class="cls-22" x="103.23" y="387.1" width="25.8" height="25.81"/><rect class="cls-22" x="103.23" y="361.29" width="25.8" height="25.81"/><rect class="cls-11" x="103.23" y="335.49" width="25.8" height="25.8"/><rect class="cls-11" x="103.23" y="309.68" width="25.8" height="25.81"/><rect class="cls-5" x="103.23" y="283.87" width="25.8" height="25.81"/><rect class="cls-5" x="103.23" y="258.07" width="25.8" height="25.8"/><rect class="cls-1" x="103.23" y="232.26" width="25.8" height="25.81"/><rect class="cls-20" x="103.23" y="206.45" width="25.8" height="25.81"/><rect class="cls-10" x="103.23" y="180.65" width="25.8" height="25.8"/><rect class="cls-11" x="103.23" y="154.84" width="25.8" height="25.81"/><rect class="cls-21" x="103.23" y="129.04" width="25.8" height="25.8"/><rect class="cls-1" x="103.23" y="103.23" width="25.8" height="25.81"/><rect class="cls-7" x="103.23" y="77.42" width="25.8" height="25.81"/><rect class="cls-1" x="103.23" y="51.62" width="25.8" height="25.8"/><rect class="cls-7" x="103.23" y="25.81" width="25.8" height="25.81"/><rect class="cls-7" x="103.23" width="25.8" height="25.81"/><rect class="cls-7" x="77.42" y="722.58" width="25.81" height="25.81"/><rect class="cls-7" x="77.42" y="696.78" width="25.81" height="25.8"/><rect class="cls-10" x="77.42" y="670.97" width="25.81" height="25.8101"/><rect class="cls-10" x="77.42" y="645.16" width="25.81" height="25.81"/><rect class="cls-7" x="77.42" y="619.36" width="25.81" height="25.8"/><rect class="cls-7" x="77.42" y="593.55" width="25.81" height="25.81"/><rect class="cls-2" x="77.42" y="567.74" width="25.81" height="25.81"/><rect class="cls-2" x="77.42" y="541.94" width="25.81" height="25.8"/><rect class="cls-2" x="77.42" y="516.13" width="25.81" height="25.81"/><rect class="cls-1" x="77.42" y="490.33" width="25.81" height="25.8"/><rect class="cls-5" x="77.42" y="464.52" width="25.81" height="25.81"/><rect class="cls-11" x="77.42" y="438.71" width="25.81" height="25.81"/><rect class="cls-22" x="77.42" y="412.91" width="25.81" height="25.8"/><rect class="cls-22" x="77.42" y="387.1" width="25.81" height="25.81"/><rect class="cls-22" x="77.42" y="361.29" width="25.81" height="25.81"/><rect class="cls-22" x="77.42" y="335.49" width="25.81" height="25.8"/><rect class="cls-11" x="77.42" y="309.68" width="25.81" height="25.81"/><rect class="cls-11" x="77.42" y="283.87" width="25.81" height="25.81"/><rect class="cls-5" x="77.42" y="258.07" width="25.81" height="25.8"/><rect class="cls-21" x="77.42" y="232.26" width="25.81" height="25.81"/><rect class="cls-9" x="77.42" y="206.45" width="25.81" height="25.81"/><rect class="cls-9" x="77.42" y="180.65" width="25.81" height="25.8"/><rect class="cls-23" x="77.42" y="154.84" width="25.81" height="25.81"/><rect class="cls-10" x="77.42" y="129.04" width="25.81" height="25.8"/><rect class="cls-21" x="77.42" y="103.23" width="25.81" height="25.81"/><rect class="cls-1" x="77.42" y="77.42" width="25.81" height="25.81"/><rect class="cls-7" x="77.42" y="51.62" width="25.81" height="25.8"/><rect class="cls-1" x="77.42" y="25.81" width="25.81" height="25.81"/><rect class="cls-7" x="77.42" width="25.81" height="25.81"/><rect class="cls-7" x="51.61" y="722.58" width="25.81" height="25.81"/><rect class="cls-7" x="51.61" y="696.78" width="25.81" height="25.8"/><rect class="cls-9" x="51.61" y="670.97" width="25.81" height="25.8101"/><rect class="cls-10" x="51.61" y="645.16" width="25.81" height="25.81"/><rect class="cls-7" x="51.61" y="619.36" width="25.81" height="25.8"/><rect class="cls-7" x="51.61" y="593.55" width="25.81" height="25.81"/><rect class="cls-7" x="51.61" y="567.74" width="25.81" height="25.81"/><rect class="cls-2" x="51.61" y="541.94" width="25.81" height="25.8"/><rect class="cls-2" x="51.61" y="516.13" width="25.81" height="25.81"/><rect class="cls-2" x="51.61" y="490.33" width="25.81" height="25.8"/><rect class="cls-16" x="51.61" y="464.52" width="25.81" height="25.81"/><rect class="cls-17" x="51.61" y="438.71" width="25.81" height="25.81"/><rect class="cls-18" x="51.61" y="412.91" width="25.81" height="25.8"/><rect class="cls-18" x="51.61" y="387.1" width="25.81" height="25.81"/><rect class="cls-18" x="51.61" y="361.29" width="25.81" height="25.81"/><rect class="cls-18" x="51.61" y="335.49" width="25.81" height="25.8"/><rect class="cls-18" x="51.61" y="309.68" width="25.81" height="25.81"/><rect class="cls-2" x="51.61" y="283.87" width="25.81" height="25.81"/><rect class="cls-16" x="51.61" y="258.07" width="25.81" height="25.8"/><rect class="cls-1" x="51.61" y="232.26" width="25.81" height="25.81"/><rect class="cls-9" x="51.61" y="206.45" width="25.81" height="25.81"/><rect class="cls-9" x="51.61" y="180.65" width="25.81" height="25.8"/><rect class="cls-9" x="51.61" y="154.84" width="25.81" height="25.81"/><rect class="cls-9" x="51.61" y="129.04" width="25.81" height="25.8"/><rect class="cls-21" x="51.61" y="103.23" width="25.81" height="25.81"/><rect class="cls-1" x="51.61" y="77.42" width="25.81" height="25.81"/><rect class="cls-1" x="51.61" y="51.62" width="25.81" height="25.8"/><rect class="cls-7" x="51.61" y="25.81" width="25.81" height="25.81"/><rect class="cls-3" x="25.81" y="490.33" width="25.8" height="25.8"/><rect class="cls-3" x="25.81" y="464.52" width="25.8" height="25.81"/><rect class="cls-4" x="25.81" y="438.71" width="25.8" height="25.81"/><rect class="cls-4" x="25.81" y="412.91" width="25.8" height="25.8"/><rect class="cls-5" x="25.81" y="387.1" width="25.8" height="25.81"/><rect class="cls-5" x="25.81" y="361.29" width="25.8" height="25.81"/><rect class="cls-24" x="25.81" y="335.49" width="25.8" height="25.8"/><rect class="cls-24" x="25.81" y="309.68" width="25.8" height="25.81"/><rect class="cls-14" x="25.81" y="283.87" width="25.8" height="25.81"/><rect class="cls-11" x="25.81" y="258.07" width="25.8" height="25.8"/><rect class="cls-11" x="25.81" y="232.26" width="25.8" height="25.81"/><rect class="cls-9" x="25.81" y="180.65" width="25.8" height="25.8"/><rect class="cls-9" x="25.81" y="154.84" width="25.8" height="25.81"/><rect class="cls-9" x="25.81" y="129.04" width="25.8" height="25.8"/><rect class="cls-10" x="25.81" y="103.23" width="25.8" height="25.81"/><rect class="cls-13" x="25.81" y="77.42" width="25.8" height="25.81"/><rect class="cls-1" x="25.81" y="51.62" width="25.8" height="25.8"/><rect class="cls-1" x="25.81" y="25.81" width="25.8" height="25.81"/><rect class="cls-9" y="490.33" width="25.81" height="25.8"/><rect class="cls-10" y="464.52" width="25.81" height="25.81"/><rect class="cls-11" y="438.71" width="25.81" height="25.81"/><rect class="cls-11" y="412.91" width="25.81" height="25.8"/><rect class="cls-11" y="387.1" width="25.81" height="25.81"/><rect class="cls-11" y="361.29" width="25.81" height="25.81"/><rect class="cls-11" y="335.49" width="25.81" height="25.8"/><rect class="cls-11" y="309.68" width="25.81" height="25.81"/><rect class="cls-11" y="283.87" width="25.81" height="25.81"/><rect class="cls-11" y="258.07" width="25.81" height="25.8"/><rect class="cls-13" y="77.42" width="25.81" height="25.81"/><rect class="cls-13" y="51.62" width="25.81" height="25.8"/><rect class="cls-1" y="25.81" width="25.81" height="25.81"/><rect class="cls-1" width="25.81" height="25.81"/></g></g></svg>