<svg xmlns="http://www.w3.org/2000/svg" viewBox="0 0 438.71 541.93"><defs><style>.cls-1{fill:#777e94;}.cls-2{fill:#303648;}.cls-3{fill:#222638;}.cls-4{fill:#515877;}.cls-5{fill:#edf8fe;}.cls-6{fill:#554f4a;}.cls-7{fill:#766a6a;}.cls-8{fill:#2f2f2e;}.cls-9{fill:#232322;}.cls-10{fill:#636ab1;}.cls-11{fill:#363e6d;}.cls-12{fill:#c9b5b9;}.cls-13{fill:#1a1a1a;}.cls-14{fill:#41475d;}.cls-15{fill:#969dcc;}.cls-16{fill:#ccc;}.cls-17{fill:#4d4d4d;}</style></defs><title>toi</title><g id="Layer_2" data-name="Layer 2"><g id="grid"><rect class="cls-1" x="283.87" y="361.29" width="25.81" height="25.8"/><rect class="cls-2" x="412.91" y="154.83" width="25.8" height="25.81"/><rect class="cls-2" x="387.1" y="232.25" width="25.81" height="25.81"/><rect class="cls-3" x="387.1" y="129.03" width="25.81" height="25.8"/><rect class="cls-3" x="387.1" y="103.22" width="25.81" height="25.81"/><rect class="cls-3" x="361.29" y="206.45" width="25.81" height="25.8"/><rect class="cls-3" x="361.29" y="180.64" width="25.81" height="25.81"/><rect class="cls-3" x="361.29" y="154.83" width="25.81" height="25.81"/><rect class="cls-3" x="361.29" y="129.03" width="25.81" height="25.8"/><rect class="cls-3" x="361.29" y="103.22" width="25.81" height="25.81"/><rect class="cls-3" x="361.29" y="77.42" width="25.81" height="25.8"/><rect class="cls-3" x="335.49" y="258.06" width="25.8" height="25.81"/><rect class="cls-3" x="335.49" y="232.25" width="25.8" height="25.81"/><rect class="cls-4" x="335.49" y="206.45" width="25.8" height="25.8"/><rect class="cls-2" x="335.49" y="180.64" width="25.8" height="25.81"/><rect class="cls-2" x="335.49" y="154.83" width="25.8" height="25.81"/><rect class="cls-2" x="335.49" y="129.03" width="25.8" height="25.8"/><rect class="cls-4" x="335.49" y="103.22" width="25.8" height="25.81"/><rect class="cls-2" x="335.49" y="77.42" width="25.8" height="25.8"/><rect class="cls-4" x="335.49" y="51.61" width="25.8" height="25.81"/><rect class="cls-3" x="335.49" y="25.8" width="25.8" height="25.81"/><rect class="cls-3" x="309.68" y="309.67" width="25.81" height="25.81"/><rect class="cls-3" x="309.68" y="283.87" width="25.81" height="25.8"/><rect class="cls-3" x="309.68" y="258.06" width="25.81" height="25.81"/><rect class="cls-2" x="309.68" y="232.25" width="25.81" height="25.81"/><rect class="cls-2" x="309.68" y="206.45" width="25.81" height="25.8"/><rect class="cls-3" x="309.68" y="180.64" width="25.81" height="25.81"/><rect class="cls-3" x="309.68" y="154.83" width="25.81" height="25.81"/><rect class="cls-2" x="309.68" y="129.03" width="25.81" height="25.8"/><rect class="cls-4" x="309.68" y="103.22" width="25.81" height="25.81"/><rect class="cls-2" x="309.68" y="77.42" width="25.81" height="25.8"/><rect class="cls-2" x="309.68" y="51.61" width="25.81" height="25.81"/><rect class="cls-3" x="309.68" y="25.8" width="25.81" height="25.81"/><rect class="cls-5" x="283.87" y="464.51" width="25.81" height="25.81"/><rect class="cls-5" x="283.87" y="438.71" width="25.81" height="25.8"/><rect class="cls-6" x="283.87" y="412.9" width="25.81" height="25.81"/><rect class="cls-6" x="283.87" y="387.09" width="25.81" height="25.81"/><rect class="cls-3" x="283.87" y="283.87" width="25.81" height="25.8"/><rect class="cls-2" x="283.87" y="258.06" width="25.81" height="25.81"/><rect class="cls-2" x="283.87" y="232.25" width="25.81" height="25.81"/><rect class="cls-3" x="283.87" y="206.45" width="25.81" height="25.8"/><rect class="cls-7" x="283.87" y="180.64" width="25.81" height="25.81"/><rect class="cls-4" x="283.87" y="154.83" width="25.81" height="25.81"/><rect class="cls-2" x="283.87" y="129.03" width="25.81" height="25.8"/><rect class="cls-4" x="283.87" y="103.22" width="25.81" height="25.81"/><rect class="cls-4" x="283.87" y="77.42" width="25.81" height="25.8"/><rect class="cls-2" x="283.87" y="51.61" width="25.81" height="25.81"/><rect class="cls-2" x="283.87" y="25.8" width="25.81" height="25.81"/><rect class="cls-3" x="283.87" width="25.81" height="25.8"/><rect class="cls-6" x="258.07" y="516.12" width="25.8" height="25.81"/><rect class="cls-8" x="258.07" y="490.32" width="25.8" height="25.8"/><rect class="cls-5" x="258.07" y="464.51" width="25.8" height="25.81"/><rect class="cls-5" x="258.07" y="438.71" width="25.8" height="25.8"/><rect class="cls-8" x="258.07" y="412.9" width="25.8" height="25.81"/><rect class="cls-9" x="258.07" y="387.09" width="25.8" height="25.81"/><rect class="cls-1" x="258.07" y="361.29" width="25.8" height="25.8"/><rect class="cls-10" x="258.07" y="335.48" width="25.8" height="25.81"/><rect class="cls-11" x="258.07" y="309.67" width="25.8" height="25.81"/><rect class="cls-11" x="258.07" y="283.87" width="25.8" height="25.8"/><rect class="cls-2" x="258.07" y="258.06" width="25.8" height="25.81"/><rect class="cls-3" x="258.07" y="232.25" width="25.8" height="25.81"/><rect class="cls-7" x="258.07" y="206.45" width="25.8" height="25.8"/><rect class="cls-12" x="258.07" y="180.64" width="25.8" height="25.81"/><rect class="cls-2" x="258.07" y="154.83" width="25.8" height="25.81"/><rect class="cls-2" x="258.07" y="129.03" width="25.8" height="25.8"/><rect class="cls-2" x="258.07" y="103.22" width="25.8" height="25.81"/><rect class="cls-2" x="258.07" y="77.42" width="25.8" height="25.8"/><rect class="cls-2" x="258.07" y="51.61" width="25.8" height="25.81"/><rect class="cls-2" x="258.07" y="25.8" width="25.8" height="25.81"/><rect class="cls-2" x="258.07" width="25.8" height="25.8"/><rect class="cls-6" x="232.26" y="516.12" width="25.81" height="25.81"/><rect class="cls-8" x="232.26" y="490.32" width="25.81" height="25.8"/><rect class="cls-5" x="232.26" y="464.51" width="25.81" height="25.81"/><rect class="cls-1" x="232.26" y="438.71" width="25.81" height="25.8"/><rect class="cls-9" x="232.26" y="412.9" width="25.81" height="25.81"/><rect class="cls-8" x="232.26" y="387.09" width="25.81" height="25.81"/><rect class="cls-5" x="232.26" y="361.29" width="25.81" height="25.8"/><rect class="cls-10" x="232.26" y="335.48" width="25.81" height="25.81"/><rect class="cls-11" x="232.26" y="309.67" width="25.81" height="25.81"/><rect class="cls-13" x="232.26" y="283.87" width="25.81" height="25.8"/><rect class="cls-13" x="232.26" y="258.06" width="25.81" height="25.81"/><rect class="cls-2" x="232.26" y="232.25" width="25.81" height="25.81"/><rect class="cls-2" x="232.26" y="206.45" width="25.81" height="25.8"/><rect class="cls-2" x="232.26" y="180.64" width="25.81" height="25.81"/><rect class="cls-2" x="232.26" y="154.83" width="25.81" height="25.81"/><rect class="cls-2" x="232.26" y="129.03" width="25.81" height="25.8"/><rect class="cls-2" x="232.26" y="103.22" width="25.81" height="25.81"/><rect class="cls-2" x="232.26" y="77.42" width="25.81" height="25.8"/><rect class="cls-3" x="232.26" y="51.61" width="25.81" height="25.81"/><rect class="cls-2" x="232.26" y="25.8" width="25.81" height="25.81"/><rect class="cls-3" x="232.26" width="25.81" height="25.8"/><rect class="cls-6" x="206.45" y="516.12" width="25.81" height="25.81"/><rect class="cls-8" x="206.45" y="490.32" width="25.81" height="25.8"/><rect class="cls-8" x="206.45" y="464.51" width="25.81" height="25.81"/><rect class="cls-12" x="206.45" y="438.71" width="25.81" height="25.8"/><rect class="cls-7" x="206.45" y="412.9" width="25.81" height="25.81"/><rect class="cls-6" x="206.45" y="387.09" width="25.81" height="25.81"/><rect class="cls-5" x="206.45" y="361.29" width="25.81" height="25.8"/><rect class="cls-10" x="206.45" y="335.48" width="25.81" height="25.81"/><rect class="cls-14" x="206.45" y="309.67" width="25.81" height="25.81"/><rect class="cls-7" x="206.45" y="283.87" width="25.81" height="25.8"/><rect class="cls-7" x="206.45" y="258.06" width="25.81" height="25.81"/><rect class="cls-7" x="206.45" y="232.25" width="25.81" height="25.81"/><rect class="cls-7" x="206.45" y="206.45" width="25.81" height="25.8"/><rect class="cls-7" x="206.45" y="180.64" width="25.81" height="25.81"/><rect class="cls-2" x="206.45" y="154.83" width="25.81" height="25.81"/><rect class="cls-2" x="206.45" y="129.03" width="25.81" height="25.8"/><rect class="cls-3" x="206.45" y="103.22" width="25.81" height="25.81"/><rect class="cls-3" x="206.45" y="77.42" width="25.81" height="25.8"/><rect class="cls-2" x="206.45" y="51.61" width="25.81" height="25.81"/><rect class="cls-2" x="206.45" y="25.8" width="25.81" height="25.81"/><rect class="cls-2" x="206.45" width="25.81" height="25.8"/><rect class="cls-6" x="180.65" y="490.32" width="25.8" height="25.8"/><rect class="cls-8" x="180.65" y="464.51" width="25.8" height="25.81"/><rect class="cls-12" x="180.65" y="438.71" width="25.8" height="25.8"/><rect class="cls-12" x="180.65" y="412.9" width="25.8" height="25.81"/><rect class="cls-8" x="180.65" y="387.09" width="25.8" height="25.81"/><rect class="cls-8" x="180.65" y="361.29" width="25.8" height="25.8"/><rect class="cls-14" x="180.65" y="335.48" width="25.8" height="25.81"/><rect class="cls-15" x="180.65" y="309.67" width="25.8" height="25.81"/><rect class="cls-7" x="180.65" y="283.87" width="25.8" height="25.8"/><rect class="cls-12" x="180.65" y="258.06" width="25.8" height="25.81"/><rect class="cls-12" x="180.65" y="232.25" width="25.8" height="25.81"/><rect class="cls-12" x="180.65" y="206.45" width="25.8" height="25.8"/><rect class="cls-7" x="180.65" y="180.64" width="25.8" height="25.81"/><rect class="cls-7" x="180.65" y="154.83" width="25.8" height="25.81"/><rect class="cls-3" x="180.65" y="129.03" width="25.8" height="25.8"/><rect class="cls-2" x="180.65" y="103.22" width="25.8" height="25.81"/><rect class="cls-4" x="180.65" y="77.42" width="25.8" height="25.8"/><rect class="cls-2" x="180.65" y="51.61" width="25.8" height="25.81"/><rect class="cls-2" x="180.65" y="25.8" width="25.8" height="25.81"/><rect class="cls-2" x="180.65" width="25.8" height="25.8"/><rect class="cls-6" x="154.84" y="490.32" width="25.81" height="25.8"/><rect class="cls-15" x="154.84" y="464.51" width="25.81" height="25.81"/><rect class="cls-1" x="154.84" y="438.71" width="25.81" height="25.8"/><rect class="cls-6" x="154.84" y="412.9" width="25.81" height="25.81"/><rect class="cls-6" x="154.84" y="387.09" width="25.81" height="25.81"/><rect class="cls-8" x="154.84" y="361.29" width="25.81" height="25.8"/><rect class="cls-11" x="154.84" y="335.48" width="25.81" height="25.81"/><rect class="cls-10" x="154.84" y="309.67" width="25.81" height="25.81"/><rect class="cls-7" x="154.84" y="283.87" width="25.81" height="25.8"/><rect class="cls-12" x="154.84" y="258.06" width="25.81" height="25.81"/><rect class="cls-16" x="154.84" y="232.25" width="25.81" height="25.81"/><rect class="cls-17" x="154.84" y="206.45" width="25.81" height="25.8"/><rect x="154.84" y="180.64" width="25.81" height="25.81"/><rect class="cls-7" x="154.84" y="154.83" width="25.81" height="25.81"/><rect class="cls-2" x="154.84" y="129.03" width="25.81" height="25.8"/><rect class="cls-2" x="154.84" y="103.22" width="25.81" height="25.81"/><rect class="cls-2" x="154.84" y="77.42" width="25.81" height="25.8"/><rect class="cls-2" x="154.84" y="51.61" width="25.81" height="25.81"/><rect class="cls-2" x="154.84" y="25.8" width="25.81" height="25.81"/><rect class="cls-4" x="154.84" width="25.81" height="25.8"/><rect class="cls-6" x="129.04" y="490.32" width="25.8" height="25.8"/><rect class="cls-8" x="129.04" y="464.51" width="25.8" height="25.81"/><rect class="cls-6" x="129.04" y="438.71" width="25.8" height="25.8"/><rect class="cls-1" x="129.04" y="412.9" width="25.8" height="25.81"/><rect class="cls-6" x="129.04" y="387.09" width="25.8" height="25.81"/><rect class="cls-8" x="129.04" y="361.29" width="25.8" height="25.8"/><rect class="cls-10" x="129.04" y="335.48" width="25.8" height="25.81"/><rect class="cls-11" x="129.04" y="309.67" width="25.8" height="25.81"/><rect class="cls-12" x="129.04" y="283.87" width="25.8" height="25.8"/><rect class="cls-12" x="129.04" y="258.06" width="25.8" height="25.81"/><rect class="cls-4" x="129.04" y="232.25" width="25.8" height="25.81"/><rect class="cls-2" x="129.04" y="206.45" width="25.8" height="25.8"/><rect x="129.04" y="180.64" width="25.8" height="25.81"/><rect class="cls-7" x="129.04" y="154.83" width="25.8" height="25.81"/><rect class="cls-2" x="129.04" y="129.03" width="25.8" height="25.8"/><rect class="cls-4" x="129.04" y="103.22" width="25.8" height="25.81"/><rect class="cls-2" x="129.04" y="77.42" width="25.8" height="25.8"/><rect class="cls-3" x="129.04" y="51.61" width="25.8" height="25.81"/><rect class="cls-2" x="129.04" y="25.8" width="25.8" height="25.81"/><rect class="cls-2" x="129.04" width="25.8" height="25.8"/><rect class="cls-5" x="103.23" y="438.71" width="25.81" height="25.8"/><rect class="cls-1" x="103.23" y="412.9" width="25.81" height="25.81"/><rect class="cls-6" x="103.23" y="387.09" width="25.81" height="25.81"/><rect class="cls-6" x="103.23" y="361.29" width="25.81" height="25.8"/><rect class="cls-8" x="103.23" y="335.48" width="25.81" height="25.81"/><rect class="cls-10" x="103.23" y="309.67" width="25.81" height="25.81"/><rect class="cls-12" x="103.23" y="283.87" width="25.81" height="25.8"/><rect class="cls-12" x="103.23" y="258.06" width="25.81" height="25.81"/><rect class="cls-12" x="103.23" y="232.25" width="25.81" height="25.81"/><rect class="cls-12" x="103.23" y="206.45" width="25.81" height="25.8"/><rect class="cls-12" x="103.23" y="180.64" width="25.81" height="25.81"/><rect class="cls-12" x="103.23" y="154.83" width="25.81" height="25.81"/><rect class="cls-2" x="103.23" y="129.03" width="25.81" height="25.8"/><rect class="cls-2" x="103.23" y="103.22" width="25.81" height="25.81"/><rect class="cls-2" x="103.23" y="77.42" width="25.81" height="25.8"/><rect class="cls-2" x="103.23" y="51.61" width="25.81" height="25.81"/><rect class="cls-2" x="103.23" y="25.8" width="25.81" height="25.81"/><rect class="cls-4" x="103.23" width="25.81" height="25.8"/><rect class="cls-7" x="77.42" y="412.9" width="25.81" height="25.81"/><rect class="cls-7" x="77.42" y="387.09" width="25.81" height="25.81"/><rect class="cls-1" x="77.42" y="361.29" width="25.81" height="25.8"/><rect class="cls-1" x="77.42" y="335.48" width="25.81" height="25.81"/><rect class="cls-7" x="77.42" y="283.87" width="25.81" height="25.8"/><rect class="cls-12" x="77.42" y="258.06" width="25.81" height="25.81"/><rect class="cls-12" x="77.42" y="232.25" width="25.81" height="25.81"/><rect class="cls-12" x="77.42" y="206.45" width="25.81" height="25.8"/><rect class="cls-12" x="77.42" y="180.64" width="25.81" height="25.81"/><rect class="cls-12" x="77.42" y="154.83" width="25.81" height="25.81"/><rect class="cls-4" x="77.42" y="129.03" width="25.81" height="25.8"/><rect class="cls-3" x="77.42" y="103.22" width="25.81" height="25.81"/><rect class="cls-2" x="77.42" y="77.42" width="25.81" height="25.8"/><rect class="cls-2" x="77.42" y="51.61" width="25.81" height="25.81"/><rect class="cls-4" x="77.42" y="25.8" width="25.81" height="25.81"/><rect class="cls-7" x="51.62" y="258.06" width="25.8" height="25.81"/><rect class="cls-7" x="51.62" y="232.25" width="25.8" height="25.81"/><rect class="cls-7" x="51.62" y="206.45" width="25.8" height="25.8"/><rect class="cls-7" x="51.62" y="180.64" width="25.8" height="25.81"/><rect class="cls-4" x="51.62" y="154.83" width="25.8" height="25.81"/><rect class="cls-4" x="51.62" y="129.03" width="25.8" height="25.8"/><rect class="cls-4" x="51.62" y="103.22" width="25.8" height="25.81"/><rect class="cls-4" x="51.62" y="77.42" width="25.8" height="25.8"/><rect class="cls-4" x="51.62" y="51.61" width="25.8" height="25.81"/><rect class="cls-4" x="25.81" y="154.83" width="25.81" height="25.81"/><rect class="cls-4" x="25.81" y="129.03" width="25.81" height="25.8"/><rect class="cls-4" x="25.81" y="103.22" width="25.81" height="25.81"/><rect class="cls-4" y="77.42" width="25.81" height="25.8"/></g></g></svg>