<svg xmlns="http://www.w3.org/2000/svg" viewBox="0 0 309.68 464.52"><defs><style>.cls-1{fill:#c198b5;}.cls-2{fill:#e1bdd8;}.cls-3{fill:#20334b;}.cls-4{fill:#152525;}.cls-5{fill:#32415a;}.cls-6{fill:#a17667;}.cls-7{fill:#4d4d4d;}.cls-8{fill:gray;}.cls-9{fill:#cfbada;}.cls-10{fill:#63433e;}.cls-11{fill:#918d79;}.cls-12{fill:#eae4f1;}.cls-13{fill:#e9d6e9;}.cls-14{fill:#5b4634;}.cls-15{fill:#edd2e5;}.cls-16{fill:#daaf8f;}.cls-17{fill:#555150;}.cls-18{fill:#cfbf86;}.cls-19{fill:#b8a48e;}.cls-20{fill:#a1a0b4;}.cls-21{fill:#f2f2f2;}.cls-22{fill:#b3b3b3;}.cls-23{fill:#d08d98;}.cls-24{fill:#865b67;}</style></defs><title>whm</title><g id="Layer_2" data-name="Layer 2"><g id="grid"><rect class="cls-1" x="283.87" y="258.06" width="25.81" height="25.81"/><rect class="cls-1" x="283.87" y="232.26" width="25.81" height="25.8"/><rect class="cls-1" x="283.87" y="206.45" width="25.81" height="25.81"/><rect class="cls-1" x="283.87" y="180.64" width="25.81" height="25.81"/><rect class="cls-1" x="283.87" y="154.84" width="25.81" height="25.8"/><rect class="cls-1" x="283.87" y="129.03" width="25.81" height="25.81"/><rect class="cls-1" x="283.87" y="103.23" width="25.81" height="25.8"/><rect class="cls-2" x="283.87" y="77.42" width="25.81" height="25.81"/><rect class="cls-1" x="258.06" y="283.87" width="25.81" height="25.81"/><rect class="cls-1" x="258.06" y="258.06" width="25.81" height="25.81"/><rect class="cls-2" x="258.06" y="232.26" width="25.81" height="25.8"/><rect class="cls-2" x="258.06" y="206.45" width="25.81" height="25.81"/><rect class="cls-1" x="258.06" y="180.64" width="25.81" height="25.81"/><rect class="cls-1" x="258.06" y="154.84" width="25.81" height="25.8"/><rect class="cls-2" x="258.06" y="129.03" width="25.81" height="25.81"/><rect class="cls-2" x="258.06" y="103.23" width="25.81" height="25.8"/><rect class="cls-2" x="258.06" y="77.42" width="25.81" height="25.81"/><rect class="cls-2" x="258.06" y="51.61" width="25.81" height="25.81"/><rect class="cls-3" x="232.26" y="387.1" width="25.8" height="25.8"/><rect class="cls-4" x="232.26" y="361.29" width="25.8" height="25.81"/><rect class="cls-5" x="232.26" y="335.48" width="25.8" height="25.81"/><rect class="cls-4" x="232.26" y="309.68" width="25.8" height="25.8"/><rect class="cls-2" x="232.26" y="283.87" width="25.8" height="25.81"/><rect class="cls-2" x="232.26" y="258.06" width="25.8" height="25.81"/><rect class="cls-2" x="232.26" y="232.26" width="25.8" height="25.8"/><rect class="cls-1" x="232.26" y="206.45" width="25.8" height="25.81"/><rect class="cls-6" x="232.26" y="180.64" width="25.8" height="25.81"/><rect class="cls-6" x="232.26" y="154.84" width="25.8" height="25.8"/><rect class="cls-2" x="232.26" y="129.03" width="25.8" height="25.81"/><rect class="cls-7" x="232.26" y="103.23" width="25.8" height="25.8"/><rect class="cls-8" x="232.26" y="77.42" width="25.8" height="25.81"/><rect class="cls-2" x="232.26" y="51.61" width="25.8" height="25.81"/><rect class="cls-2" x="232.26" y="25.81" width="25.8" height="25.8"/><rect class="cls-9" x="206.45" y="438.71" width="25.81" height="25.81"/><rect class="cls-10" x="206.45" y="412.9" width="25.81" height="25.81"/><rect class="cls-4" x="206.45" y="387.1" width="25.81" height="25.8"/><rect class="cls-11" x="206.45" y="361.29" width="25.81" height="25.81"/><rect class="cls-12" x="206.45" y="335.48" width="25.81" height="25.81"/><rect class="cls-3" x="206.45" y="309.68" width="25.81" height="25.8"/><rect class="cls-2" x="206.45" y="283.87" width="25.81" height="25.81"/><rect class="cls-1" x="206.45" y="258.06" width="25.81" height="25.81"/><rect class="cls-1" x="206.45" y="232.26" width="25.81" height="25.8"/><rect class="cls-1" x="206.45" y="206.45" width="25.81" height="25.81"/><rect class="cls-2" x="206.45" y="180.64" width="25.81" height="25.81"/><rect class="cls-1" x="206.45" y="154.84" width="25.81" height="25.8"/><rect class="cls-2" x="206.45" y="129.03" width="25.81" height="25.81"/><rect class="cls-7" x="206.45" y="103.23" width="25.81" height="25.8"/><rect class="cls-7" x="206.45" y="77.42" width="25.81" height="25.81"/><rect class="cls-2" x="206.45" y="51.61" width="25.81" height="25.81"/><rect class="cls-2" x="206.45" y="25.81" width="25.81" height="25.8"/><rect class="cls-2" x="206.45" width="25.81" height="25.81"/><rect class="cls-13" x="180.64" y="438.71" width="25.81" height="25.81"/><rect class="cls-6" x="180.64" y="412.9" width="25.81" height="25.81"/><rect class="cls-6" x="180.64" y="387.1" width="25.81" height="25.8"/><rect class="cls-14" x="180.64" y="361.29" width="25.81" height="25.81"/><rect class="cls-11" x="180.64" y="335.48" width="25.81" height="25.81"/><rect class="cls-3" x="180.64" y="309.68" width="25.81" height="25.8"/><rect class="cls-3" x="180.64" y="283.87" width="25.81" height="25.81"/><rect class="cls-4" x="180.64" y="258.06" width="25.81" height="25.81"/><rect class="cls-1" x="180.64" y="232.26" width="25.81" height="25.8"/><rect class="cls-1" x="180.64" y="206.45" width="25.81" height="25.81"/><rect class="cls-1" x="180.64" y="180.64" width="25.81" height="25.81"/><rect class="cls-10" x="180.64" y="154.84" width="25.81" height="25.8"/><rect class="cls-1" x="180.64" y="129.03" width="25.81" height="25.81"/><rect class="cls-1" x="180.64" y="103.23" width="25.81" height="25.8"/><rect class="cls-2" x="180.64" y="77.42" width="25.81" height="25.81"/><rect class="cls-2" x="180.64" y="51.61" width="25.81" height="25.81"/><rect class="cls-2" x="180.64" y="25.81" width="25.81" height="25.8"/><rect class="cls-15" x="180.64" width="25.81" height="25.81"/><rect class="cls-13" x="154.84" y="438.71" width="25.8" height="25.81"/><rect class="cls-6" x="154.84" y="412.9" width="25.8" height="25.81"/><rect class="cls-16" x="154.84" y="387.1" width="25.8" height="25.8"/><rect class="cls-6" x="154.84" y="361.29" width="25.8" height="25.81"/><rect class="cls-5" x="154.84" y="335.48" width="25.8" height="25.81"/><rect class="cls-5" x="154.84" y="309.68" width="25.8" height="25.8"/><rect class="cls-3" x="154.84" y="283.87" width="25.8" height="25.81"/><rect class="cls-6" x="154.84" y="258.06" width="25.8" height="25.81"/><rect class="cls-6" x="154.84" y="232.26" width="25.8" height="25.8"/><rect class="cls-6" x="154.84" y="206.45" width="25.8" height="25.81"/><rect class="cls-6" x="154.84" y="180.64" width="25.8" height="25.81"/><rect class="cls-6" x="154.84" y="154.84" width="25.8" height="25.8"/><rect class="cls-15" x="154.84" y="129.03" width="25.8" height="25.81"/><rect class="cls-2" x="154.84" y="103.23" width="25.8" height="25.8"/><rect class="cls-15" x="154.84" y="77.42" width="25.8" height="25.81"/><rect class="cls-2" x="154.84" y="51.61" width="25.8" height="25.81"/><rect class="cls-2" x="154.84" y="25.81" width="25.8" height="25.8"/><rect class="cls-2" x="154.84" width="25.8" height="25.81"/><rect class="cls-9" x="129.03" y="438.71" width="25.81" height="25.81"/><rect class="cls-10" x="129.03" y="412.9" width="25.81" height="25.81"/><rect class="cls-17" x="129.03" y="387.1" width="25.81" height="25.8"/><rect class="cls-4" x="129.03" y="361.29" width="25.81" height="25.81"/><rect class="cls-18" x="129.03" y="335.48" width="25.81" height="25.81"/><rect class="cls-5" x="129.03" y="309.68" width="25.81" height="25.8"/><rect class="cls-11" x="129.03" y="283.87" width="25.81" height="25.81"/><rect class="cls-6" x="129.03" y="258.06" width="25.81" height="25.81"/><rect class="cls-6" x="129.03" y="232.26" width="25.81" height="25.8"/><rect class="cls-16" x="129.03" y="206.45" width="25.81" height="25.81"/><rect class="cls-16" x="129.03" y="180.64" width="25.81" height="25.81"/><rect class="cls-16" x="129.03" y="154.84" width="25.81" height="25.8"/><rect class="cls-15" x="129.03" y="129.03" width="25.81" height="25.81"/><rect class="cls-15" x="129.03" y="103.23" width="25.81" height="25.8"/><rect class="cls-2" x="129.03" y="77.42" width="25.81" height="25.81"/><rect class="cls-2" x="129.03" y="51.61" width="25.81" height="25.81"/><rect class="cls-2" x="129.03" y="25.81" width="25.81" height="25.8"/><rect class="cls-15" x="129.03" width="25.81" height="25.81"/><rect class="cls-13" x="103.23" y="438.71" width="25.8" height="25.81"/><rect class="cls-6" x="103.23" y="412.9" width="25.8" height="25.81"/><rect class="cls-19" x="103.23" y="387.1" width="25.8" height="25.8"/><rect class="cls-4" x="103.23" y="361.29" width="25.8" height="25.81"/><rect class="cls-4" x="103.23" y="335.48" width="25.8" height="25.81"/><rect class="cls-20" x="103.23" y="309.68" width="25.8" height="25.8"/><rect class="cls-6" x="103.23" y="283.87" width="25.8" height="25.81"/><rect class="cls-6" x="103.23" y="258.06" width="25.8" height="25.81"/><rect class="cls-16" x="103.23" y="232.26" width="25.8" height="25.8"/><rect class="cls-21" x="103.23" y="206.45" width="25.8" height="25.81"/><rect class="cls-22" x="103.23" y="180.64" width="25.8" height="25.81"/><rect class="cls-10" x="103.23" y="154.84" width="25.8" height="25.8"/><rect class="cls-15" x="103.23" y="129.03" width="25.8" height="25.81"/><rect class="cls-2" x="103.23" y="103.23" width="25.8" height="25.8"/><rect class="cls-15" x="103.23" y="77.42" width="25.8" height="25.81"/><rect class="cls-2" x="103.23" y="51.61" width="25.8" height="25.81"/><rect class="cls-2" x="103.23" y="25.81" width="25.8" height="25.8"/><rect class="cls-2" x="103.23" width="25.8" height="25.81"/><rect class="cls-13" x="77.42" y="438.71" width="25.81" height="25.81"/><rect class="cls-16" x="77.42" y="412.9" width="25.81" height="25.81"/><rect class="cls-19" x="77.42" y="387.1" width="25.81" height="25.8"/><rect class="cls-4" x="77.42" y="361.29" width="25.81" height="25.81"/><rect class="cls-18" x="77.42" y="335.48" width="25.81" height="25.81"/><rect class="cls-5" x="77.42" y="309.68" width="25.81" height="25.8"/><rect class="cls-11" x="77.42" y="283.87" width="25.81" height="25.81"/><rect class="cls-16" x="77.42" y="258.06" width="25.81" height="25.81"/><rect class="cls-16" x="77.42" y="232.26" width="25.81" height="25.8"/><rect class="cls-23" x="77.42" y="206.45" width="25.81" height="25.81"/><rect class="cls-24" x="77.42" y="180.64" width="25.81" height="25.81"/><rect class="cls-10" x="77.42" y="154.84" width="25.81" height="25.8"/><rect class="cls-6" x="77.42" y="129.03" width="25.81" height="25.81"/><rect class="cls-2" x="77.42" y="103.23" width="25.81" height="25.8"/><rect class="cls-2" x="77.42" y="77.42" width="25.81" height="25.81"/><rect class="cls-2" x="77.42" y="51.61" width="25.81" height="25.81"/><rect class="cls-2" x="77.42" y="25.81" width="25.81" height="25.8"/><rect class="cls-15" x="77.42" width="25.81" height="25.81"/><rect class="cls-3" x="51.61" y="387.1" width="25.81" height="25.8"/><rect class="cls-5" x="51.61" y="361.29" width="25.81" height="25.81"/><rect class="cls-5" x="51.61" y="335.48" width="25.81" height="25.81"/><rect class="cls-5" x="51.61" y="309.68" width="25.81" height="25.8"/><rect class="cls-4" x="51.61" y="283.87" width="25.81" height="25.81"/><rect class="cls-16" x="51.61" y="258.06" width="25.81" height="25.81"/><rect class="cls-16" x="51.61" y="232.26" width="25.81" height="25.8"/><rect class="cls-16" x="51.61" y="206.45" width="25.81" height="25.81"/><rect class="cls-16" x="51.61" y="180.64" width="25.81" height="25.81"/><rect class="cls-16" x="51.61" y="154.84" width="25.81" height="25.8"/><rect class="cls-15" x="51.61" y="129.03" width="25.81" height="25.81"/><rect class="cls-2" x="51.61" y="103.23" width="25.81" height="25.8"/><rect class="cls-15" x="51.61" y="77.42" width="25.81" height="25.81"/><rect class="cls-2" x="51.61" y="51.61" width="25.81" height="25.81"/><rect class="cls-2" x="51.61" y="25.81" width="25.81" height="25.8"/><rect class="cls-16" x="25.81" y="361.29" width="25.8" height="25.81"/><rect class="cls-14" x="25.81" y="335.48" width="25.8" height="25.81"/><rect class="cls-3" x="25.81" y="309.68" width="25.8" height="25.8"/><rect class="cls-16" x="25.81" y="232.26" width="25.8" height="25.8"/><rect class="cls-16" x="25.81" y="206.45" width="25.8" height="25.81"/><rect class="cls-16" x="25.81" y="180.64" width="25.8" height="25.81"/><rect class="cls-16" x="25.81" y="154.84" width="25.8" height="25.8"/><rect class="cls-15" x="25.81" y="129.03" width="25.8" height="25.81"/><rect class="cls-15" x="25.81" y="103.23" width="25.8" height="25.8"/><rect class="cls-2" x="25.81" y="77.42" width="25.8" height="25.81"/><rect class="cls-15" x="25.81" y="51.61" width="25.8" height="25.81"/><rect class="cls-15" x="25.81" y="25.81" width="25.8" height="25.8"/><rect class="cls-15" y="154.84" width="25.81" height="25.8"/><rect class="cls-15" y="129.03" width="25.81" height="25.81"/><rect class="cls-15" y="103.23" width="25.81" height="25.8"/><rect class="cls-15" y="77.42" width="25.81" height="25.81"/><rect class="cls-15" y="51.61" width="25.81" height="25.81"/></g></g></svg>